<svg width="58" height="60" viewBox="0 0 58 60" fill="none" xmlns="http://www.w3.org/2000/svg">
<path d="M56.2624 49.4177L53.8614 50.217C53.7129 50.6533 53.537 51.0794 53.3346 51.4903L54.4664 53.754C54.6617 54.1455 54.5854 54.6184 54.2753 54.9276L51.8956 57.3082C51.5854 57.6164 51.1115 57.6937 50.721 57.4984L48.4573 56.3665C48.0465 56.5699 47.6214 56.7448 47.1851 56.8933L46.3848 59.2943C46.2465 59.7093 45.858 59.9899 45.4207 59.9899H42.0536C41.6163 59.9899 41.2278 59.7093 41.0885 59.2943L40.2892 56.8933C39.8529 56.7448 39.4278 56.5699 39.0159 56.3665L36.7532 57.4984C36.3597 57.6937 35.8878 57.6164 35.5787 57.3082L33.198 54.9276C32.8888 54.6184 32.8115 54.1455 33.0078 53.754L34.1397 51.4903C33.9363 51.0794 33.7614 50.6533 33.6129 50.217L31.2119 49.4177C30.797 49.2794 30.5163 48.8909 30.5163 48.4526V45.0855C30.5163 44.6482 30.797 44.2598 31.2119 44.1215L33.6129 43.3211C33.7614 42.8848 33.9363 42.4598 34.1397 42.0489L33.0078 39.7852C32.8115 39.3937 32.8888 38.9208 33.198 38.6116L35.5787 36.2309C35.8878 35.9218 36.3607 35.8435 36.7532 36.0398L39.0159 37.1716C39.4278 36.9692 39.8529 36.7933 40.2892 36.6448L41.0885 34.2438C41.2278 33.8289 41.6163 33.5493 42.0536 33.5493H45.4207C45.858 33.5493 46.2465 33.8289 46.3848 34.2438L47.1851 36.6448C47.6214 36.7933 48.0465 36.9692 48.4573 37.1716L50.721 36.0398C51.1136 35.8435 51.5864 35.9218 51.8956 36.2309L54.2753 38.6116C54.5854 38.9208 54.6617 39.3937 54.4664 39.7852L53.3346 42.0489C53.537 42.4598 53.7129 42.8848 53.8614 43.3211L56.2624 44.1215C56.6773 44.2598 56.957 44.6482 56.957 45.0855V48.4526C56.957 48.8909 56.6773 49.2794 56.2624 49.4177ZM54.9231 45.8187L52.7244 45.0855C52.4051 44.9798 52.16 44.7225 52.0675 44.3991C51.8844 43.7554 51.6281 43.135 51.3037 42.5554C51.14 42.2615 51.1319 41.9055 51.2824 41.6045L52.3187 39.5309L50.9753 38.1876L48.9017 39.2238C48.5997 39.3743 48.2437 39.3652 47.9509 39.2025C47.3712 38.8781 46.7509 38.6218 46.1071 38.4387C45.7837 38.3472 45.5265 38.1011 45.4207 37.7818L44.6875 35.5832H42.7868L42.0536 37.7818C41.9468 38.1011 41.6905 38.3472 41.3671 38.4387C40.7224 38.6218 40.1031 38.8781 39.5234 39.2025C39.2295 39.3652 38.8736 39.3743 38.5726 39.2238L36.499 38.1876L35.1546 39.5309L36.1919 41.6045C36.3424 41.9055 36.3343 42.2615 36.1695 42.5554C35.8461 43.135 35.5888 43.7554 35.4058 44.3991C35.3143 44.7225 35.0681 44.9798 34.7498 45.0855L32.5502 45.8187V47.7194L34.7498 48.4526C35.0681 48.5594 35.3143 48.8157 35.4058 49.1391C35.5888 49.7838 35.8461 50.4031 36.1695 50.9828C36.3343 51.2767 36.3424 51.6326 36.1919 51.9337L35.1546 54.0082L36.499 55.3516L38.5726 54.3143C38.8736 54.1638 39.2295 54.172 39.5234 54.3367C40.1031 54.6601 40.7224 54.9174 41.3671 55.1004C41.6905 55.192 41.9468 55.4381 42.0536 55.7564L42.7868 57.956H44.6875L45.4207 55.7564C45.5265 55.4381 45.7837 55.192 46.1071 55.1004C46.7509 54.9174 47.3712 54.6601 47.9509 54.3367C48.2437 54.172 48.5997 54.1638 48.9017 54.3143L50.9753 55.3516L52.3187 54.0082L51.2824 51.9337C51.1319 51.6326 51.14 51.2767 51.3037 50.9828C51.6281 50.4031 51.8844 49.7838 52.0675 49.1391C52.16 48.8157 52.4051 48.5594 52.7244 48.4526L54.9231 47.7194V45.8187ZM43.7366 50.8374C41.4943 50.8374 39.6688 49.012 39.6688 46.7696C39.6688 44.5262 41.4943 42.7018 43.7366 42.7018C45.98 42.7018 47.8044 44.5262 47.8044 46.7696C47.8044 49.012 45.98 50.8374 43.7366 50.8374ZM43.7366 44.7357C42.6149 44.7357 41.7027 45.6479 41.7027 46.7696C41.7027 47.8913 42.6149 48.8035 43.7366 48.8035C44.8583 48.8035 45.7705 47.8913 45.7705 46.7696C45.7705 45.6479 44.8583 44.7357 43.7366 44.7357ZM6.10951 32.5323V26.4306C6.10951 25.8682 6.5651 25.4137 7.12646 25.4137C7.68781 25.4137 8.1434 25.8682 8.1434 26.4306V32.5323C8.1434 33.0937 7.68781 33.5493 7.12646 33.5493C6.5651 33.5493 6.10951 33.0937 6.10951 32.5323ZM6.10951 50.8374V44.7357C6.10951 44.1743 6.5651 43.7187 7.12646 43.7187C7.68781 43.7187 8.1434 44.1743 8.1434 44.7357V50.8374C8.1434 51.3987 7.68781 51.8543 7.12646 51.8543C6.5651 51.8543 6.10951 51.3987 6.10951 50.8374ZM51.8722 31.5154C51.3109 31.5154 50.8553 31.0598 50.8553 30.4984V24.3967C50.8553 22.7137 49.4875 21.3448 47.8044 21.3448H5.09256C3.41052 21.3448 2.04171 22.7137 2.04171 24.3967V34.5662C2.04171 36.2482 3.41052 37.6171 5.09256 37.6171H27.4654C28.0268 37.6171 28.4824 38.0726 28.4824 38.634C28.4824 39.1954 28.0268 39.6509 27.4654 39.6509H5.09256C3.41052 39.6509 2.04171 41.0187 2.04171 42.7018V52.8713C2.04171 54.5533 3.41052 55.9221 5.09256 55.9221H27.4654C28.0268 55.9221 28.4824 56.3777 28.4824 56.9391C28.4824 57.5004 28.0268 57.956 27.4654 57.956H5.09256C2.28883 57.956 0.0078125 55.675 0.0078125 52.8713V42.7018C0.0078125 41.032 0.827474 39.5615 2.07324 38.634C0.827474 37.7055 0.0078125 36.235 0.0078125 34.5662V24.3967C0.0078125 22.7269 0.827474 21.2564 2.07324 20.3279C0.827474 19.4004 0.0078125 17.9299 0.0078125 16.2601V6.09061C0.0078125 3.28789 2.28883 1.00586 5.09256 1.00586H47.8044C50.6081 1.00586 52.8892 3.28789 52.8892 6.09061V16.2601C52.8892 17.9299 52.0705 19.4004 50.8237 20.3279C52.0705 21.2564 52.8892 22.7269 52.8892 24.3967V30.4984C52.8892 31.0598 52.4346 31.5154 51.8722 31.5154ZM50.8553 16.2601V6.09061C50.8553 4.40857 49.4875 3.03976 47.8044 3.03976H5.09256C3.41052 3.03976 2.04171 4.40857 2.04171 6.09061V16.2601C2.04171 17.9431 3.41052 19.312 5.09256 19.312H47.8044C49.4875 19.312 50.8553 17.9431 50.8553 16.2601ZM45.7705 12.1923C45.5061 12.1923 45.2417 12.0804 45.0485 11.8974C44.8654 11.7042 44.7536 11.4398 44.7536 11.1754C44.7536 10.9109 44.8654 10.6465 45.0485 10.4533C45.4349 10.077 46.1163 10.077 46.4926 10.4533C46.6756 10.6465 46.7885 10.9109 46.7885 11.1754C46.7885 11.4398 46.6756 11.7042 46.4926 11.8974C46.2993 12.0804 46.0349 12.1923 45.7705 12.1923ZM41.7027 12.1923C41.4383 12.1923 41.1739 12.0804 40.9807 11.8974C40.7976 11.7042 40.6858 11.4398 40.6858 11.1754C40.6858 10.9109 40.7976 10.6465 40.9807 10.4533C41.357 10.077 42.0383 10.077 42.4248 10.4533C42.6078 10.6465 42.7197 10.9109 42.7197 11.1754C42.7197 11.4398 42.6078 11.7042 42.4248 11.8974C42.2315 12.0804 41.9671 12.1923 41.7027 12.1923ZM37.6349 12.1923C37.3604 12.1923 37.1061 12.0804 36.9129 11.8974C36.7298 11.7042 36.618 11.4398 36.618 11.1754C36.618 10.9109 36.7298 10.6465 36.9129 10.4533C37.2892 10.077 37.9705 10.077 38.357 10.4533C38.54 10.6465 38.6519 10.9109 38.6519 11.1754C38.6519 11.4398 38.54 11.7042 38.357 11.8974C38.1637 12.0804 37.9095 12.1923 37.6349 12.1923ZM7.12646 15.2431C6.5651 15.2431 6.10951 14.7886 6.10951 14.2262V8.1245C6.10951 7.56315 6.5651 7.10755 7.12646 7.10755C7.68781 7.10755 8.1434 7.56315 8.1434 8.1245V14.2262C8.1434 14.7886 7.68781 15.2431 7.12646 15.2431Z" fill="white"/>
</svg>
