<svg width="48" height="60" viewBox="0 0 48 60" fill="none" xmlns="http://www.w3.org/2000/svg">
<path d="M45.2662 58.9483H1.05564C0.473532 58.9483 0.00195312 58.4777 0.00195312 57.8967V1.05458C0.00195312 0.472479 0.473532 0.00195312 1.05564 0.00195312H34.7398C34.8798 0.00195312 35.0177 0.0303742 35.1441 0.0830058C35.2725 0.13669 35.3883 0.214585 35.4841 0.310374L46.0093 10.8356C46.1062 10.9314 46.183 11.0472 46.2367 11.1746C46.2904 11.302 46.3188 11.4398 46.3188 11.5809V57.8967C46.3188 58.4777 45.8472 58.9483 45.2662 58.9483ZM35.7925 3.59564V10.5283H42.7251L35.7925 3.59564ZM44.2135 12.6335H34.7398C34.1577 12.6335 33.6872 12.162 33.6872 11.5809V2.10722H2.10827V56.8441H44.2135V12.6335ZM15.0483 27.6788C15.4588 27.2672 16.1251 27.2672 16.5367 27.6788C16.9472 28.0893 16.9472 28.7556 16.5367 29.1672L10.9651 34.7388L16.5367 40.3104C16.9472 40.7209 16.9472 41.3872 16.5367 41.7988C16.3304 42.0041 16.0609 42.1072 15.7914 42.1072C15.523 42.1072 15.2535 42.0041 15.0483 41.7988L8.73248 35.483C8.3209 35.0714 8.3209 34.4051 8.73248 33.9946L15.0483 27.6788ZM25.3767 27.9514C25.6367 27.4325 26.2683 27.223 26.7893 27.4809C27.3093 27.7409 27.5198 28.3735 27.2598 28.8935L20.9441 41.5251C20.7598 41.8946 20.3883 42.1072 20.002 42.1072C19.8441 42.1072 19.683 42.0704 19.5314 41.9956C19.0114 41.7356 18.8009 41.1041 19.0609 40.583L25.3767 27.9514ZM29.7851 27.6788C30.1956 27.2672 30.862 27.2672 31.2735 27.6788L37.5893 33.9946C37.9999 34.4051 37.9999 35.0714 37.5893 35.483L31.2735 41.7988C31.0683 42.0041 30.7988 42.1072 30.5293 42.1072C30.2598 42.1072 29.9904 42.0041 29.7851 41.7988C29.3735 41.3872 29.3735 40.7209 29.7851 40.3104L35.3567 34.7388L29.7851 29.1672C29.3735 28.7556 29.3735 28.0893 29.7851 27.6788Z" fill="white"/>
</svg>
