<svg width="63" height="60" viewBox="0 0 63 60" fill="none" xmlns="http://www.w3.org/2000/svg">
<path d="M46.9131 58.912C39.0924 58.912 32.7302 52.5498 32.7302 44.7302C32.7302 36.9095 39.0924 30.5484 46.9131 30.5484C54.7328 30.5484 61.0938 36.9095 61.0938 44.7302C61.0938 52.5498 54.7328 58.912 46.9131 58.912ZM46.9131 32.7302C40.2957 32.7302 34.912 38.1127 34.912 44.7302C34.912 51.3466 40.2957 56.7302 46.9131 56.7302C53.5295 56.7302 58.9131 51.3466 58.9131 44.7302C58.9131 38.1127 53.5295 32.7302 46.9131 32.7302ZM46.3502 50.2666C46.1669 50.5262 45.88 50.6931 45.5637 50.7247C45.5287 50.728 45.4927 50.7302 45.4578 50.7302C45.1786 50.7302 44.908 50.6222 44.7051 50.428L40.7048 46.6098C40.2695 46.1931 40.2531 45.5037 40.6688 45.0673C41.0844 44.6298 41.7749 44.6157 42.2113 45.0324L45.2953 47.9746L51.4742 39.1927C51.8222 38.6997 52.5008 38.5818 52.9949 38.9287C53.488 39.2757 53.6058 39.9564 53.2589 40.4484L46.3502 50.2666ZM55.6404 28.3666C55.0371 28.3666 54.5495 27.8778 54.5495 27.2757V22.912V16.3666C54.5495 15.7644 54.0597 15.2757 53.4575 15.2757H3.27566C2.67457 15.2757 2.18475 15.7644 2.18475 16.3666V22.912V49.0938C2.18475 49.6949 2.67457 50.1847 3.27566 50.1847H27.2757C27.8789 50.1847 28.3666 50.6724 28.3666 51.2757C28.3666 51.8778 27.8789 52.3666 27.2757 52.3666H3.27566C1.47129 52.3666 0.00292969 50.8982 0.00292969 49.0938V22.912V16.3666V9.82111C0.00292969 8.01566 1.47129 6.54838 3.27566 6.54838H5.45748C6.05857 6.54838 6.54838 6.05857 6.54838 5.45747V3.27566C6.54838 1.4702 8.01675 0.00292969 9.82111 0.00292969H25.0938C26.8982 0.00292969 28.3666 1.4702 28.3666 3.27566V5.45747C28.3666 6.05857 28.8564 6.54838 29.4575 6.54838H53.4575C55.2629 6.54838 56.7313 8.01566 56.7313 9.82111V16.3666V22.912V27.2757C56.7313 27.8778 56.2426 28.3666 55.6404 28.3666ZM54.5495 9.82111C54.5495 9.21893 54.0597 8.7302 53.4575 8.7302H29.4575C27.6531 8.7302 26.1847 7.26184 26.1847 5.45747V3.27566C26.1847 2.67348 25.6949 2.18475 25.0938 2.18475H9.82111C9.22002 2.18475 8.7302 2.67348 8.7302 3.27566V5.45747C8.7302 7.26184 7.26184 8.7302 5.45748 8.7302H3.27566C2.67457 8.7302 2.18475 9.21893 2.18475 9.82111V13.2946C2.52729 13.1724 2.89166 13.0938 3.27566 13.0938H53.4575C53.8426 13.0938 54.2058 13.1724 54.5495 13.2946V9.82111Z" fill="white"/>
</svg>
