<svg width="65" height="60" viewBox="0 0 65 60" fill="none" xmlns="http://www.w3.org/2000/svg">
<path d="M60.0029 58.8699H3.39802C1.52557 58.8699 0.00292969 57.3461 0.00292969 55.4736V3.39818C0.00292969 1.52573 1.52557 0.00195312 3.39802 0.00195312H60.0029C61.8754 0.00195312 63.3992 1.52573 63.3992 3.39818V55.4736C63.3992 57.3461 61.8754 58.8699 60.0029 58.8699ZM61.135 3.39818C61.135 2.77441 60.6267 2.2661 60.0029 2.2661H3.39802C2.77425 2.2661 2.26708 2.77441 2.26708 3.39818V55.4736C2.26708 56.0974 2.77425 56.6057 3.39802 56.6057H60.0029C60.6267 56.6057 61.135 56.0974 61.135 55.4736V3.39818ZM57.7388 54.3416H5.66217C5.03727 54.3416 4.5301 53.8344 4.5301 53.2095V5.66233C4.5301 5.03742 5.03727 4.53025 5.66217 4.53025H57.7388C58.3637 4.53025 58.8709 5.03742 58.8709 5.66233V53.2095C58.8709 53.8344 58.3637 54.3416 57.7388 54.3416ZM56.6067 6.79441H6.79425V52.0774H56.6067V6.79441ZM13.9195 13.9186C14.361 13.4759 15.0776 13.4759 15.5203 13.9186L22.3127 20.711C22.7542 21.1537 22.7542 21.8703 22.3127 22.3118L15.5203 29.1042C15.2984 29.3261 15.0097 29.4359 14.7188 29.4359C14.4301 29.4359 14.1403 29.3261 13.9195 29.1042C13.4769 28.6627 13.4769 27.9461 13.9195 27.5035L19.9116 21.5114L13.9195 15.5193C13.4769 15.0778 13.4769 14.3612 13.9195 13.9186ZM26.0407 27.1718H35.0973C35.7222 27.1718 36.2293 27.6789 36.2293 28.3038C36.2293 28.9287 35.7222 29.4359 35.0973 29.4359H26.0407C25.4146 29.4359 24.9086 28.9287 24.9086 28.3038C24.9086 27.6789 25.4146 27.1718 26.0407 27.1718Z" fill="white"/>
</svg>
