<svg width="10" height="5" viewBox="0 0 10 5" fill="none" xmlns="http://www.w3.org/2000/svg">
<path d="M4.9928 4.39695C4.85936 4.39721 4.73003 4.35038 4.62728 4.26458L1.20046 1.38705C1.08383 1.28936 1.01048 1.14899 0.996557 0.996807C0.982633 0.844628 1.02927 0.693107 1.12622 0.575579C1.22316 0.458051 1.36247 0.384142 1.51349 0.370111C1.66451 0.35608 1.81488 0.403077 1.93152 0.500763L4.9928 3.07904L8.05409 0.592845C8.11251 0.54504 8.17973 0.50934 8.25188 0.487798C8.32404 0.466255 8.39971 0.459295 8.47455 0.467317C8.54938 0.475339 8.62191 0.498185 8.68795 0.534542C8.75399 0.570899 8.81226 0.620051 8.85939 0.679171C8.91169 0.738345 8.95131 0.807767 8.97575 0.883085C9.00019 0.958404 9.00893 1.038 9.00142 1.11688C8.99391 1.19576 8.97032 1.27223 8.93212 1.34149C8.89392 1.41076 8.84194 1.47133 8.77943 1.51941L5.35262 4.29911C5.24691 4.37135 5.12022 4.4058 4.9928 4.39695Z" fill="white"/>
</svg>
