<svg width="18" height="21" viewBox="0 0 18 21" fill="none" xmlns="http://www.w3.org/2000/svg">
<path d="M15 2.41716H14V1.40951C14 1.14226 13.8946 0.885962 13.7071 0.69699C13.5196 0.508019 13.2652 0.401855 13 0.401855C12.7348 0.401855 12.4804 0.508019 12.2929 0.69699C12.1054 0.885962 12 1.14226 12 1.40951V2.41716H6V1.40951C6 1.14226 5.89464 0.885962 5.70711 0.69699C5.51957 0.508019 5.26522 0.401855 5 0.401855C4.73478 0.401855 4.48043 0.508019 4.29289 0.69699C4.10536 0.885962 4 1.14226 4 1.40951V2.41716H3C2.20435 2.41716 1.44129 2.73565 0.87868 3.30257C0.316071 3.86948 0 4.63839 0 5.44012V17.532C0 18.3337 0.316071 19.1026 0.87868 19.6695C1.44129 20.2364 2.20435 20.5549 3 20.5549H15C15.7956 20.5549 16.5587 20.2364 17.1213 19.6695C17.6839 19.1026 18 18.3337 18 17.532V5.44012C18 4.63839 17.6839 3.86948 17.1213 3.30257C16.5587 2.73565 15.7956 2.41716 15 2.41716ZM3 4.43247H4V5.44012C4 5.70737 4.10536 5.96367 4.29289 6.15264C4.48043 6.34162 4.73478 6.44778 5 6.44778C5.26522 6.44778 5.51957 6.34162 5.70711 6.15264C5.89464 5.96367 6 5.70737 6 5.44012V4.43247H12V5.44012C12 5.70737 12.1054 5.96367 12.2929 6.15264C12.4804 6.34162 12.7348 6.44778 13 6.44778C13.2652 6.44778 13.5196 6.34162 13.7071 6.15264C13.8946 5.96367 14 5.70737 14 5.44012V4.43247H15C15.2652 4.43247 15.5196 4.53863 15.7071 4.72761C15.8946 4.91658 16 5.17288 16 5.44012V9.47074H2V5.44012C2 5.17288 2.10536 4.91658 2.29289 4.72761C2.48043 4.53863 2.73478 4.43247 3 4.43247ZM15 18.5396H3C2.73478 18.5396 2.48043 18.4335 2.29289 18.2445C2.10536 18.0555 2 17.7992 2 17.532V11.486H16V17.532C16 17.7992 15.8946 18.0555 15.7071 18.2445C15.5196 18.4335 15.2652 18.5396 15 18.5396Z" fill="#181818"/>
<path d="M5 15.5168C5.55228 15.5168 6 15.0657 6 14.5092C6 13.9526 5.55228 13.5015 5 13.5015C4.44772 13.5015 4 13.9526 4 14.5092C4 15.0657 4.44772 15.5168 5 15.5168Z" fill="#181818"/>
<path d="M13 13.5015H9C8.73478 13.5015 8.48043 13.6076 8.29289 13.7966C8.10536 13.9856 8 14.2419 8 14.5092C8 14.7764 8.10536 15.0327 8.29289 15.2217C8.48043 15.4107 8.73478 15.5168 9 15.5168H13C13.2652 15.5168 13.5196 15.4107 13.7071 15.2217C13.8946 15.0327 14 14.7764 14 14.5092C14 14.2419 13.8946 13.9856 13.7071 13.7966C13.5196 13.6076 13.2652 13.5015 13 13.5015Z" fill="#181818"/>
</svg>
