<svg width="23" height="24" viewBox="0 0 23 24" fill="none" xmlns="http://www.w3.org/2000/svg">
<path d="M18.6811 2.4H17.4903V1.2C17.4903 0.88174 17.3648 0.576515 17.1415 0.351472C16.9181 0.126428 16.6152 0 16.2994 0C15.9835 0 15.6806 0.126428 15.4573 0.351472C15.234 0.576515 15.1085 0.88174 15.1085 1.2V2.4H7.96318V1.2C7.96318 0.88174 7.83771 0.576515 7.61438 0.351472C7.39105 0.126428 7.08814 0 6.7723 0C6.45645 0 6.15355 0.126428 5.93021 0.351472C5.70688 0.576515 5.58141 0.88174 5.58141 1.2V2.4H4.39053C3.443 2.4 2.53428 2.77928 1.86428 3.45442C1.19427 4.12955 0.817871 5.04522 0.817871 6V20.4C0.817871 21.3548 1.19427 22.2705 1.86428 22.9456C2.53428 23.6207 3.443 24 4.39053 24H18.6811C19.6287 24 20.5374 23.6207 21.2074 22.9456C21.8774 22.2705 22.2538 21.3548 22.2538 20.4V6C22.2538 5.04522 21.8774 4.12955 21.2074 3.45442C20.5374 2.77928 19.6287 2.4 18.6811 2.4ZM4.39053 4.8H5.58141V6C5.58141 6.31826 5.70688 6.62348 5.93021 6.84853C6.15355 7.07357 6.45645 7.2 6.7723 7.2C7.08814 7.2 7.39105 7.07357 7.61438 6.84853C7.83771 6.62348 7.96318 6.31826 7.96318 6V4.8H15.1085V6C15.1085 6.31826 15.234 6.62348 15.4573 6.84853C15.6806 7.07357 15.9835 7.2 16.2994 7.2C16.6152 7.2 16.9181 7.07357 17.1415 6.84853C17.3648 6.62348 17.4903 6.31826 17.4903 6V4.8H18.6811C18.997 4.8 19.2999 4.92643 19.5232 5.15147C19.7466 5.37652 19.872 5.68174 19.872 6V10.8H3.19964V6C3.19964 5.68174 3.32511 5.37652 3.54844 5.15147C3.77178 4.92643 4.07468 4.8 4.39053 4.8ZM18.6811 21.6H4.39053C4.07468 21.6 3.77178 21.4736 3.54844 21.2485C3.32511 21.0235 3.19964 20.7183 3.19964 20.4V13.2H19.872V20.4C19.872 20.7183 19.7466 21.0235 19.5232 21.2485C19.2999 21.4736 18.997 21.6 18.6811 21.6Z" fill="white"/>
<path d="M6.77231 18.0002C7.43001 18.0002 7.96319 17.4629 7.96319 16.8001C7.96319 16.1374 7.43001 15.6001 6.77231 15.6001C6.1146 15.6001 5.58142 16.1374 5.58142 16.8001C5.58142 17.4629 6.1146 18.0002 6.77231 18.0002Z" fill="white"/>
<path d="M16.2994 15.6001H11.5359C11.22 15.6001 10.9171 15.7265 10.6938 15.9516C10.4704 16.1766 10.345 16.4819 10.345 16.8001C10.345 17.1184 10.4704 17.4236 10.6938 17.6487C10.9171 17.8738 11.22 18.0002 11.5359 18.0002H16.2994C16.6152 18.0002 16.9181 17.8738 17.1415 17.6487C17.3648 17.4236 17.4903 17.1184 17.4903 16.8001C17.4903 16.4819 17.3648 16.1766 17.1415 15.9516C16.9181 15.7265 16.6152 15.6001 16.2994 15.6001Z" fill="white"/>
</svg>
