<svg width="63" height="70" viewBox="0 0 63 70" fill="none" xmlns="http://www.w3.org/2000/svg">
<path d="M46.2748 68.8163C37.7693 68.8163 30.8511 61.897 30.8511 53.3925C30.8511 44.8881 37.7693 37.9688 46.2748 37.9688C54.7793 37.9688 61.6986 44.8881 61.6986 53.3925C61.6986 61.897 54.7793 68.8163 46.2748 68.8163ZM46.2748 40.3417C39.0779 40.3417 33.224 46.1968 33.224 53.3925C33.224 60.5895 39.0779 66.4434 46.2748 66.4434C53.4706 66.4434 59.3257 60.5895 59.3257 53.3925C59.3257 46.1968 53.4706 40.3417 46.2748 40.3417ZM45.6626 59.4149C45.4645 59.6973 45.1513 59.8788 44.8084 59.912C44.7693 59.9156 44.7301 59.918 44.6921 59.918C44.3884 59.918 44.0954 59.8017 43.8735 59.5905L39.5228 55.438C39.0494 54.9847 39.0316 54.2337 39.4849 53.7603C39.9357 53.2858 40.6867 53.2692 41.1613 53.7212L44.5154 56.9222L51.2365 47.3714C51.6138 46.8339 52.353 46.7046 52.8893 47.0842C53.4255 47.4603 53.5549 48.2007 53.1776 48.737L45.6626 59.4149ZM51.0206 35.5959C50.3657 35.5959 49.8342 35.0656 49.8342 34.4095V14.2412H39.1562C38.5001 14.2412 37.9698 13.7097 37.9698 13.0536V2.37679H2.37654V64.0705H27.2918C27.9467 64.0705 28.4782 64.602 28.4782 65.257C28.4782 65.9131 27.9467 66.4434 27.2918 66.4434H1.18892C0.534001 66.4434 0.00366211 65.9131 0.00366211 65.257V1.18916C0.00366211 0.534245 0.534001 0.00390625 1.18892 0.00390625H39.1562C39.314 0.00390625 39.4694 0.0359402 39.6118 0.0952622C39.7565 0.155771 39.8871 0.242381 39.995 0.351533L51.8582 12.2148C51.9674 12.3227 52.054 12.4532 52.1145 12.5968C52.1738 12.7403 52.2071 12.8958 52.2071 13.0536V34.4095C52.2071 35.0656 51.6755 35.5959 51.0206 35.5959ZM48.1565 11.8683L40.3426 4.05441V11.8683H48.1565Z" fill="#307EED"/>
<path d="M29.6611 14.2373C30.316 14.2373 30.8476 14.7676 30.8476 15.4237C30.8476 16.0787 30.316 16.6102 29.6611 16.6102H13.0509C12.396 16.6102 11.8645 16.0787 11.8645 15.4237C11.8645 14.7676 12.396 14.2373 13.0509 14.2373H29.6611ZM13.0509 28.4746H29.6611C30.316 28.4746 30.8476 29.0049 30.8476 29.661C30.8476 30.3159 30.316 30.8475 29.6611 30.8475H13.0509C12.396 30.8475 11.8645 30.3159 11.8645 29.661C11.8645 29.0049 12.396 28.4746 13.0509 28.4746ZM13.0509 42.7119H29.6611C30.316 42.7119 30.8476 43.2422 30.8476 43.8983C30.8476 44.5532 30.316 45.0848 29.6611 45.0848H13.0509C12.396 45.0848 11.8645 44.5532 11.8645 43.8983C11.8645 43.2422 12.396 42.7119 13.0509 42.7119Z" fill="#307EED"/>
</svg>
