<svg width="20" height="21" viewBox="0 0 20 21" fill="none" xmlns="http://www.w3.org/2000/svg">
<path d="M10 0.401855C8.02219 0.401855 6.08879 0.992834 4.4443 2.10006C2.79981 3.20728 1.51809 4.78102 0.761209 6.62227C0.00433284 8.46351 -0.1937 10.4896 0.192152 12.4442C0.578004 14.3989 1.53041 16.1943 2.92894 17.6036C4.32746 19.0128 6.10929 19.9725 8.0491 20.3613C9.98891 20.7501 11.9996 20.5506 13.8268 19.7879C15.6541 19.0252 17.2159 17.7337 18.3147 16.0766C19.4135 14.4195 20 12.4713 20 10.4784C20 9.15512 19.7413 7.84481 19.2388 6.62227C18.7362 5.39973 17.9997 4.2889 17.0711 3.3532C16.1425 2.41751 15.0401 1.67528 13.8268 1.16889C12.6136 0.662493 11.3132 0.401855 10 0.401855ZM10 18.5396C8.41775 18.5396 6.87103 18.0668 5.55544 17.1811C4.23985 16.2953 3.21447 15.0363 2.60897 13.5633C2.00347 12.0903 1.84504 10.4694 2.15372 8.90572C2.4624 7.342 3.22433 5.90562 4.34315 4.77824C5.46197 3.65086 6.88743 2.8831 8.43928 2.57206C9.99113 2.26101 11.5997 2.42065 13.0615 3.03079C14.5233 3.64092 15.7727 4.67415 16.6518 5.99981C17.5308 7.32547 18 8.88403 18 10.4784C18 12.6164 17.1571 14.6668 15.6569 16.1785C14.1566 17.6903 12.1217 18.5396 10 18.5396Z" fill="#181818"/>
<path d="M14 9.47078H11V6.44784C11 6.18059 10.8946 5.92429 10.7071 5.73532C10.5196 5.54635 10.2652 5.44019 10 5.44019C9.73478 5.44019 9.48043 5.54635 9.29289 5.73532C9.10536 5.92429 9 6.18059 9 6.44784V10.4784C9 10.7457 9.10536 11.002 9.29289 11.191C9.48043 11.3799 9.73478 11.4861 10 11.4861H14C14.2652 11.4861 14.5196 11.3799 14.7071 11.191C14.8946 11.002 15 10.7457 15 10.4784C15 10.2112 14.8946 9.95489 14.7071 9.76592C14.5196 9.57695 14.2652 9.47078 14 9.47078Z" fill="#181818"/>
</svg>
