<svg width="24" height="24" viewBox="0 0 24 24" fill="none" xmlns="http://www.w3.org/2000/svg">
<path d="M11.9089 0C9.55351 0 7.25105 0.703788 5.29265 2.02236C3.33425 3.34094 1.80787 5.21508 0.906513 7.4078C0.00515991 9.60051 -0.230675 12.0133 0.228831 14.3411C0.688336 16.6689 1.82254 18.807 3.48803 20.4853C5.15351 22.1635 7.27546 23.3064 9.58555 23.7694C11.8956 24.2324 14.2901 23.9948 16.4662 23.0865C18.6422 22.1783 20.5021 20.6402 21.8107 18.6668C23.1193 16.6934 23.8177 14.3734 23.8177 12C23.8177 10.4241 23.5097 8.8637 22.9112 7.4078C22.3127 5.95189 21.4355 4.62902 20.3297 3.51472C19.2238 2.40041 17.911 1.5165 16.4662 0.913445C15.0213 0.310389 13.4727 0 11.9089 0ZM11.9089 21.6C10.0246 21.6 8.18261 21.037 6.61589 19.9821C5.04917 18.9272 3.82806 17.4279 3.10698 15.6738C2.3859 13.9196 2.19723 11.9893 2.56484 10.1271C2.93244 8.26491 3.83981 6.55436 5.17219 5.21177C6.50458 3.86919 8.20214 2.95488 10.0502 2.58446C11.8983 2.21404 13.8139 2.40415 15.5547 3.13076C17.2956 3.85736 18.7835 5.08781 19.8303 6.66652C20.8772 8.24524 21.4359 10.1013 21.4359 12C21.4359 14.5461 20.4322 16.9879 18.6455 18.7882C16.8588 20.5886 14.4356 21.6 11.9089 21.6Z" fill="white"/>
<path d="M16.6724 10.8H13.0998V7.2C13.0998 6.88174 12.9743 6.57651 12.751 6.35147C12.5277 6.12643 12.2247 6 11.9089 6C11.5931 6 11.2902 6.12643 11.0668 6.35147C10.8435 6.57651 10.718 6.88174 10.718 7.2V12C10.718 12.3182 10.8435 12.6235 11.0668 12.8485C11.2902 13.0735 11.5931 13.2 11.9089 13.2H16.6724C16.9883 13.2 17.2912 13.0735 17.5145 12.8485C17.7379 12.6235 17.8633 12.3182 17.8633 12C17.8633 11.6817 17.7379 11.3765 17.5145 11.1515C17.2912 10.9264 16.9883 10.8 16.6724 10.8Z" fill="white"/>
</svg>
