<svg width="81" height="70" viewBox="0 0 81 70" fill="none" xmlns="http://www.w3.org/2000/svg">
<path d="M62.0797 55.4746H60.759C60.0299 55.4746 59.4382 54.8829 59.4382 54.1539C59.4382 53.4248 60.0299 52.8331 60.759 52.8331H62.0797C70.0901 52.8331 76.608 46.3165 76.608 38.3048C76.608 37.6088 76.542 36.9259 76.4456 36.251C76.4258 36.1084 76.4046 35.9671 76.3809 35.8258C76.2646 35.1601 76.1141 34.505 75.9093 33.8697C75.8948 33.8222 75.8737 33.7773 75.8578 33.7297C75.6558 33.1222 75.4088 32.5318 75.1288 31.9599C75.0812 31.8622 75.0377 31.7631 74.9875 31.6667C74.685 31.0803 74.3429 30.5137 73.9639 29.9748C73.9031 29.8876 73.8358 29.8058 73.7737 29.7199C73.4039 29.218 73.005 28.7373 72.5731 28.2856C72.5295 28.238 72.4886 28.1878 72.4437 28.1429C71.9722 27.6622 71.4624 27.2197 70.9248 26.8063C70.8429 26.7429 70.7584 26.6808 70.6739 26.6188C69.5209 25.7708 68.2358 25.0788 66.8344 24.5927C65.342 24.0737 63.7465 23.7765 62.0797 23.7765C61.3507 23.7765 60.759 23.1861 60.759 22.4558C60.759 21.7267 61.3507 21.135 62.0797 21.135C63.4348 21.135 64.7477 21.3093 66.0143 21.6078C66.0182 21.4559 66.042 21.2856 66.042 21.135C66.042 10.9401 57.7476 2.64444 47.5514 2.64444C40.1988 2.64444 33.5039 7.10727 30.5995 13.8273C31.5439 14.7201 32.368 15.7556 32.9927 16.9482C33.3309 17.5941 33.0812 18.3931 32.4354 18.7312C32.2399 18.8329 32.0299 18.8818 31.8239 18.8818C31.3484 18.8818 30.8888 18.6242 30.6524 18.1739C30.0448 17.0129 29.2154 16.021 28.2314 15.2352C28.2209 15.2273 28.2076 15.2273 28.1971 15.218C27.8101 14.9116 27.4033 14.6461 26.9833 14.4071C26.8935 14.3569 26.801 14.3133 26.7099 14.2671C26.3903 14.098 26.0601 13.9527 25.7233 13.8246C25.5767 13.7692 25.4301 13.715 25.2809 13.6675C24.9705 13.5671 24.6535 13.4905 24.3339 13.4231C24.1833 13.3927 24.0354 13.3531 23.8822 13.3293C23.4146 13.2567 22.9392 13.2105 22.4571 13.2105C17.6535 13.2105 13.7414 16.9046 13.299 21.5933C14.5458 21.3041 15.8388 21.135 17.1741 21.135C17.9031 21.135 18.4935 21.7267 18.4935 22.4558C18.4935 23.1861 17.9031 23.7765 17.1741 23.7765C15.4822 23.7765 13.8643 24.0829 12.3546 24.6165C10.9467 25.1118 9.65501 25.8158 8.50067 26.6769C8.44123 26.7218 8.38048 26.7654 8.32104 26.8116C7.76897 27.2369 7.24595 27.6965 6.76255 28.1931C6.73614 28.2208 6.71236 28.2499 6.68727 28.2776C6.22369 28.761 5.79708 29.2775 5.40614 29.819C5.36916 29.8692 5.33085 29.9167 5.29519 29.9669C4.90293 30.5242 4.55161 31.1107 4.23991 31.7195C4.20161 31.7948 4.16727 31.8714 4.13029 31.9467C3.83444 32.5516 3.57293 33.1737 3.36293 33.8182C3.35633 33.8354 3.34972 33.8512 3.34444 33.8684C3.13708 34.5103 2.98651 35.172 2.87029 35.8442C2.84651 35.9803 2.8267 36.1176 2.80689 36.2563C2.71048 36.9286 2.64576 37.6114 2.64576 38.3048C2.64576 46.3165 9.16236 52.8331 17.1741 52.8331H18.4935C19.2239 52.8331 19.8143 53.4248 19.8143 54.1539C19.8143 54.8829 19.2239 55.4746 18.4935 55.4746H17.1741C7.70557 55.4746 0.00292969 47.7733 0.00292969 38.3048C0.00292969 37.5203 0.0742504 36.7529 0.177269 35.9948C0.201043 35.8218 0.227458 35.6514 0.256515 35.4797C0.512741 33.9424 0.969722 32.4776 1.60633 31.1067C1.65916 30.9931 1.71331 30.8835 1.76746 30.7712C2.44897 29.3858 3.30614 28.1073 4.31916 26.9608C4.40368 26.8644 4.49085 26.7707 4.57802 26.6769C5.63331 25.5331 6.84048 24.5373 8.16916 23.7131C8.24972 23.6629 8.33029 23.6141 8.41218 23.5652C9.10425 23.1531 9.81878 22.7741 10.569 22.4597C10.569 22.4584 10.569 22.4571 10.569 22.4558C10.569 15.9022 15.9022 10.569 22.4571 10.569C23.0026 10.569 23.5427 10.6086 24.075 10.6799C24.2137 10.6997 24.3471 10.7393 24.4858 10.7631C24.8714 10.8292 25.2571 10.8978 25.6322 11.0022C25.8593 11.0642 26.0746 11.1541 26.2978 11.2307C26.5646 11.3218 26.8354 11.4024 27.0942 11.5133C27.4522 11.6652 27.7929 11.8488 28.1337 12.0337C28.2301 12.0865 28.3344 12.1261 28.4309 12.1829C31.8793 4.83425 39.3654 0.00292969 47.5514 0.00292969C59.2031 0.00292969 68.6835 9.48331 68.6835 21.135C68.6835 21.5629 68.669 21.9961 68.6386 22.4439C69.3822 22.7529 70.0914 23.1227 70.7782 23.5282C70.8826 23.589 70.9856 23.6524 71.0886 23.7158C72.3882 24.5227 73.5716 25.4935 74.611 26.6069C74.7299 26.7324 74.8461 26.8591 74.9597 26.9899C75.451 27.5486 75.9186 28.1284 76.336 28.7492C76.3412 28.7584 76.3465 28.769 76.3531 28.7782C76.7639 29.391 77.1218 30.0382 77.452 30.7025C77.522 30.8452 77.592 30.9878 77.6593 31.1318C78.2867 32.4895 78.7384 33.9397 78.9933 35.4599C79.0237 35.6382 79.0514 35.8152 79.0752 35.9948C79.1782 36.7529 79.2495 37.5203 79.2495 38.3048C79.2495 47.7733 71.5469 55.4746 62.0797 55.4746ZM23.3592 48.0731L26.4775 47.035C26.6703 46.4684 26.8988 45.9163 27.1616 45.3814L25.6916 42.4427C25.438 41.9329 25.5371 41.3201 25.9399 40.9173L29.0318 37.8267C29.4333 37.4225 30.0461 37.3235 30.5559 37.5784L33.4959 39.0484C34.0295 38.7856 34.5816 38.5571 35.1482 38.3642L36.1876 35.2459C36.3673 34.7071 36.8718 34.3425 37.4397 34.3425H41.8127C42.382 34.3425 42.8852 34.7071 43.0661 35.2459L44.1043 38.3642C44.6709 38.5571 45.2229 38.7856 45.7578 39.0484L48.6965 37.5784C49.2063 37.3248 49.8205 37.4252 50.222 37.8267L53.3139 40.9173C53.7154 41.3201 53.8144 41.9329 53.5609 42.4427L52.0909 45.3814C52.3537 45.9163 52.5822 46.4684 52.7763 47.035L55.8933 48.0731C56.4322 48.2541 56.7967 48.7573 56.7967 49.3265V53.6995C56.7967 54.2675 56.4322 54.772 55.8933 54.9516L52.7763 55.991C52.5822 56.5576 52.3537 57.1097 52.0909 57.6433L53.5609 60.5833C53.8144 61.0918 53.7154 61.7059 53.3139 62.1074L50.222 65.1993C49.8205 65.6008 49.205 65.6999 48.6965 65.4476L45.7578 63.9776C45.2229 64.2405 44.6709 64.469 44.1043 64.6618L43.0661 67.7801C42.8852 68.319 42.382 68.6822 41.8127 68.6822H37.4397C36.8718 68.6822 36.3673 68.319 36.1876 67.7801L35.1482 64.6618C34.5816 64.469 34.0295 64.2405 33.4959 63.9776L30.5559 65.4476C30.0461 65.7012 29.4333 65.5995 29.0318 65.1993L25.9399 62.1074C25.5371 61.7059 25.438 61.0918 25.6916 60.5833L27.1616 57.6433C26.8988 57.1097 26.6703 56.5576 26.4775 55.991L23.3592 54.9516C22.8203 54.772 22.4571 54.2675 22.4571 53.6995V49.3265C22.4571 48.7573 22.8203 48.2541 23.3592 48.0731ZM25.0986 52.7473L27.9541 53.6995C28.3688 53.8369 28.6871 54.171 28.8073 54.591C29.045 55.4271 29.3778 56.2327 29.7992 56.9856C30.0118 57.3673 30.0224 57.8295 29.8269 58.2205L28.481 60.9135L30.2258 62.6582L32.9188 61.3124C33.3097 61.1156 33.7733 61.1261 34.1537 61.3401C34.9065 61.7614 35.7122 62.0942 36.5482 62.332C36.9682 62.4508 37.3024 62.7705 37.4397 63.1852L38.392 66.0407H40.8605L41.8127 63.1852C41.9514 62.7705 42.2843 62.4508 42.7043 62.332C43.5416 62.0942 44.3473 61.7614 45.0988 61.3401C45.4792 61.1261 45.9414 61.1156 46.3337 61.3124L49.028 62.6582L50.7727 60.9135L49.4256 58.2205C49.2301 57.8295 49.2407 57.3673 49.4546 56.9856C49.8746 56.2327 50.2088 55.4271 50.4465 54.591C50.5654 54.171 50.885 53.8369 51.2984 53.6995L54.1552 52.7473V50.2788L51.2984 49.3265C50.885 49.1892 50.5654 48.855 50.4465 48.435C50.2088 47.5976 49.8746 46.7933 49.4546 46.0405C49.2407 45.6588 49.2301 45.1965 49.4256 44.8056L50.7727 42.1125L49.028 40.3665L46.3337 41.7137C45.9414 41.9078 45.4792 41.8959 45.0988 41.6846C44.3473 41.2646 43.5416 40.9305 42.7043 40.6927C42.2843 40.5739 41.9514 40.2542 41.8127 39.8408L40.8605 36.9841H38.392L37.4397 39.8408C37.3024 40.2542 36.9682 40.5739 36.5482 40.6927C35.7122 40.9305 34.9065 41.2646 34.1537 41.6846C33.7733 41.8959 33.3097 41.9078 32.9188 41.7137L30.2258 40.3665L28.481 42.1125L29.8269 44.8056C30.0224 45.1965 30.0118 45.6588 29.7992 46.0405C29.3778 46.7933 29.045 47.5976 28.8073 48.435C28.6871 48.855 28.3688 49.1892 27.9541 49.3265L25.0986 50.2788V52.7473ZM39.6256 46.2293C42.5392 46.2293 44.9099 48.6001 44.9099 51.5124C44.9099 54.4259 42.5392 56.7954 39.6256 56.7954C36.7133 56.7954 34.3439 54.4259 34.3439 51.5124C34.3439 48.6001 36.7133 46.2293 39.6256 46.2293ZM39.6256 54.1539C41.0837 54.1539 42.2684 52.9691 42.2684 51.5124C42.2684 50.0556 41.0837 48.8708 39.6256 48.8708C38.1701 48.8708 36.9854 50.0556 36.9854 51.5124C36.9854 52.9691 38.1701 54.1539 39.6256 54.1539Z" fill="#307EED"/>
</svg>
