<svg width="44" height="44" viewBox="0 0 44 44" fill="none" xmlns="http://www.w3.org/2000/svg">
<path d="M42.5635 25.2385C42.9616 25.2385 43.2848 25.5616 43.2848 25.9598C43.2848 26.3579 42.9616 26.6811 42.5635 26.6811H37.5143V32.4516H42.5635C42.9616 32.4516 43.2848 32.7747 43.2848 33.1729C43.2848 33.571 42.9616 33.8942 42.5635 33.8942H37.5143V34.6155C37.5143 36.6042 35.8964 38.2221 33.9077 38.2221H33.1864V43.2712C33.1864 43.6701 32.8633 43.9926 32.4651 43.9926C32.0662 43.9926 31.7438 43.6701 31.7438 43.2712V38.2221H25.9733V43.2712C25.9733 43.6701 25.6502 43.9926 25.252 43.9926C24.8531 43.9926 24.5307 43.6701 24.5307 43.2712V38.2221H18.7602V43.2712C18.7602 43.6701 18.437 43.9926 18.0382 43.9926C17.64 43.9926 17.3168 43.6701 17.3168 43.2712V38.2221H11.5464V43.2712C11.5464 43.6701 11.2239 43.9926 10.825 43.9926C10.4269 43.9926 10.1037 43.6701 10.1037 43.2712V38.2221H9.38242C7.39376 38.2221 5.77586 36.6042 5.77586 34.6155V33.8942H0.726682C0.328519 33.8942 0.00537109 33.571 0.00537109 33.1729C0.00537109 32.7747 0.328519 32.4516 0.726682 32.4516H5.77586V26.6811H0.726682C0.328519 26.6811 0.00537109 26.3579 0.00537109 25.9598C0.00537109 25.5616 0.328519 25.2385 0.726682 25.2385H5.77586V19.468H0.726682C0.328519 19.468 0.00537109 19.1448 0.00537109 18.7467C0.00537109 18.3485 0.328519 18.0253 0.726682 18.0253H5.77586V12.2549H0.726682C0.328519 12.2549 0.00537109 11.9317 0.00537109 11.5335C0.00537109 11.1354 0.328519 10.8122 0.726682 10.8122H5.77586V10.0909C5.77586 8.10226 7.39376 6.48436 9.38242 6.48436H10.1037V1.43518C10.1037 1.03701 10.4269 0.713867 10.825 0.713867C11.2239 0.713867 11.5464 1.03701 11.5464 1.43518V6.48436H17.3168V1.43518C17.3168 1.03701 17.64 0.713867 18.0382 0.713867C18.437 0.713867 18.7602 1.03701 18.7602 1.43518V6.48436H24.5307V1.43518C24.5307 1.03701 24.8531 0.713867 25.252 0.713867C25.6502 0.713867 25.9733 1.03701 25.9733 1.43518V6.48436H31.7438V1.43518C31.7438 1.03701 32.0662 0.713867 32.4651 0.713867C32.8633 0.713867 33.1864 1.03701 33.1864 1.43518V6.48436H33.9077C35.8964 6.48436 37.5143 8.10226 37.5143 10.0909V10.8122H42.5635C42.9616 10.8122 43.2848 11.1354 43.2848 11.5335C43.2848 11.9317 42.9616 12.2549 42.5635 12.2549H37.5143V18.0253H42.5635C42.9616 18.0253 43.2848 18.3485 43.2848 18.7467C43.2848 19.1448 42.9616 19.468 42.5635 19.468H37.5143V25.2385H42.5635ZM36.0717 10.0909C36.0717 8.89715 35.1008 7.92698 33.9077 7.92698H9.38242C8.18937 7.92698 7.21849 8.89715 7.21849 10.0909V34.6155C7.21849 35.8086 8.18937 36.7794 9.38242 36.7794H33.9077C35.1008 36.7794 36.0717 35.8086 36.0717 34.6155V10.0909ZM29.5799 32.4516H13.711C12.5172 32.4516 11.5464 31.4807 11.5464 30.2876V14.4188C11.5464 13.2257 12.5172 12.2549 13.711 12.2549H29.5799C30.7729 12.2549 31.7438 13.2257 31.7438 14.4188V30.2876C31.7438 31.4807 30.7729 32.4516 29.5799 32.4516ZM30.3012 14.4188C30.3012 14.0213 29.9773 13.6975 29.5799 13.6975H13.711C13.3128 13.6975 12.989 14.0213 12.989 14.4188V30.2876C12.989 30.6851 13.3128 31.009 13.711 31.009H29.5799C29.9773 31.009 30.3012 30.6851 30.3012 30.2876V14.4188ZM26.6946 26.6811H16.5963C16.1974 26.6811 15.8742 26.3579 15.8742 25.9598C15.8742 25.5616 16.1974 25.2385 16.5963 25.2385H26.6946C27.0928 25.2385 27.4159 25.5616 27.4159 25.9598C27.4159 26.3579 27.0928 26.6811 26.6946 26.6811ZM26.6946 23.7958H16.5963C16.1974 23.7958 15.8742 23.4727 15.8742 23.0745C15.8742 22.6764 16.1974 22.3532 16.5963 22.3532H26.6946C27.0928 22.3532 27.4159 22.6764 27.4159 23.0745C27.4159 23.4727 27.0928 23.7958 26.6946 23.7958ZM23.8094 19.468H19.4815C19.0826 19.468 18.7602 19.1448 18.7602 18.7467C18.7602 18.3485 19.0826 18.0253 19.4815 18.0253H23.8094C24.2075 18.0253 24.5307 18.3485 24.5307 18.7467C24.5307 19.1448 24.2075 19.468 23.8094 19.468Z" fill="#307EED"/>
</svg>
