<svg width="68" height="70" viewBox="0 0 68 70" fill="none" xmlns="http://www.w3.org/2000/svg">
<path d="M65.6398 57.6543L62.8387 58.5869C62.6654 59.0959 62.4602 59.593 62.2241 60.0723L63.5446 62.7133C63.7724 63.1701 63.6834 63.7218 63.3215 64.0825L60.5453 66.8599C60.1834 67.2194 59.6305 67.3096 59.1749 67.0818L56.5339 65.7613C56.0546 65.9986 55.5587 66.2026 55.0497 66.3759L54.116 69.1771C53.9546 69.6611 53.5014 69.9886 52.9912 69.9886H49.0629C48.5527 69.9886 48.0995 69.6611 47.937 69.1771L47.0044 66.3759C46.4954 66.2026 45.9995 65.9986 45.519 65.7613L42.8792 67.0818C42.42 67.3096 41.8695 67.2194 41.5088 66.8599L38.7314 64.0825C38.3707 63.7218 38.2805 63.1701 38.5095 62.7133L39.83 60.0723C39.5927 59.593 39.3887 59.0959 39.2155 58.5869L36.4143 57.6543C35.9302 57.493 35.6027 57.0398 35.6027 56.5284V52.6001C35.6027 52.0899 35.9302 51.6367 36.4143 51.4754L39.2155 50.5416C39.3887 50.0326 39.5927 49.5367 39.83 49.0574L38.5095 46.4164C38.2805 45.9596 38.3707 45.4079 38.7314 45.0472L41.5088 42.2698C41.8695 41.9091 42.4212 41.8177 42.8792 42.0467L45.519 43.3672C45.9995 43.1311 46.4954 42.9259 47.0044 42.7526L47.937 39.9515C48.0995 39.4674 48.5527 39.1411 49.0629 39.1411H52.9912C53.5014 39.1411 53.9546 39.4674 54.116 39.9515L55.0497 42.7526C55.5587 42.9259 56.0546 43.1311 56.5339 43.3672L59.1749 42.0467C59.6329 41.8177 60.1846 41.9091 60.5453 42.2698L63.3215 45.0472C63.6834 45.4079 63.7724 45.9596 63.5446 46.4164L62.2241 49.0574C62.4602 49.5367 62.6654 50.0326 62.8387 50.5416L65.6398 51.4754C66.1239 51.6367 66.4502 52.0899 66.4502 52.6001V56.5284C66.4502 57.0398 66.1239 57.493 65.6398 57.6543ZM64.0773 53.4555L61.5122 52.6001C61.1397 52.4767 60.8537 52.1765 60.7458 51.7993C60.5322 51.0482 60.2332 50.3245 59.8548 49.6482C59.6637 49.3054 59.6543 48.8901 59.8299 48.5389L61.0388 46.1198L59.4715 44.5525L57.0524 45.7615C56.7 45.937 56.2848 45.9264 55.9431 45.7365C55.2668 45.3581 54.5431 45.0591 53.7921 44.8455C53.4148 44.7387 53.1146 44.4516 52.9912 44.0791L52.1358 41.514H49.9183L49.0629 44.0791C48.9383 44.4516 48.6393 44.7387 48.2621 44.8455C47.5099 45.0591 46.7873 45.3581 46.111 45.7365C45.7682 45.9264 45.3529 45.937 45.0017 45.7615L42.5826 44.5525L41.0141 46.1198L42.2243 48.5389C42.3999 48.8901 42.3904 49.3054 42.1982 49.6482C41.8209 50.3245 41.5207 51.0482 41.3071 51.7993C41.2004 52.1765 40.9132 52.4767 40.5419 52.6001L37.9756 53.4555V55.673L40.5419 56.5284C40.9132 56.653 41.2004 56.952 41.3071 57.3293C41.5207 58.0815 41.8209 58.804 42.1982 59.4803C42.3904 59.8232 42.3999 60.2384 42.2243 60.5896L41.0141 63.0099L42.5826 64.5772L45.0017 63.3671C45.3529 63.1915 45.7682 63.201 46.111 63.3932C46.7873 63.7704 47.5099 64.0706 48.2621 64.2842C48.6393 64.3909 48.9383 64.6781 49.0629 65.0494L49.9183 67.6157H52.1358L52.9912 65.0494C53.1146 64.6781 53.4148 64.3909 53.7921 64.2842C54.5431 64.0706 55.2668 63.7704 55.9431 63.3932C56.2848 63.201 56.7 63.1915 57.0524 63.3671L59.4715 64.5772L61.0388 63.0099L59.8299 60.5896C59.6543 60.2384 59.6637 59.8232 59.8548 59.4803C60.2332 58.804 60.5322 58.0815 60.7458 57.3293C60.8537 56.952 61.1397 56.653 61.5122 56.5284L64.0773 55.673V53.4555ZM51.0265 59.3106C48.4104 59.3106 46.2807 57.181 46.2807 54.5648C46.2807 51.9476 48.4104 49.8191 51.0265 49.8191C53.6437 49.8191 55.7722 51.9476 55.7722 54.5648C55.7722 57.181 53.6437 59.3106 51.0265 59.3106ZM51.0265 52.192C49.7178 52.192 48.6536 53.2562 48.6536 54.5648C48.6536 55.8735 49.7178 56.9377 51.0265 56.9377C52.3351 56.9377 53.3993 55.8735 53.3993 54.5648C53.3993 53.2562 52.3351 52.192 51.0265 52.192ZM7.12816 37.9547V30.836C7.12816 30.1799 7.65969 29.6496 8.3146 29.6496C8.96952 29.6496 9.50105 30.1799 9.50105 30.836V37.9547C9.50105 38.6096 8.96952 39.1411 8.3146 39.1411C7.65969 39.1411 7.12816 38.6096 7.12816 37.9547ZM7.12816 59.3106V52.192C7.12816 51.5371 7.65969 51.0055 8.3146 51.0055C8.96952 51.0055 9.50105 51.5371 9.50105 52.192V59.3106C9.50105 59.9655 8.96952 60.4971 8.3146 60.4971C7.65969 60.4971 7.12816 59.9655 7.12816 59.3106ZM60.518 36.7682C59.8631 36.7682 59.3315 36.2367 59.3315 35.5818V28.4632C59.3315 26.4996 57.7358 24.9026 55.7722 24.9026H5.94172C3.97935 24.9026 2.3824 26.4996 2.3824 28.4632V40.3276C2.3824 42.2899 3.97935 43.8869 5.94172 43.8869H32.0434C32.6983 43.8869 33.2299 44.4184 33.2299 45.0733C33.2299 45.7282 32.6983 46.2598 32.0434 46.2598H5.94172C3.97935 46.2598 2.3824 47.8555 2.3824 49.8191V61.6835C2.3824 63.6459 3.97935 65.2428 5.94172 65.2428H32.0434C32.6983 65.2428 33.2299 65.7743 33.2299 66.4293C33.2299 67.0842 32.6983 67.6157 32.0434 67.6157H5.94172C2.67071 67.6157 0.00952148 64.9545 0.00952148 61.6835V49.8191C0.00952148 47.871 0.965793 46.1554 2.41918 45.0733C0.965793 43.9901 0.00952148 42.2745 0.00952148 40.3276V28.4632C0.00952148 26.515 0.965793 24.7994 2.41918 23.7162C0.965793 22.6342 0.00952148 20.9186 0.00952148 18.9704V7.10603C0.00952148 3.8362 2.67071 1.17383 5.94172 1.17383H55.7722C59.0432 1.17383 61.7044 3.8362 61.7044 7.10603V18.9704C61.7044 20.9186 60.7493 22.6342 59.2948 23.7162C60.7493 24.7994 61.7044 26.515 61.7044 28.4632V35.5818C61.7044 36.2367 61.1741 36.7682 60.518 36.7682ZM59.3315 18.9704V7.10603C59.3315 5.14366 57.7358 3.54671 55.7722 3.54671H5.94172C3.97935 3.54671 2.3824 5.14366 2.3824 7.10603V18.9704C2.3824 20.934 3.97935 22.5309 5.94172 22.5309H55.7722C57.7358 22.5309 59.3315 20.934 59.3315 18.9704ZM53.3993 14.2247C53.0909 14.2247 52.7824 14.0942 52.557 13.8806C52.3434 13.6552 52.2129 13.3467 52.2129 13.0382C52.2129 12.7298 52.3434 12.4213 52.557 12.1959C53.0078 11.7569 53.8027 11.7569 54.2417 12.1959C54.4553 12.4213 54.587 12.7298 54.587 13.0382C54.587 13.3467 54.4553 13.6552 54.2417 13.8806C54.0163 14.0942 53.7078 14.2247 53.3993 14.2247ZM48.6536 14.2247C48.3451 14.2247 48.0366 14.0942 47.8112 13.8806C47.5976 13.6552 47.4671 13.3467 47.4671 13.0382C47.4671 12.7298 47.5976 12.4213 47.8112 12.1959C48.2502 11.7569 49.0451 11.7569 49.496 12.1959C49.7095 12.4213 49.84 12.7298 49.84 13.0382C49.84 13.3467 49.7095 13.6552 49.496 13.8806C49.2705 14.0942 48.9621 14.2247 48.6536 14.2247ZM43.9078 14.2247C43.5875 14.2247 43.2909 14.0942 43.0654 13.8806C42.8519 13.6552 42.7214 13.3467 42.7214 13.0382C42.7214 12.7298 42.8519 12.4213 43.0654 12.1959C43.5044 11.7569 44.2993 11.7569 44.7502 12.1959C44.9637 12.4213 45.0943 12.7298 45.0943 13.0382C45.0943 13.3467 44.9637 13.6552 44.7502 13.8806C44.5248 14.0942 44.2282 14.2247 43.9078 14.2247ZM8.3146 17.784C7.65969 17.784 7.12816 17.2537 7.12816 16.5976V9.47891C7.12816 8.824 7.65969 8.29247 8.3146 8.29247C8.96952 8.29247 9.50105 8.824 9.50105 9.47891V16.5976C9.50105 17.2537 8.96952 17.784 8.3146 17.784Z" fill="#307EED"/>
</svg>
