<svg width="98" height="70" viewBox="0 0 98 70" fill="none" xmlns="http://www.w3.org/2000/svg">
<path d="M65.2198 55.3367C54.6874 51.2857 43.3448 46.0195 42.1295 42.7788V39.538C44.155 37.1075 46.1805 34.2718 46.9907 30.626C49.4212 29.0056 49.8263 25.3598 48.2059 22.9293V15.2325C48.2059 7.53573 44.155 2.26953 34.4328 2.26953C25.1157 2.26953 20.6596 7.53573 20.6596 15.2325V22.5242C18.6342 24.9547 19.4444 28.6006 21.8749 30.2209C22.6851 33.8668 24.7106 37.1075 26.736 39.133V42.3737C25.9258 45.6144 14.1782 50.4756 3.64576 54.9316C2.83558 55.3367 2.02539 56.1468 2.02539 56.957V65.464C2.02539 66.6792 3.24067 67.8945 4.45595 67.8945H64.4096C65.6249 67.8945 66.8402 66.6792 66.8402 65.464V56.957C66.8402 56.5519 66.03 55.7417 65.2198 55.3367Z" stroke="#307EED" stroke-width="2.5" stroke-miterlimit="10" stroke-linecap="round" stroke-linejoin="round"/>
<path d="M74.9425 68.2987H93.5767C94.3869 68.2987 95.1971 67.4885 95.1971 66.6783V60.1968C95.1971 59.3867 94.792 58.5765 93.9818 58.5765C85.88 55.3357 76.968 51.6899 76.1578 49.2593V46.0186C77.7781 44.3982 78.9934 41.9677 79.8036 39.132C81.8291 37.9167 82.2342 35.0811 80.6138 33.0556V27.3843C80.6138 21.713 77.373 17.6621 70.0814 17.6621C62.7897 17.6621 59.1439 21.713 59.1439 27.7894V33.4607C57.5235 35.4862 57.9286 38.3218 59.9541 39.5371C60.7643 42.3728 61.9795 44.8033 63.5999 46.4237" stroke="#307EED" stroke-width="2.5" stroke-miterlimit="10" stroke-linecap="round" stroke-linejoin="round"/>
</svg>
