<svg width="87" height="90" viewBox="0 0 87 90" fill="none" xmlns="http://www.w3.org/2000/svg">
<g clip-path="url(#clip0)">
<path d="M85.8349 73.8683L82.1713 75.0895C81.9448 75.7537 81.6779 76.4038 81.3675 77.0307L83.0946 80.4849C83.3925 81.0823 83.2761 81.8038 82.8044 82.2756L79.1718 85.9081C78.6985 86.3783 77.977 86.4962 77.3796 86.1983L73.927 84.4713C73.3001 84.7816 72.6499 85.0485 71.9842 85.275L70.7646 88.9387C70.5535 89.5718 69.9608 90 69.292 90H64.1542C63.487 90 62.8942 89.5718 62.6832 88.9387L61.462 85.275C60.7979 85.0485 60.1477 84.7816 59.5208 84.4713L56.0666 86.1983C55.4677 86.4978 54.7461 86.3799 54.276 85.9081L50.6434 82.2756C50.1716 81.8038 50.0537 81.0823 50.3517 80.4849L52.0787 77.0307C51.7699 76.4038 51.5015 75.7537 51.2749 75.0895L47.6113 73.8683C46.9782 73.6573 46.5515 73.0645 46.5515 72.3957V67.2595C46.5515 66.5907 46.9782 65.998 47.6113 65.7869L51.2749 64.5657C51.5015 63.9016 51.7699 63.2514 52.0787 62.6245L50.3517 59.1704C50.0537 58.573 50.1716 57.8514 50.6434 57.3797L54.276 53.7471C54.7477 53.2754 55.4692 53.1575 56.0666 53.4569L59.5208 55.1825C60.1477 54.8737 60.7979 54.6052 61.462 54.3787L62.6832 50.715C62.8942 50.0819 63.487 49.6552 64.1542 49.6552H69.292C69.9608 49.6552 70.5535 50.0819 70.7646 50.715L71.9842 54.3787C72.6499 54.6052 73.3001 54.8737 73.927 55.1825L77.3796 53.4569C77.9801 53.159 78.7001 53.2754 79.1718 53.7471L82.8044 57.3797C83.2761 57.8514 83.3925 58.573 83.0946 59.1704L81.3675 62.6245C81.6779 63.2514 81.9448 63.9016 82.1713 64.5657L85.8349 65.7869C86.468 65.998 86.8963 66.5907 86.8963 67.2595V72.3957C86.8963 73.0645 86.468 73.6573 85.8349 73.8683ZM83.7929 68.3768L80.4365 67.2595C79.9508 67.0966 79.5753 66.704 79.4356 66.2106C79.1563 65.2283 78.7637 64.2818 78.2703 63.3973C78.0204 62.9488 78.0065 62.4057 78.2361 61.9464L79.8189 58.7825L77.7691 56.7326L74.6051 58.3138C74.1442 58.5419 73.6011 58.5311 73.1527 58.2812C72.2698 57.7878 71.3232 57.3952 70.3394 57.1159C69.846 56.9762 69.4549 56.6007 69.292 56.1135L68.1732 52.7587H65.273L64.1542 56.1135C63.9929 56.6007 63.6003 56.9762 63.1068 57.1159C62.1246 57.3952 61.178 57.7878 60.2935 58.2812C59.8451 58.5311 59.3035 58.5419 58.8427 58.3138L55.6787 56.7326L53.6289 58.7825L55.2101 61.9464C55.4398 62.4057 55.4273 62.9488 55.1775 63.3973C54.6825 64.2818 54.2915 65.2283 54.0122 66.2106C53.8725 66.704 53.497 67.0966 53.0097 67.2595L49.6549 68.3768V71.2769L53.0097 72.3957C53.497 72.5587 53.8725 72.9513 54.0122 73.4447C54.2915 74.4269 54.6825 75.3735 55.1775 76.2564C55.4273 76.7064 55.4398 77.2495 55.2101 77.7088L53.6289 80.8728L55.6787 82.9226L58.8427 81.3399C59.3035 81.1102 59.8451 81.1226 60.2935 81.374C61.178 81.8675 62.1246 82.26 63.1068 82.5394C63.6003 82.679 63.9929 83.0545 64.1542 83.5402L65.273 86.8966H68.1732L69.292 83.5402C69.4549 83.0545 69.846 82.679 70.3394 82.5394C71.3232 82.26 72.2698 81.8675 73.1527 81.374C73.6011 81.1226 74.1442 81.1102 74.6051 81.3399L77.7691 82.9226L79.8189 80.8728L78.2361 77.7088C78.0065 77.2495 78.0204 76.7064 78.2703 76.2564C78.7637 75.3735 79.1563 74.4269 79.4356 73.4447C79.5753 72.9513 79.9508 72.5587 80.4365 72.3957L83.7929 71.2769V68.3768ZM66.7239 76.0345C63.3008 76.0345 60.517 73.2492 60.517 69.8276C60.517 66.4045 63.3008 63.6207 66.7239 63.6207C70.1454 63.6207 72.9308 66.4045 72.9308 69.8276C72.9308 73.2492 70.1454 76.0345 66.7239 76.0345ZM66.7239 66.7242C65.0123 66.7242 63.6204 68.1161 63.6204 69.8276C63.6204 71.5392 65.0123 72.9311 66.7239 72.9311C68.4354 72.9311 69.8273 71.5392 69.8273 69.8276C69.8273 68.1161 68.4354 66.7242 66.7239 66.7242ZM40.3446 56.3276C41.9723 56.3276 42.8382 55.9863 42.8475 55.9831C43.6358 55.665 44.5389 56.0359 44.8679 56.818C45.1968 57.6 44.8461 58.4969 44.0687 58.8352C43.9291 58.8957 42.638 59.4311 40.3446 59.4311C38.0496 59.4311 36.7585 58.8957 36.6189 58.8352C35.8353 58.4923 35.4753 57.5783 35.8182 56.7931C36.1627 56.008 37.0782 55.6526 37.8618 55.9909C37.8634 55.9909 38.7292 56.3276 40.3446 56.3276ZM27.1549 38.7932C27.1549 37.9366 27.8501 37.2414 28.7066 37.2414H36.2713C37.1279 37.2414 37.823 37.9366 37.823 38.7932C37.823 39.6497 37.1279 40.3449 36.2713 40.3449H34.1904C34.2122 40.4488 34.2525 40.545 34.2525 40.6552C34.2525 41.5118 33.5573 42.2069 32.7008 42.2069H32.392C31.5354 42.2069 30.8403 41.5118 30.8403 40.6552C30.8403 40.545 30.8806 40.4488 30.9023 40.3449H28.7066C27.8501 40.3449 27.1549 39.6497 27.1549 38.7932ZM48.2289 42.2069H47.9185C47.062 42.2069 46.3668 41.5118 46.3668 40.6552C46.3668 40.545 46.4072 40.4488 46.4289 40.3449H44.4598C43.6032 40.3449 42.908 39.6497 42.908 38.7932C42.908 37.9366 43.6032 37.2414 44.4598 37.2414H52.0229C52.8794 37.2414 53.5746 37.9366 53.5746 38.7932C53.5746 39.6497 52.8794 40.3449 52.0229 40.3449H49.717C49.7387 40.4488 49.7791 40.545 49.7791 40.6552C49.7791 41.5118 49.0854 42.2069 48.2289 42.2069ZM63.4063 33.2892C63.2915 33.525 63.1611 33.7935 63.1441 33.8959C63.113 34.0619 63.0572 34.2202 62.978 34.3645C63.6111 35.1714 64.162 36.2157 64.162 37.5347C64.162 38.9607 63.9432 46.1949 59.6216 48.5411C58.8691 48.9476 57.9256 48.6714 57.5175 47.9173C57.1079 47.1647 57.3872 46.2228 58.1413 45.8132C60.1461 44.7254 61.0585 40.7592 61.0585 37.5347C61.0585 36.6844 60.292 35.9582 59.617 35.3188C59.4758 35.1854 59.3439 35.0613 59.2291 34.9433C58.8691 34.5818 58.7108 34.0682 58.8039 33.5669C58.9466 32.7973 59.406 32.2014 60.0654 31.933C60.2532 31.8585 60.4379 31.8228 60.6194 31.8042C60.6054 31.1928 60.4254 30.6994 60.0142 30.389C59.4835 29.9902 58.6534 29.8723 57.997 30.105C54.4513 31.3635 51.1989 30.7692 48.0535 30.195C43.6653 29.3944 39.5206 28.6387 34.2013 32.6592C33.8475 32.9276 33.396 33.03 32.9599 32.9431C32.5254 32.8563 32.1484 32.5863 31.9249 32.203C30.8527 30.3642 30.2956 27.3942 31.1941 24.6166C30.4632 25.0325 29.7603 25.5135 29.0185 26.0194C27.9835 26.7269 26.9144 27.4594 25.6513 28.0909C24.8351 28.499 24.0872 28.8233 23.4199 29.1135C21.2056 30.074 20.8347 30.3316 20.8053 31.2223C21.1249 31.7499 21.4663 32.414 21.7999 33.3047C22.0141 33.8726 21.876 34.5135 21.4492 34.9433C21.3329 35.0613 21.201 35.1854 21.0613 35.3188C20.3847 35.9582 19.6182 36.6844 19.6182 37.5347C19.6182 40.2719 20.3847 44.7316 22.4935 45.7914C22.9947 46.0428 23.3206 46.544 23.347 47.1042C23.5797 52.0806 27.5227 59.8733 28.2722 61.3133C34.3115 66.7382 37.1372 67.5838 38.0263 67.7033C38.5415 67.5016 39.4291 67.2099 40.5929 67.2099C41.3222 67.2099 42.0515 67.3185 42.7606 67.5326C43.5815 67.7809 44.0454 68.6468 43.7956 69.4676C43.5489 70.2885 42.6784 70.7509 41.8622 70.5026C41.4448 70.3769 41.018 70.3133 40.5929 70.3133C39.8216 70.3133 39.2801 70.5399 39.0194 70.65C38.8441 70.7245 38.6004 70.8254 38.2715 70.8254C35.6987 70.8254 32.1189 68.5195 28.913 65.9359C28.7579 67.6056 28.2396 69.0471 27.6158 70.0511C27.4684 70.2885 27.3085 70.4933 27.1456 70.695C28.3156 72.6518 33.3835 76.6521 40.4563 76.6521C41.8327 76.6521 43.1997 76.5 44.5203 76.199C45.3535 76.0112 46.1868 76.5311 46.3777 77.3675C46.567 78.2023 46.0441 79.034 45.2092 79.2249C43.6637 79.5771 42.0639 79.7556 40.4563 79.7556C32.4804 79.7556 26.4427 75.3642 24.4813 72.2747C16.6575 73.6728 10.328 76.3557 5.68371 80.2661C5.0894 80.7688 4.84733 81.5168 5.0382 82.2709C5.22751 83.0219 5.79544 83.565 6.55578 83.7233C13.5354 85.1711 25.0632 86.8966 40.3446 86.8966C43.673 86.8966 47.0356 86.8066 50.3377 86.6297C51.2051 86.5878 51.9251 87.2411 51.9701 88.0961C52.0166 88.9526 51.3603 89.6835 50.5037 89.7285C47.1458 89.9085 43.7289 90 40.3446 90C24.801 90 13.0482 88.2388 5.92578 86.7616C4.0032 86.3628 2.51044 84.9337 2.0294 83.0312C1.54837 81.1273 2.18147 79.1597 3.68509 77.8935C8.84458 73.5471 15.8149 70.5973 24.3975 69.1294C25.0104 68.8423 26.5001 66.1299 25.5644 62.8325C24.877 61.5275 20.9154 53.8107 20.3103 48.0818C16.7087 45.4485 16.5147 38.8987 16.5147 37.5347C16.5147 35.6649 17.6196 34.349 18.5041 33.4723C18.1285 32.698 17.781 32.2619 17.4629 31.8663C17.0672 31.3713 16.6187 30.8111 16.3999 29.9126C14.1918 20.7776 18.1658 13.8042 28.2132 9.18005C28.4258 8.50505 28.5142 6.75781 28.5701 5.6747C28.7129 2.86298 28.7997 1.16694 30.2025 0.614531C30.5377 0.481083 31.416 0.265393 32.2973 1.12039C35.5591 4.2797 43.5194 6.30005 48.277 7.50884C49.8303 7.90298 51.0577 8.21488 51.8242 8.48643C60.7094 11.6411 65.7929 19.4944 64.7734 28.4928C64.4832 31.0733 63.8346 32.4063 63.4063 33.2892ZM50.7846 11.4114C50.1546 11.1864 48.9303 10.8761 47.5135 10.5161C42.7885 9.31815 35.947 7.58022 31.7356 4.64901C31.7092 5.05867 31.6875 5.47919 31.6689 5.83298C31.5168 8.80298 31.3973 11.1492 29.8037 11.8661C21.3189 15.6802 17.9144 20.8149 19.1651 27.9466C19.9906 27.2297 21.0691 26.7502 22.1847 26.2661C22.807 25.9961 23.5022 25.695 24.2625 25.3149C25.3379 24.778 26.2751 24.1371 27.2666 23.459C29.346 22.0361 31.4982 20.565 34.8344 20.1818C35.528 20.1073 36.1766 20.489 36.4435 21.1268C36.7089 21.763 36.5211 22.5 35.9827 22.933C33.9204 24.5918 33.5853 27.1149 34.0027 29.0313C39.6603 25.5057 44.3915 26.3716 48.6106 27.1413C51.4829 27.6657 54.1922 28.1592 56.9589 27.18C58.5308 26.623 60.3649 26.8852 61.7118 27.8163C62.5622 18.9 56.661 13.4969 50.7846 11.4114Z" fill="#307EED"/>
</g>
<defs>
<clipPath id="clip0">
<rect width="86.8966" height="90" fill="white"/>
</clipPath>
</defs>
</svg>
