<svg width="78" height="90" viewBox="0 0 78 90" fill="none" xmlns="http://www.w3.org/2000/svg">
<g clip-path="url(#clip0)">
<path d="M70.7355 52.2427L54.1541 61.8788C54.1221 61.8971 54.087 61.8895 54.055 61.9047C52.4365 63.5949 50.5496 65.0563 48.3697 66.1469C46.0069 67.3276 44.5409 69.7027 44.5409 72.3432V73.6017C44.5409 77.5968 47.7901 80.8475 51.7867 80.8475H55.2189C57.7419 80.8475 59.7952 82.9007 59.7952 85.4237C59.7952 87.9468 57.7419 90 55.2189 90H24.4038C21.8808 90 19.8275 87.9468 19.8275 85.4237C19.8275 82.9007 21.8808 80.8475 24.4038 80.8475H27.836C31.8311 80.8475 35.0818 77.5968 35.0818 73.6017V72.3432C35.0818 69.7027 33.6143 67.3276 31.253 66.1469C29.2013 65.1203 27.4089 63.7658 25.853 62.2053L8.58365 52.2427C4.22856 49.7303 1.52246 45.0458 1.52246 40.018C1.52246 37.4339 2.83585 35.0802 5.03399 33.721C7.23365 32.3634 9.92602 32.2429 12.237 33.3961L19.8275 37.1929V32.0339H18.3021C17.4601 32.0339 16.7767 31.3505 16.7767 30.5085C16.7767 29.6664 17.4601 28.9831 18.3021 28.9831H21.353H58.2697H61.3206C62.1626 28.9831 62.846 29.6664 62.846 30.5085C62.846 31.3505 62.1626 32.0339 61.3206 32.0339H59.7952V37.0388L67.0806 33.3961C69.3916 32.2414 72.084 32.3619 74.2836 33.721C76.4818 35.0802 77.7936 37.4339 77.7936 40.018C77.7936 45.0458 75.0891 49.7303 70.7355 52.2427ZM19.8275 47.6619V40.6037L10.8718 36.1266C9.51263 35.4463 7.92924 35.518 6.63721 36.3173C5.34517 37.1151 4.57331 38.4986 4.57331 40.018C4.57331 43.9581 6.69365 47.6298 10.1075 49.6007L21.7191 56.2988C20.5018 53.6431 19.8275 50.7173 19.8275 47.6619ZM56.7443 32.0339H22.8784V47.6619C22.8784 52.412 24.7745 56.7992 27.9947 60.0361C28.0191 60.0666 28.0511 60.088 28.0725 60.12C29.3874 61.4242 30.896 62.5561 32.6167 63.418C36.0199 65.1188 38.1326 68.5403 38.1326 72.3432V73.6017C38.1326 79.2793 33.5152 83.8983 27.836 83.8983H24.4038C23.5633 83.8983 22.8784 84.5832 22.8784 85.4237C22.8784 86.2642 23.5633 86.9492 24.4038 86.9492H55.2189C56.0594 86.9492 56.7443 86.2642 56.7443 85.4237C56.7443 84.5832 56.0594 83.8983 55.2189 83.8983H51.7867C46.1075 83.8983 41.4901 79.2793 41.4901 73.6017V72.3432C41.4901 68.5388 43.6028 65.1188 47.006 63.418C53.0116 60.4144 56.7443 54.3768 56.7443 47.6619V32.0339ZM72.6789 36.3173C71.3884 35.518 69.8035 35.4463 68.4443 36.1266L59.7952 40.4512V47.6619C59.7952 50.6441 59.1621 53.5088 58.0013 56.1142L69.2055 49.6022C72.6225 47.6298 74.7428 43.9581 74.7428 40.018C74.7428 38.4986 73.9725 37.1151 72.6789 36.3173ZM27.4547 47.2881C26.6126 47.2881 25.9292 46.6047 25.9292 45.7627V35.0847C25.9292 34.2427 26.6126 33.5593 27.4547 33.5593C28.2982 33.5593 28.9801 34.2427 28.9801 35.0847V45.7627C28.9801 46.6047 28.2982 47.2881 27.4547 47.2881ZM59.4275 5.71119C59.4626 5.83627 59.4886 5.96593 59.4886 6.1017V24.4068C59.4886 25.2488 58.8067 25.9322 57.9631 25.9322C57.1211 25.9322 56.4377 25.2488 56.4377 24.4068V10.3744L51.2909 16.6668C50.4764 17.6614 49.2774 18.1983 47.9853 18.1449C46.6994 18.0885 45.5477 17.4463 44.8231 16.3846L39.6581 8.80932L34.4945 16.3846C33.7699 17.4463 32.6167 18.0885 31.3308 18.1449C30.0525 18.2014 28.8428 17.6614 28.0267 16.6668L22.8784 10.3744V24.4068C22.8784 25.2488 22.1965 25.9322 21.353 25.9322C20.5109 25.9322 19.8275 25.2488 19.8275 24.4068V6.1017C19.8275 5.96593 19.855 5.83627 19.8886 5.71119C18.9489 5.19102 18.3021 4.19949 18.3021 3.05085C18.3021 1.36831 19.6704 0 21.353 0C23.0355 0 24.4038 1.36831 24.4038 3.05085C24.4038 4.14763 23.8181 5.10254 22.947 5.64102L30.3881 14.7341C30.6626 15.0697 31.0165 15.1093 31.1981 15.0971C31.3842 15.0895 31.7304 15.0224 31.973 14.6654L38.1097 5.66542C37.2158 5.13305 36.6072 4.16593 36.6072 3.05085C36.6072 1.36831 37.9755 0 39.6581 0C41.3406 0 42.7089 1.36831 42.7089 3.05085C42.7089 4.16593 42.1018 5.13305 41.2079 5.66542L47.3431 14.6654C47.5872 15.0224 47.9335 15.0895 48.1196 15.0971C48.3026 15.1093 48.655 15.0697 48.9296 14.7341L56.3706 5.64102C55.4996 5.10254 54.9123 4.14763 54.9123 3.05085C54.9123 1.36831 56.2806 0 57.9631 0C59.6457 0 61.014 1.36831 61.014 3.05085C61.014 4.19949 60.3687 5.19102 59.4275 5.71119Z" fill="#307EED"/>
</g>
<defs>
<clipPath id="clip0">
<rect width="77.7966" height="90" fill="white"/>
</clipPath>
</defs>
</svg>
