<svg width="102" height="90" viewBox="0 0 102 90" fill="none" xmlns="http://www.w3.org/2000/svg">
<g clip-path="url(#clip2)">
<path d="M99.7256 41.2867L101.372 81.325C101.466 83.6133 100.646 85.7833 99.0589 87.4367C97.4722 89.09 95.3372 90 93.0456 90H56.6589H46.6589H10.2722C7.97889 90 5.84389 89.09 4.25889 87.4367C2.67223 85.7833 1.85056 83.6133 1.94556 81.325L3.59056 41.285C2.37223 39.4733 1.65723 37.3983 1.65723 35V21.6667C1.65723 17.0717 5.39723 13.3333 9.99223 13.3333H36.7572C37.5889 5.845 43.9522 0 51.6589 0C59.3656 0 65.7272 5.845 66.5606 13.3333H93.3256C97.9206 13.3333 101.659 17.0717 101.659 21.6667V35C101.659 37.3983 100.944 39.475 99.7256 41.2867ZM58.3256 86.6667H93.0456C94.4206 86.6667 95.7022 86.12 96.6539 85.1283C97.6056 84.1367 98.0972 82.835 98.0422 81.4617L96.5289 44.665C87.1206 52.075 67.5372 53.15 61.6589 53.305V58.3333C61.6589 59.2533 60.9122 60 59.9922 60H58.3256V86.6667ZM48.3256 86.6667H54.9922V60H53.3256V61.6667C53.3256 62.5867 52.5789 63.3333 51.6589 63.3333C50.7389 63.3333 49.9922 62.5867 49.9922 61.6667V60H48.3256V86.6667ZM49.9922 56.6667V51.6667C49.9922 50.7467 50.7389 50 51.6589 50C52.5789 50 53.3256 50.7467 53.3256 51.6667V56.6667H56.6589H58.3256V46.6667H56.6589H46.6589H44.9922V56.6667H46.6589H49.9922ZM54.9922 43.3333V16.6667H48.3256V43.3333H54.9922ZM6.66223 85.1283C7.61556 86.12 8.89556 86.6667 10.2722 86.6667H44.9922V60H43.3256C42.4056 60 41.6589 59.2533 41.6589 58.3333V53.305C35.7806 53.15 16.1956 52.075 6.78723 44.665L5.27556 81.4617C5.21889 82.835 5.71056 84.1367 6.66223 85.1283ZM9.99223 16.6667C7.23389 16.6667 4.99056 18.91 4.99056 21.6667V35C4.99056 36.71 5.54056 38.2283 6.49056 39.5867C6.51889 39.615 6.53389 39.6533 6.56056 39.685C12.2039 47.5433 31.7856 49.755 41.6589 49.9783V45C41.6589 44.08 42.4056 43.3333 43.3256 43.3333H44.9922V16.6667H9.99223ZM51.6589 3.33333C45.7956 3.33333 40.9772 7.69333 40.1606 13.3333H46.6589H56.6589H63.1572C62.3389 7.69333 57.5206 3.33333 51.6589 3.33333ZM98.3256 21.6667C98.3256 18.91 96.0822 16.6667 93.3256 16.6667H58.3256V43.3333H59.9922C60.9122 43.3333 61.6589 44.08 61.6589 45V49.9783C71.5356 49.75 91.1356 47.5333 96.7672 39.6683C96.7872 39.6433 96.8006 39.6117 96.8222 39.5883C97.7739 38.23 98.3256 36.7117 98.3256 35V21.6667Z" fill="#307EED"/>
</g>
<defs>
<clipPath id="clip2">
<rect width="101.667" height="90" fill="white"/>
</clipPath>
</defs>
</svg>
