<svg width="47" height="6" viewBox="0 0 47 6" fill="none" xmlns="http://www.w3.org/2000/svg">
<path fill-rule="evenodd" clip-rule="evenodd" d="M2.78771 0C2.13285 0 1.57833 0.199371 1.13395 0.603211C0.695873 1.00083 0.419818 1.55067 0.298219 2.24048L0.0415676 3.71379L0.0412128 3.71605C0.0138076 3.89117 -0.000488281 4.04522 -0.000488281 4.17705C-0.000488281 4.72665 0.179802 5.17582 0.548742 5.5091C0.916267 5.8411 1.40853 6 2.00979 6H2.95613C3.58319 6 4.11352 5.81457 4.53685 5.4376C4.96422 5.05642 5.23285 4.53337 5.34933 3.8799L5.57744 2.5863H2.65937L2.44417 3.81406H3.99893L3.99547 3.83308C3.9406 4.13686 3.82334 4.36163 3.65162 4.51917C3.48089 4.67582 3.26824 4.75623 3.00424 4.75623H2.05791C1.83821 4.75623 1.67934 4.68784 1.56465 4.56113C1.45263 4.43156 1.3896 4.24979 1.3896 4.00089C1.3896 3.95305 1.3988 3.85829 1.42005 3.70951L1.66035 2.33394C1.72104 1.98048 1.85033 1.71449 2.04015 1.52497C2.22777 1.33765 2.4579 1.24377 2.73959 1.24377H3.62978C3.84337 1.24377 3.99611 1.30451 4.10465 1.41289L4.10654 1.4147C4.21375 1.51763 4.27404 1.66387 4.27404 1.871C4.27404 1.90004 4.26955 1.95995 4.25881 2.05644L4.24232 2.20463H5.59192L5.61341 2.09735C5.6368 1.98061 5.64809 1.85427 5.64809 1.71886C5.64809 1.3819 5.56771 1.07933 5.40336 0.815618C5.23901 0.551898 5.00477 0.351212 4.70572 0.213116C4.41129 0.0693259 4.06729 0 3.6779 0H2.78771Z" fill="white"/>
<path d="M9.50509 0H15.2556L14.3985 6H8.64795L9.50509 0Z" fill="#307EED"/>
<path d="M19.113 0H46.113L45.2559 6H18.2559L19.113 0Z" fill="white"/>
</svg>
