<svg width="70" height="70" viewBox="0 0 70 70" fill="none" xmlns="http://www.w3.org/2000/svg">
<path d="M14.2916 62.708H4.08325C2.62492 62.708 1.45825 61.5413 1.45825 60.083V4.37467C1.45825 2.91634 2.62492 1.45801 4.08325 1.45801H14.5833C16.0416 1.45801 18.6666 7.29134 18.6666 7.29134H65.6249C67.0832 7.29134 68.2499 8.45801 68.2499 10.208V59.7913C68.2499 61.2497 67.0832 62.4163 65.6249 62.4163H55.4166" stroke="#307EED" stroke-width="2.5" stroke-miterlimit="10" stroke-linecap="round" stroke-linejoin="round"/>
<path d="M68.5416 18.958H1.45825" stroke="#307EED" stroke-width="2.5" stroke-miterlimit="10" stroke-linecap="round" stroke-linejoin="round"/>
<path d="M35 56.876C37.8995 56.876 40.25 54.5255 40.25 51.626C40.25 48.7265 37.8995 46.376 35 46.376C32.1005 46.376 29.75 48.7265 29.75 51.626C29.75 54.5255 32.1005 56.876 35 56.876Z" stroke="#307EED" stroke-width="2.5" stroke-miterlimit="10" stroke-linecap="round" stroke-linejoin="round"/>
<path d="M45.2082 58.9167L49.5832 60.0833C50.4582 58.625 51.0415 57.4583 51.3332 55.7083L47.2498 53.375C47.5415 51.9167 47.5415 50.75 47.2498 49.5833L51.3332 47.25C51.0415 45.7917 50.4582 44.3333 49.5832 42.875L45.2082 44.0417C44.3332 42.875 43.4582 42 42.2915 41.4167L43.4582 37.0417C41.9998 36.1667 40.5415 35.5833 39.0832 35.2917L36.7498 39.375C35.2915 39.0833 34.1248 39.0833 32.9582 39.375L30.6248 35C29.1665 35.2917 27.7082 35.875 26.2498 36.75L27.4165 41.125C26.2498 42 25.3748 42.875 24.7915 44.0417L20.4165 42.875C19.5415 44.0417 18.9582 45.7917 18.6665 47.25L22.7498 49.5833C22.4582 51.0417 22.4582 52.2083 22.7498 53.375L18.6665 55.7083C18.9582 57.1667 19.5415 58.625 20.4165 60.0833L24.7915 58.9167C25.6665 60.0833 26.5415 60.9583 27.7082 61.5417L26.5415 65.9167C27.9998 66.7917 29.4582 67.375 30.9165 67.6667L33.2498 63.5833C34.7082 63.875 35.8748 63.875 37.0415 63.5833L39.3748 67.6667C40.8332 67.375 42.2915 66.7917 43.7498 65.9167L42.5832 61.5417C43.4582 60.9583 44.3332 60.0833 45.2082 58.9167Z" stroke="#307EED" stroke-width="2.5" stroke-miterlimit="10" stroke-linecap="round" stroke-linejoin="round"/>
</svg>
