<svg width="70" height="70" viewBox="0 0 70 70" fill="none" xmlns="http://www.w3.org/2000/svg">
<path d="M68.5416 8.45801C68.5416 4.66634 65.3333 1.45801 61.5416 1.45801H8.45825C4.66659 1.45801 1.45825 4.66634 1.45825 8.45801V61.5413C1.45825 65.333 4.66659 68.5413 8.45825 68.5413H61.5416C65.3333 68.5413 68.5416 65.333 68.5416 61.5413V8.45801Z" stroke="#307EED" stroke-width="2.5" stroke-miterlimit="10" stroke-linecap="round" stroke-linejoin="round"/>
<path d="M18.958 27.124C22.3408 27.124 25.083 24.3818 25.083 20.999C25.083 17.6163 22.3408 14.874 18.958 14.874C15.5753 14.874 12.833 17.6163 12.833 20.999C12.833 24.3818 15.5753 27.124 18.958 27.124Z" stroke="#307EED" stroke-width="2.5" stroke-linecap="round" stroke-linejoin="round"/>
<path d="M35.2917 52.793C38.6745 52.793 41.4167 50.0507 41.4167 46.668C41.4167 43.2852 38.6745 40.543 35.2917 40.543C31.909 40.543 29.1667 43.2852 29.1667 46.668C29.1667 50.0507 31.909 52.793 35.2917 52.793Z" stroke="#307EED" stroke-width="2.5" stroke-linecap="round" stroke-linejoin="round"/>
<path d="M51.0417 34.416V56.8743" stroke="#307EED" stroke-width="2.5" stroke-linecap="round" stroke-linejoin="round"/>
<path d="M51.0417 12.834V22.459" stroke="#307EED" stroke-width="2.5" stroke-linecap="round" stroke-linejoin="round"/>
<path d="M51.0415 34.416C54.4242 34.416 57.1665 31.6738 57.1665 28.291C57.1665 24.9083 54.4242 22.166 51.0415 22.166C47.6588 22.166 44.9165 24.9083 44.9165 28.291C44.9165 31.6738 47.6588 34.416 51.0415 34.416Z" stroke="#307EED" stroke-width="2.5" stroke-linecap="round" stroke-linejoin="round"/>
<path d="M18.9583 27.125V56.875" stroke="#307EED" stroke-width="2.5" stroke-linecap="round" stroke-linejoin="round"/>
<path d="M18.9583 12.834V15.1673" stroke="#307EED" stroke-width="2.5" stroke-linecap="round" stroke-linejoin="round"/>
<path d="M35.292 52.791V56.8743" stroke="#307EED" stroke-width="2.5" stroke-linecap="round" stroke-linejoin="round"/>
<path d="M35.292 12.834V40.5423" stroke="#307EED" stroke-width="2.5" stroke-linecap="round" stroke-linejoin="round"/>
</svg>
