<svg width="67" height="70" viewBox="0 0 67 70" fill="none" xmlns="http://www.w3.org/2000/svg">
<g clip-path="url(#clip0)">
<path d="M25.132 35.7777V11.6179C25.132 8.94434 27.3195 6.75684 29.9931 6.75684H50.9445C53.6181 6.75684 55.8056 8.94434 55.8056 11.6179V13.4166" stroke="#307EED" stroke-width="2.5" stroke-miterlimit="10" stroke-linecap="round"/>
<path d="M55.8056 36.7012V64.1664C55.8056 66.8401 53.6181 69.0276 50.9445 69.0276H29.9931C27.3195 69.0276 25.132 66.8401 25.132 64.1664V62.6109" stroke="#307EED" stroke-width="2.5" stroke-miterlimit="10" stroke-linecap="round"/>
<path d="M33.7847 7.53516V8.6046C33.7847 9.62543 34.6597 10.5004 35.6805 10.5004H45.1597C46.1805 10.5004 47.0555 9.62543 47.0555 8.6046V7.53516" stroke="#307EED" stroke-width="2" stroke-miterlimit="10"/>
<path d="M47.0699 25.6965L51.5517 27.4118V29.2377L45.1886 26.4158V24.9772L51.5517 22.1553V23.9812L47.0699 25.6965Z" fill="#307EED"/>
<path d="M54.0969 31.4513H52.6583L57.0295 19.4443H58.4681L54.0969 31.4513Z" fill="#307EED"/>
<path d="M64.444 25.6418L59.7408 23.9265V22.1006L66.3253 24.9225V26.3611L59.7408 29.183V27.3571L64.444 25.6418Z" fill="#307EED"/>
<path d="M33.2517 50.5182L31.2755 51.193C31.1791 51.434 31.0827 51.7232 30.9381 51.9642L31.8539 53.844C31.9021 53.9404 31.9021 54.085 31.8057 54.1814L30.0705 55.9166C29.9741 56.013 29.8295 56.013 29.7331 55.9648L27.8532 55.049C27.6122 55.1936 27.323 55.29 27.082 55.3864L26.4072 57.3626C26.359 57.5073 26.2626 57.5554 26.118 57.5554H23.6598C23.5152 57.5554 23.4188 57.4591 23.3706 57.3626L22.6958 55.3864C22.4548 55.29 22.1656 55.1936 21.9246 55.049L20.0448 55.9648C19.9484 56.013 19.8038 56.013 19.7074 55.9166L17.9722 54.1814C17.8758 54.085 17.8758 53.9404 17.924 53.844L18.8398 51.9642C18.6952 51.7232 18.5988 51.434 18.5024 51.193L16.5262 50.5182C16.3816 50.47 16.3334 50.3736 16.3334 50.229V47.7708C16.3334 47.6262 16.4298 47.5298 16.5262 47.4816L18.5024 46.8068C18.5988 46.5658 18.6952 46.2766 18.8398 46.0356L17.8758 44.1558C17.8276 44.0112 17.8758 43.8666 17.924 43.7702L19.6592 42.0349C19.7556 41.9867 19.9002 41.9385 20.0448 41.9867L21.9246 42.9026C22.1656 42.8062 22.4548 42.7098 22.6958 42.6134L23.3706 40.6371C23.4188 40.4925 23.5152 40.4443 23.6598 40.4443H26.118C26.2626 40.4443 26.359 40.5407 26.4072 40.6371L27.082 42.6134C27.323 42.7098 27.6122 42.8062 27.8532 42.9508L29.7331 42.0349C29.8295 41.9867 29.9741 41.9867 30.0705 42.0831L31.8057 43.8184C31.9021 43.9148 31.9021 44.0594 31.8539 44.1558L30.9381 46.0356C31.0827 46.2766 31.1791 46.5658 31.2755 46.8068L33.2517 47.4816C33.3963 47.5298 33.4445 47.6262 33.4445 47.7708V50.229C33.4445 50.3254 33.3481 50.47 33.2517 50.5182ZM24.8648 52.0124C23.1778 52.0124 21.8282 50.6628 21.8282 48.9758C21.8282 47.2888 23.1778 45.9392 24.8648 45.9392C26.5518 45.9392 27.9014 47.2888 27.9014 48.9758C27.9014 50.6628 26.5518 52.0124 24.8648 52.0124Z" stroke="#307EED" stroke-width="2" stroke-miterlimit="10"/>
<path d="M31.5 20.2227H41.1736" stroke="#307EED" stroke-width="2" stroke-miterlimit="10" stroke-linecap="round"/>
<path d="M31.8889 28L41.2222 28" stroke="#307EED" stroke-width="2" stroke-miterlimit="10" stroke-linecap="round"/>
<path d="M31.8889 35.7773L41.2222 35.7773" stroke="#307EED" stroke-width="2" stroke-miterlimit="10" stroke-linecap="round"/>
<path d="M38.8889 43.5557H49" stroke="#307EED" stroke-width="2" stroke-miterlimit="10" stroke-linecap="round"/>
<path d="M38.8889 52.1113H49" stroke="#307EED" stroke-width="2" stroke-miterlimit="10" stroke-linecap="round"/>
<path d="M38.8889 60.667H49" stroke="#307EED" stroke-width="2" stroke-miterlimit="10" stroke-linecap="round"/>
<path d="M1.50696 56.535V5.5906C1.50696 2.91699 3.69446 0.729492 6.36807 0.729492H27.3195C29.9931 0.729492 32.1806 2.91699 32.1806 5.5906" stroke="#307EED" stroke-width="2.5" stroke-miterlimit="10" stroke-linecap="round"/>
<path d="M25.132 62.611H6.36807C3.69446 62.611 1.50696 60.4235 1.50696 57.7499V56.1943" stroke="#307EED" stroke-width="2" stroke-miterlimit="10" stroke-linecap="round"/>
<path d="M10.1597 1.50684V2.57628C10.1597 3.59711 11.0347 4.47211 12.0555 4.47211H21.5347C22.5555 4.47211 23.4305 3.59711 23.4305 2.57628V1.50684" stroke="#307EED" stroke-width="2" stroke-miterlimit="10" stroke-linecap="round"/>
<path d="M7.77783 12.4443L19.4445 12.4443" stroke="#307EED" stroke-width="2" stroke-miterlimit="10" stroke-linecap="round"/>
<path d="M7.77783 20.2227L19.4445 20.2227" stroke="#307EED" stroke-width="2" stroke-miterlimit="10" stroke-linecap="round"/>
<path d="M7.77783 28L19.4445 28" stroke="#307EED" stroke-width="2" stroke-miterlimit="10" stroke-linecap="round"/>
<path d="M7.77783 35.7773L19.4445 35.7773" stroke="#307EED" stroke-width="2" stroke-miterlimit="10" stroke-linecap="round"/>
<path d="M7.77783 43.5557L10.8889 43.5557" stroke="#307EED" stroke-width="2" stroke-miterlimit="10" stroke-linecap="round"/>
<path d="M7.77783 51.333L10.8889 51.333" stroke="#307EED" stroke-width="2" stroke-miterlimit="10" stroke-linecap="round"/>
</g>
<defs>
<clipPath id="clip0">
<rect width="66.1111" height="70" fill="white"/>
</clipPath>
</defs>
</svg>
