<svg width="556" height="218" viewBox="0 0 556 218" fill="none" xmlns="http://www.w3.org/2000/svg">
<path d="M221.886 184.912C221.886 185.488 221.742 186.021 221.454 186.512C221.166 186.992 220.739 187.381 220.174 187.68C219.608 187.968 218.92 188.112 218.11 188.112C217.31 188.112 216.595 187.979 215.966 187.712C215.336 187.435 214.83 187.04 214.446 186.528C214.072 186.016 213.859 185.419 213.806 184.736H216.206C216.259 185.195 216.44 185.579 216.75 185.888C217.07 186.187 217.491 186.336 218.014 186.336C218.483 186.336 218.84 186.213 219.086 185.968C219.342 185.712 219.47 185.387 219.47 184.992C219.47 184.64 219.368 184.352 219.166 184.128C218.963 183.893 218.707 183.707 218.398 183.568C218.088 183.429 217.662 183.269 217.118 183.088C216.414 182.853 215.838 182.624 215.39 182.4C214.942 182.165 214.558 181.829 214.238 181.392C213.928 180.955 213.774 180.384 213.774 179.68C213.774 178.709 214.12 177.947 214.814 177.392C215.518 176.827 216.446 176.544 217.598 176.544C218.792 176.544 219.742 176.832 220.446 177.408C221.16 177.984 221.566 178.752 221.662 179.712H219.23C219.166 179.307 218.995 178.976 218.718 178.72C218.44 178.453 218.062 178.32 217.582 178.32C217.166 178.32 216.83 178.432 216.574 178.656C216.318 178.869 216.19 179.184 216.19 179.6C216.19 179.931 216.286 180.208 216.478 180.432C216.68 180.645 216.931 180.821 217.23 180.96C217.539 181.099 217.955 181.253 218.478 181.424C219.203 181.68 219.79 181.92 220.238 182.144C220.696 182.368 221.086 182.704 221.406 183.152C221.726 183.6 221.886 184.187 221.886 184.912ZM227.643 179.024C228.507 179.024 229.281 179.205 229.963 179.568C230.657 179.931 231.201 180.459 231.595 181.152C231.99 181.835 232.187 182.64 232.187 183.568C232.187 184.496 231.99 185.301 231.595 185.984C231.201 186.667 230.657 187.195 229.963 187.568C229.281 187.931 228.507 188.112 227.643 188.112C226.779 188.112 226.001 187.931 225.307 187.568C224.625 187.195 224.086 186.667 223.691 185.984C223.297 185.301 223.099 184.496 223.099 183.568C223.099 182.64 223.297 181.835 223.691 181.152C224.086 180.459 224.625 179.931 225.307 179.568C226.001 179.205 226.779 179.024 227.643 179.024ZM227.643 180.976C227.014 180.976 226.481 181.2 226.043 181.648C225.606 182.085 225.387 182.725 225.387 183.568C225.387 184.411 225.606 185.056 226.043 185.504C226.481 185.941 227.014 186.16 227.643 186.16C228.273 186.16 228.806 185.941 229.243 185.504C229.681 185.056 229.899 184.411 229.899 183.568C229.899 182.725 229.681 182.085 229.243 181.648C228.806 181.2 228.273 180.976 227.643 180.976ZM236.038 176.16V188H233.782V176.16H236.038ZM246.559 179.136V188H244.303V186.208C244.068 186.805 243.679 187.275 243.135 187.616C242.601 187.947 241.983 188.112 241.279 188.112C240.255 188.112 239.439 187.776 238.831 187.104C238.223 186.432 237.919 185.493 237.919 184.288V179.136H240.159V184.032C240.159 184.736 240.34 185.285 240.703 185.68C241.065 186.064 241.556 186.256 242.175 186.256C242.825 186.256 243.343 186.048 243.727 185.632C244.111 185.216 244.303 184.619 244.303 183.84V179.136H246.559ZM253.346 186.064V188H252.162C251.17 188 250.407 187.76 249.874 187.28C249.351 186.8 249.09 186 249.09 184.88V181.04H247.858V179.136H249.09V176.944H251.346V179.136H253.33V181.04H251.346V184.912C251.346 185.339 251.431 185.637 251.602 185.808C251.773 185.979 252.061 186.064 252.466 186.064H253.346ZM254.713 176.592C254.713 176.229 254.841 175.936 255.097 175.712C255.353 175.477 255.689 175.36 256.105 175.36C256.521 175.36 256.857 175.477 257.113 175.712C257.369 175.936 257.497 176.229 257.497 176.592C257.497 176.944 257.369 177.237 257.113 177.472C256.857 177.696 256.521 177.808 256.105 177.808C255.689 177.808 255.353 177.696 255.097 177.472C254.841 177.237 254.713 176.944 254.713 176.592ZM257.225 179.136V188H254.969V179.136H257.225ZM263.362 179.024C264.226 179.024 265 179.205 265.682 179.568C266.376 179.931 266.92 180.459 267.314 181.152C267.709 181.835 267.906 182.64 267.906 183.568C267.906 184.496 267.709 185.301 267.314 185.984C266.92 186.667 266.376 187.195 265.682 187.568C265 187.931 264.226 188.112 263.362 188.112C262.498 188.112 261.72 187.931 261.026 187.568C260.344 187.195 259.805 186.667 259.41 185.984C259.016 185.301 258.818 184.496 258.818 183.568C258.818 182.64 259.016 181.835 259.41 181.152C259.805 180.459 260.344 179.931 261.026 179.568C261.72 179.205 262.498 179.024 263.362 179.024ZM263.362 180.976C262.733 180.976 262.2 181.2 261.762 181.648C261.325 182.085 261.106 182.725 261.106 183.568C261.106 184.411 261.325 185.056 261.762 185.504C262.2 185.941 262.733 186.16 263.362 186.16C263.992 186.16 264.525 185.941 264.962 185.504C265.4 185.056 265.618 184.411 265.618 183.568C265.618 182.725 265.4 182.085 264.962 181.648C264.525 181.2 263.992 180.976 263.362 180.976ZM274.781 179.008C275.805 179.008 276.621 179.344 277.229 180.016C277.837 180.688 278.141 181.632 278.141 182.848V188H275.901V183.104C275.901 182.4 275.719 181.856 275.357 181.472C274.994 181.077 274.498 180.88 273.869 180.88C273.229 180.88 272.717 181.088 272.333 181.504C271.949 181.92 271.757 182.517 271.757 183.296V188H269.501V179.136H271.757V180.912C271.991 180.315 272.375 179.851 272.909 179.52C273.453 179.179 274.077 179.008 274.781 179.008ZM287.594 179.024C288.735 179.024 289.685 179.333 290.442 179.952C291.21 180.571 291.69 181.413 291.882 182.48H289.498C289.402 182.011 289.183 181.643 288.842 181.376C288.501 181.099 288.069 180.96 287.546 180.96C286.949 180.96 286.447 181.184 286.042 181.632C285.647 182.069 285.45 182.715 285.45 183.568C285.45 184.421 285.647 185.072 286.042 185.52C286.447 185.957 286.949 186.176 287.546 186.176C288.069 186.176 288.501 186.043 288.842 185.776C289.183 185.499 289.402 185.125 289.498 184.656H291.882C291.69 185.723 291.21 186.565 290.442 187.184C289.685 187.803 288.735 188.112 287.594 188.112C286.73 188.112 285.962 187.931 285.29 187.568C284.618 187.195 284.095 186.667 283.722 185.984C283.349 185.301 283.162 184.496 283.162 183.568C283.162 182.64 283.349 181.835 283.722 181.152C284.095 180.459 284.618 179.931 285.29 179.568C285.962 179.205 286.73 179.024 287.594 179.024ZM297.581 179.024C298.445 179.024 299.218 179.205 299.901 179.568C300.594 179.931 301.138 180.459 301.533 181.152C301.928 181.835 302.125 182.64 302.125 183.568C302.125 184.496 301.928 185.301 301.533 185.984C301.138 186.667 300.594 187.195 299.901 187.568C299.218 187.931 298.445 188.112 297.581 188.112C296.717 188.112 295.938 187.931 295.245 187.568C294.562 187.195 294.024 186.667 293.629 185.984C293.234 185.301 293.037 184.496 293.037 183.568C293.037 182.64 293.234 181.835 293.629 181.152C294.024 180.459 294.562 179.931 295.245 179.568C295.938 179.205 296.717 179.024 297.581 179.024ZM297.581 180.976C296.952 180.976 296.418 181.2 295.981 181.648C295.544 182.085 295.325 182.725 295.325 183.568C295.325 184.411 295.544 185.056 295.981 185.504C296.418 185.941 296.952 186.16 297.581 186.16C298.21 186.16 298.744 185.941 299.181 185.504C299.618 185.056 299.837 184.411 299.837 183.568C299.837 182.725 299.618 182.085 299.181 181.648C298.744 181.2 298.21 180.976 297.581 180.976ZM308.999 179.008C310.023 179.008 310.839 179.344 311.447 180.016C312.055 180.688 312.359 181.632 312.359 182.848V188H310.119V183.104C310.119 182.4 309.938 181.856 309.575 181.472C309.213 181.077 308.717 180.88 308.087 180.88C307.447 180.88 306.935 181.088 306.551 181.504C306.167 181.92 305.975 182.517 305.975 183.296V188H303.719V179.136H305.975V180.912C306.21 180.315 306.594 179.851 307.127 179.52C307.671 179.179 308.295 179.008 308.999 179.008ZM317.4 179.024C318.478 179.024 319.342 179.296 319.992 179.84C320.643 180.384 321.048 181.109 321.208 182.016H319.096C319.011 181.589 318.819 181.248 318.52 180.992C318.222 180.736 317.832 180.608 317.352 180.608C316.968 180.608 316.67 180.699 316.456 180.88C316.243 181.061 316.136 181.307 316.136 181.616C316.136 181.861 316.222 182.059 316.392 182.208C316.563 182.357 316.776 182.475 317.032 182.56C317.288 182.645 317.656 182.747 318.136 182.864C318.808 183.013 319.352 183.173 319.768 183.344C320.195 183.504 320.558 183.765 320.856 184.128C321.166 184.48 321.32 184.96 321.32 185.568C321.32 186.325 321.022 186.939 320.424 187.408C319.838 187.877 319.043 188.112 318.04 188.112C316.888 188.112 315.966 187.856 315.272 187.344C314.579 186.821 314.158 186.08 314.008 185.12H316.168C316.222 185.557 316.414 185.904 316.744 186.16C317.075 186.405 317.507 186.528 318.04 186.528C318.424 186.528 318.718 186.437 318.92 186.256C319.123 186.064 319.224 185.819 319.224 185.52C319.224 185.264 319.134 185.056 318.952 184.896C318.782 184.736 318.563 184.613 318.296 184.528C318.04 184.443 317.672 184.341 317.192 184.224C316.531 184.075 315.992 183.925 315.576 183.776C315.171 183.616 314.819 183.365 314.52 183.024C314.232 182.683 314.088 182.213 314.088 181.616C314.088 180.848 314.382 180.224 314.968 179.744C315.555 179.264 316.366 179.024 317.4 179.024ZM331.481 179.136V188H329.225V186.208C328.99 186.805 328.601 187.275 328.057 187.616C327.523 187.947 326.905 188.112 326.201 188.112C325.177 188.112 324.361 187.776 323.753 187.104C323.145 186.432 322.841 185.493 322.841 184.288V179.136H325.081V184.032C325.081 184.736 325.262 185.285 325.625 185.68C325.987 186.064 326.478 186.256 327.097 186.256C327.747 186.256 328.265 186.048 328.649 185.632C329.033 185.216 329.225 184.619 329.225 183.84V179.136H331.481ZM335.788 176.16V188H333.532V176.16H335.788ZM342.565 186.064V188H341.381C340.389 188 339.626 187.76 339.093 187.28C338.57 186.8 338.309 186 338.309 184.88V181.04H337.077V179.136H338.309V176.944H340.565V179.136H342.549V181.04H340.565V184.912C340.565 185.339 340.65 185.637 340.821 185.808C340.991 185.979 341.279 186.064 341.685 186.064H342.565ZM343.932 176.592C343.932 176.229 344.06 175.936 344.316 175.712C344.572 175.477 344.908 175.36 345.324 175.36C345.74 175.36 346.076 175.477 346.332 175.712C346.588 175.936 346.716 176.229 346.716 176.592C346.716 176.944 346.588 177.237 346.332 177.472C346.076 177.696 345.74 177.808 345.324 177.808C344.908 177.808 344.572 177.696 344.316 177.472C344.06 177.237 343.932 176.944 343.932 176.592ZM346.444 179.136V188H344.188V179.136H346.444ZM353.765 179.008C354.789 179.008 355.605 179.344 356.213 180.016C356.821 180.688 357.125 181.632 357.125 182.848V188H354.885V183.104C354.885 182.4 354.704 181.856 354.341 181.472C353.978 181.077 353.482 180.88 352.853 180.88C352.213 180.88 351.701 181.088 351.317 181.504C350.933 181.92 350.741 182.517 350.741 183.296V188H348.485V179.136H350.741V180.912C350.976 180.315 351.36 179.851 351.893 179.52C352.437 179.179 353.061 179.008 353.765 179.008ZM362.582 179.024C363.329 179.024 363.969 179.2 364.502 179.552C365.035 179.904 365.414 180.379 365.638 180.976V179.136H367.878V188.032C367.878 188.853 367.713 189.589 367.382 190.24C367.062 190.901 366.577 191.419 365.926 191.792C365.286 192.165 364.507 192.352 363.59 192.352C362.31 192.352 361.275 192.048 360.486 191.44C359.697 190.832 359.217 190.005 359.046 188.96H361.27C361.398 189.408 361.643 189.755 362.006 190C362.379 190.256 362.854 190.384 363.43 190.384C364.091 190.384 364.625 190.187 365.03 189.792C365.435 189.408 365.638 188.821 365.638 188.032V186.144C365.414 186.741 365.035 187.221 364.502 187.584C363.969 187.936 363.329 188.112 362.582 188.112C361.835 188.112 361.163 187.931 360.566 187.568C359.969 187.205 359.499 186.683 359.158 186C358.827 185.307 358.662 184.496 358.662 183.568C358.662 182.64 358.827 181.835 359.158 181.152C359.499 180.459 359.969 179.931 360.566 179.568C361.163 179.205 361.835 179.024 362.582 179.024ZM363.286 180.992C362.582 180.992 362.017 181.221 361.59 181.68C361.163 182.139 360.95 182.768 360.95 183.568C360.95 184.368 361.163 184.997 361.59 185.456C362.017 185.904 362.582 186.128 363.286 186.128C363.969 186.128 364.529 185.899 364.966 185.44C365.414 184.971 365.638 184.347 365.638 183.568C365.638 182.779 365.414 182.155 364.966 181.696C364.529 181.227 363.969 180.992 363.286 180.992ZM237.704 212L235.976 209.984C235.89 210.197 235.816 210.363 235.752 210.48C235.56 210.971 235.224 211.365 234.744 211.664C234.264 211.963 233.704 212.112 233.064 212.112C232.349 212.112 231.72 211.963 231.176 211.664C230.642 211.365 230.232 210.96 229.944 210.448C229.656 209.925 229.512 209.333 229.512 208.672C229.512 208.021 229.634 207.451 229.88 206.96C230.136 206.469 230.477 206.091 230.904 205.824C231.341 205.547 231.826 205.397 232.36 205.376L232.168 205.088C231.954 204.789 231.789 204.496 231.672 204.208C231.554 203.909 231.496 203.579 231.496 203.216C231.496 202.757 231.613 202.331 231.848 201.936C232.093 201.531 232.45 201.205 232.92 200.96C233.4 200.715 233.97 200.592 234.632 200.592C235.581 200.592 236.312 200.805 236.824 201.232C237.346 201.659 237.682 202.208 237.832 202.88C237.938 203.2 237.992 203.541 237.992 203.904L237.976 204.208H235.88C235.88 203.941 235.869 203.76 235.848 203.664C235.837 203.28 235.73 202.987 235.528 202.784C235.325 202.571 235.042 202.464 234.68 202.464C234.349 202.464 234.088 202.56 233.896 202.752C233.704 202.944 233.608 203.179 233.608 203.456C233.608 203.701 233.656 203.915 233.752 204.096C233.848 204.277 234.008 204.501 234.232 204.768L239.976 212H237.704ZM233.08 210.224C233.538 210.224 233.912 210.085 234.2 209.808C234.498 209.52 234.648 209.152 234.648 208.704C234.648 208.235 234.477 207.845 234.136 207.536C233.805 207.227 233.41 207.072 232.952 207.072C232.514 207.072 232.152 207.205 231.864 207.472C231.586 207.739 231.448 208.117 231.448 208.608C231.448 209.099 231.602 209.493 231.912 209.792C232.232 210.08 232.621 210.224 233.08 210.224ZM248.027 203.024C248.774 203.024 249.409 203.2 249.931 203.552C250.465 203.904 250.849 204.379 251.083 204.976V200.16H253.323V212H251.083V210.144C250.849 210.741 250.465 211.221 249.931 211.584C249.409 211.936 248.774 212.112 248.027 212.112C247.281 212.112 246.609 211.931 246.011 211.568C245.414 211.205 244.945 210.683 244.603 210C244.273 209.307 244.107 208.496 244.107 207.568C244.107 206.64 244.273 205.835 244.603 205.152C244.945 204.459 245.414 203.931 246.011 203.568C246.609 203.205 247.281 203.024 248.027 203.024ZM248.731 204.992C248.027 204.992 247.462 205.221 247.035 205.68C246.609 206.139 246.395 206.768 246.395 207.568C246.395 208.368 246.609 208.997 247.035 209.456C247.462 209.904 248.027 210.128 248.731 210.128C249.414 210.128 249.974 209.899 250.411 209.44C250.859 208.971 251.083 208.347 251.083 207.568C251.083 206.779 250.859 206.155 250.411 205.696C249.974 205.227 249.414 204.992 248.731 204.992ZM263.704 207.232C263.704 207.456 263.677 207.712 263.624 208H257.128C257.16 208.789 257.373 209.371 257.768 209.744C258.162 210.117 258.653 210.304 259.24 210.304C259.762 210.304 260.194 210.176 260.536 209.92C260.888 209.664 261.112 209.317 261.208 208.88H263.592C263.474 209.499 263.224 210.053 262.84 210.544C262.456 211.035 261.96 211.419 261.352 211.696C260.754 211.973 260.088 212.112 259.352 212.112C258.488 212.112 257.72 211.931 257.048 211.568C256.376 211.195 255.853 210.667 255.48 209.984C255.106 209.301 254.92 208.496 254.92 207.568C254.92 206.64 255.106 205.835 255.48 205.152C255.853 204.459 256.376 203.931 257.048 203.568C257.72 203.205 258.488 203.024 259.352 203.024C260.226 203.024 260.989 203.205 261.64 203.568C262.301 203.931 262.808 204.432 263.16 205.072C263.522 205.701 263.704 206.421 263.704 207.232ZM261.432 207.008C261.464 206.283 261.272 205.733 260.856 205.36C260.45 204.987 259.949 204.8 259.352 204.8C258.744 204.8 258.232 204.987 257.816 205.36C257.4 205.733 257.17 206.283 257.128 207.008H261.432ZM269.161 209.744L271.401 203.136H273.801L270.521 212H267.769L264.489 203.136H266.905L269.161 209.744ZM283.391 207.232C283.391 207.456 283.365 207.712 283.311 208H276.815C276.847 208.789 277.061 209.371 277.455 209.744C277.85 210.117 278.341 210.304 278.927 210.304C279.45 210.304 279.882 210.176 280.223 209.92C280.575 209.664 280.799 209.317 280.895 208.88H283.279C283.162 209.499 282.911 210.053 282.527 210.544C282.143 211.035 281.647 211.419 281.039 211.696C280.442 211.973 279.775 212.112 279.039 212.112C278.175 212.112 277.407 211.931 276.735 211.568C276.063 211.195 275.541 210.667 275.167 209.984C274.794 209.301 274.607 208.496 274.607 207.568C274.607 206.64 274.794 205.835 275.167 205.152C275.541 204.459 276.063 203.931 276.735 203.568C277.407 203.205 278.175 203.024 279.039 203.024C279.914 203.024 280.677 203.205 281.327 203.568C281.989 203.931 282.495 204.432 282.847 205.072C283.21 205.701 283.391 206.421 283.391 207.232ZM281.119 207.008C281.151 206.283 280.959 205.733 280.543 205.36C280.138 204.987 279.637 204.8 279.039 204.8C278.431 204.8 277.919 204.987 277.503 205.36C277.087 205.733 276.858 206.283 276.815 207.008H281.119ZM287.249 200.16V212H284.993V200.16H287.249ZM293.386 203.024C294.25 203.024 295.023 203.205 295.706 203.568C296.399 203.931 296.943 204.459 297.338 205.152C297.732 205.835 297.93 206.64 297.93 207.568C297.93 208.496 297.732 209.301 297.338 209.984C296.943 210.667 296.399 211.195 295.706 211.568C295.023 211.931 294.25 212.112 293.386 212.112C292.522 212.112 291.743 211.931 291.05 211.568C290.367 211.195 289.828 210.667 289.434 209.984C289.039 209.301 288.842 208.496 288.842 207.568C288.842 206.64 289.039 205.835 289.434 205.152C289.828 204.459 290.367 203.931 291.05 203.568C291.743 203.205 292.522 203.024 293.386 203.024ZM293.386 204.976C292.756 204.976 292.223 205.2 291.786 205.648C291.348 206.085 291.13 206.725 291.13 207.568C291.13 208.411 291.348 209.056 291.786 209.504C292.223 209.941 292.756 210.16 293.386 210.16C294.015 210.16 294.548 209.941 294.986 209.504C295.423 209.056 295.642 208.411 295.642 207.568C295.642 206.725 295.423 206.085 294.986 205.648C294.548 205.2 294.015 204.976 293.386 204.976ZM304.82 203.024C305.567 203.024 306.239 203.205 306.836 203.568C307.433 203.931 307.897 204.459 308.228 205.152C308.569 205.835 308.74 206.64 308.74 207.568C308.74 208.496 308.569 209.307 308.228 210C307.897 210.683 307.433 211.205 306.836 211.568C306.239 211.931 305.567 212.112 304.82 212.112C304.073 212.112 303.433 211.936 302.9 211.584C302.377 211.221 302.004 210.741 301.78 210.144V216.224H299.524V203.136H301.78V204.976C302.004 204.379 302.377 203.904 302.9 203.552C303.433 203.2 304.073 203.024 304.82 203.024ZM304.116 204.992C303.433 204.992 302.868 205.227 302.42 205.696C301.983 206.155 301.764 206.779 301.764 207.568C301.764 208.347 301.983 208.971 302.42 209.44C302.868 209.899 303.433 210.128 304.116 210.128C304.82 210.128 305.385 209.904 305.812 209.456C306.239 208.997 306.452 208.368 306.452 207.568C306.452 206.768 306.239 206.139 305.812 205.68C305.385 205.221 304.82 204.992 304.116 204.992ZM321.617 203.008C322.694 203.008 323.542 203.344 324.161 204.016C324.79 204.677 325.105 205.621 325.105 206.848V212H322.865V207.104C322.865 206.421 322.689 205.899 322.337 205.536C321.995 205.163 321.521 204.976 320.913 204.976C320.283 204.976 319.782 205.173 319.409 205.568C319.035 205.963 318.849 206.539 318.849 207.296V212H316.609V207.104C316.609 206.421 316.433 205.899 316.081 205.536C315.739 205.163 315.265 204.976 314.657 204.976C314.027 204.976 313.526 205.173 313.153 205.568C312.779 205.963 312.593 206.539 312.593 207.296V212H310.337V203.136H312.593V204.816C312.827 204.24 313.195 203.797 313.697 203.488C314.209 203.168 314.801 203.008 315.473 203.008C316.187 203.008 316.806 203.179 317.329 203.52C317.862 203.861 318.262 204.352 318.529 204.992C318.806 204.384 319.217 203.904 319.761 203.552C320.315 203.189 320.934 203.008 321.617 203.008ZM335.423 207.232C335.423 207.456 335.396 207.712 335.343 208H328.847C328.879 208.789 329.092 209.371 329.487 209.744C329.881 210.117 330.372 210.304 330.959 210.304C331.481 210.304 331.913 210.176 332.255 209.92C332.607 209.664 332.831 209.317 332.927 208.88H335.311C335.193 209.499 334.943 210.053 334.559 210.544C334.175 211.035 333.679 211.419 333.071 211.696C332.473 211.973 331.807 212.112 331.071 212.112C330.207 212.112 329.439 211.931 328.767 211.568C328.095 211.195 327.572 210.667 327.199 209.984C326.825 209.301 326.639 208.496 326.639 207.568C326.639 206.64 326.825 205.835 327.199 205.152C327.572 204.459 328.095 203.931 328.767 203.568C329.439 203.205 330.207 203.024 331.071 203.024C331.945 203.024 332.708 203.205 333.359 203.568C334.02 203.931 334.527 204.432 334.878 205.072C335.241 205.701 335.423 206.421 335.423 207.232ZM333.151 207.008C333.183 206.283 332.991 205.733 332.575 205.36C332.169 204.987 331.668 204.8 331.071 204.8C330.463 204.8 329.951 204.987 329.535 205.36C329.119 205.733 328.889 206.283 328.847 207.008H333.151ZM342.304 203.008C343.328 203.008 344.144 203.344 344.752 204.016C345.36 204.688 345.664 205.632 345.664 206.848V212H343.424V207.104C343.424 206.4 343.243 205.856 342.88 205.472C342.517 205.077 342.021 204.88 341.392 204.88C340.752 204.88 340.24 205.088 339.856 205.504C339.472 205.92 339.28 206.517 339.28 207.296V212H337.024V203.136H339.28V204.912C339.515 204.315 339.899 203.851 340.432 203.52C340.976 203.179 341.6 203.008 342.304 203.008ZM352.385 210.064V212H351.201C350.209 212 349.446 211.76 348.913 211.28C348.39 210.8 348.129 210 348.129 208.88V205.04H346.897V203.136H348.129V200.944H350.385V203.136H352.369V205.04H350.385V208.912C350.385 209.339 350.47 209.637 350.641 209.808C350.812 209.979 351.1 210.064 351.505 210.064H352.385Z" fill="#181818"/>
<path d="M291 148.438C295.108 148.438 298.438 145.108 298.438 141C298.438 136.892 295.108 133.562 291 133.562C286.892 133.562 283.562 136.892 283.562 141C283.562 145.108 286.892 148.438 291 148.438Z" stroke="#307EED" stroke-width="2" stroke-miterlimit="10"/>
<path d="M291 121.729V128.998" stroke="#307EED" stroke-width="2" stroke-miterlimit="10" stroke-linecap="round"/>
<path d="M277.365 127.364L282.492 132.492" stroke="#307EED" stroke-width="2" stroke-miterlimit="10" stroke-linecap="round"/>
<path d="M271.73 141H278.998" stroke="#307EED" stroke-width="2" stroke-miterlimit="10" stroke-linecap="round"/>
<path d="M277.365 154.636L282.492 149.509" stroke="#307EED" stroke-width="2" stroke-miterlimit="10" stroke-linecap="round"/>
<path d="M291 160.27V153.002" stroke="#307EED" stroke-width="2" stroke-miterlimit="10" stroke-linecap="round"/>
<path d="M304.635 154.636L299.508 149.509" stroke="#307EED" stroke-width="2" stroke-miterlimit="10" stroke-linecap="round"/>
<path d="M310.27 141H303.001" stroke="#307EED" stroke-width="2" stroke-miterlimit="10" stroke-linecap="round"/>
<path d="M304.635 127.364L299.508 132.492" stroke="#307EED" stroke-width="2" stroke-miterlimit="10" stroke-linecap="round"/>
<path d="M449.062 182.336C449.062 183.456 448.827 184.443 448.358 185.296C447.888 186.149 447.206 186.816 446.31 187.296C445.424 187.765 444.368 188 443.142 188H439.126V176.704H443.142C444.368 176.704 445.424 176.939 446.31 177.408C447.206 177.867 447.888 178.523 448.358 179.376C448.827 180.219 449.062 181.205 449.062 182.336ZM442.95 185.984C444.166 185.984 445.104 185.664 445.766 185.024C446.438 184.384 446.774 183.488 446.774 182.336C446.774 181.173 446.438 180.272 445.766 179.632C445.104 178.992 444.166 178.672 442.95 178.672H441.382V185.984H442.95ZM452.271 179.136L454.687 185.152L456.927 179.136H459.407L453.983 192.224H451.487L453.487 187.744L449.759 179.136H452.271ZM465.749 179.008C466.773 179.008 467.589 179.344 468.197 180.016C468.805 180.688 469.109 181.632 469.109 182.848V188H466.869V183.104C466.869 182.4 466.688 181.856 466.325 181.472C465.963 181.077 465.467 180.88 464.837 180.88C464.197 180.88 463.685 181.088 463.301 181.504C462.917 181.92 462.725 182.517 462.725 183.296V188H460.469V179.136H462.725V180.912C462.96 180.315 463.344 179.851 463.877 179.52C464.421 179.179 465.045 179.008 465.749 179.008ZM474.566 179.024C475.313 179.024 475.953 179.2 476.486 179.552C477.02 179.904 477.398 180.379 477.622 180.976V179.136H479.862V188H477.622V186.144C477.398 186.741 477.02 187.221 476.486 187.584C475.953 187.936 475.313 188.112 474.566 188.112C473.82 188.112 473.148 187.931 472.55 187.568C471.953 187.205 471.484 186.683 471.142 186C470.812 185.307 470.646 184.496 470.646 183.568C470.646 182.64 470.812 181.835 471.142 181.152C471.484 180.459 471.953 179.931 472.55 179.568C473.148 179.205 473.82 179.024 474.566 179.024ZM475.27 180.992C474.566 180.992 474.001 181.221 473.574 181.68C473.148 182.139 472.934 182.768 472.934 183.568C472.934 184.368 473.148 184.997 473.574 185.456C474.001 185.904 474.566 186.128 475.27 186.128C475.953 186.128 476.513 185.899 476.95 185.44C477.398 184.971 477.622 184.347 477.622 183.568C477.622 182.779 477.398 182.155 476.95 181.696C476.513 181.227 475.953 180.992 475.27 180.992ZM493.187 179.008C494.264 179.008 495.112 179.344 495.731 180.016C496.36 180.677 496.675 181.621 496.675 182.848V188H494.435V183.104C494.435 182.421 494.259 181.899 493.907 181.536C493.565 181.163 493.091 180.976 492.483 180.976C491.853 180.976 491.352 181.173 490.979 181.568C490.605 181.963 490.419 182.539 490.419 183.296V188H488.179V183.104C488.179 182.421 488.003 181.899 487.651 181.536C487.309 181.163 486.835 180.976 486.227 180.976C485.597 180.976 485.096 181.173 484.723 181.568C484.349 181.963 484.163 182.539 484.163 183.296V188H481.907V179.136H484.163V180.816C484.397 180.24 484.765 179.797 485.267 179.488C485.779 179.168 486.371 179.008 487.043 179.008C487.757 179.008 488.376 179.179 488.899 179.52C489.432 179.861 489.832 180.352 490.099 180.992C490.376 180.384 490.787 179.904 491.331 179.552C491.885 179.189 492.504 179.008 493.187 179.008ZM498.401 176.592C498.401 176.229 498.529 175.936 498.785 175.712C499.041 175.477 499.377 175.36 499.793 175.36C500.209 175.36 500.545 175.477 500.801 175.712C501.057 175.936 501.185 176.229 501.185 176.592C501.185 176.944 501.057 177.237 500.801 177.472C500.545 177.696 500.209 177.808 499.793 177.808C499.377 177.808 499.041 177.696 498.785 177.472C498.529 177.237 498.401 176.944 498.401 176.592ZM500.913 179.136V188H498.657V179.136H500.913ZM506.938 179.024C508.079 179.024 509.028 179.333 509.786 179.952C510.554 180.571 511.034 181.413 511.226 182.48H508.842C508.746 182.011 508.527 181.643 508.186 181.376C507.844 181.099 507.412 180.96 506.89 180.96C506.292 180.96 505.791 181.184 505.386 181.632C504.991 182.069 504.794 182.715 504.794 183.568C504.794 184.421 504.991 185.072 505.386 185.52C505.791 185.957 506.292 186.176 506.89 186.176C507.412 186.176 507.844 186.043 508.186 185.776C508.527 185.499 508.746 185.125 508.842 184.656H511.226C511.034 185.723 510.554 186.565 509.786 187.184C509.028 187.803 508.079 188.112 506.938 188.112C506.074 188.112 505.306 187.931 504.634 187.568C503.962 187.195 503.439 186.667 503.066 185.984C502.692 185.301 502.506 184.496 502.506 183.568C502.506 182.64 502.692 181.835 503.066 181.152C503.439 180.459 503.962 179.931 504.634 179.568C505.306 179.205 506.074 179.024 506.938 179.024ZM523.193 185.728H518.665L517.865 188H515.481L519.641 176.832H522.217L526.361 188H523.977L523.193 185.728ZM522.585 184.016L520.921 179.248L519.257 184.016H522.585ZM531.051 179.024C531.797 179.024 532.437 179.2 532.971 179.552C533.504 179.904 533.883 180.379 534.107 180.976V179.136H536.347V188.032C536.347 188.853 536.181 189.589 535.851 190.24C535.531 190.901 535.045 191.419 534.395 191.792C533.755 192.165 532.976 192.352 532.059 192.352C530.779 192.352 529.744 192.048 528.955 191.44C528.165 190.832 527.685 190.005 527.515 188.96H529.739C529.867 189.408 530.112 189.755 530.475 190C530.848 190.256 531.323 190.384 531.899 190.384C532.56 190.384 533.093 190.187 533.499 189.792C533.904 189.408 534.107 188.821 534.107 188.032V186.144C533.883 186.741 533.504 187.221 532.971 187.584C532.437 187.936 531.797 188.112 531.051 188.112C530.304 188.112 529.632 187.931 529.035 187.568C528.437 187.205 527.968 186.683 527.627 186C527.296 185.307 527.131 184.496 527.131 183.568C527.131 182.64 527.296 181.835 527.627 181.152C527.968 180.459 528.437 179.931 529.035 179.568C529.632 179.205 530.304 179.024 531.051 179.024ZM531.755 180.992C531.051 180.992 530.485 181.221 530.059 181.68C529.632 182.139 529.419 182.768 529.419 183.568C529.419 184.368 529.632 184.997 530.059 185.456C530.485 185.904 531.051 186.128 531.755 186.128C532.437 186.128 532.997 185.899 533.435 185.44C533.883 184.971 534.107 184.347 534.107 183.568C534.107 182.779 533.883 182.155 533.435 181.696C532.997 181.227 532.437 180.992 531.755 180.992ZM538.135 176.592C538.135 176.229 538.263 175.936 538.519 175.712C538.775 175.477 539.111 175.36 539.527 175.36C539.943 175.36 540.279 175.477 540.535 175.712C540.791 175.936 540.919 176.229 540.919 176.592C540.919 176.944 540.791 177.237 540.535 177.472C540.279 177.696 539.943 177.808 539.527 177.808C539.111 177.808 538.775 177.696 538.519 177.472C538.263 177.237 538.135 176.944 538.135 176.592ZM540.647 179.136V188H538.391V179.136H540.647ZM544.944 176.16V188H542.688V176.16H544.944ZM555.321 183.232C555.321 183.456 555.294 183.712 555.241 184H548.745C548.777 184.789 548.99 185.371 549.385 185.744C549.78 186.117 550.27 186.304 550.857 186.304C551.38 186.304 551.812 186.176 552.153 185.92C552.505 185.664 552.729 185.317 552.825 184.88H555.209C555.092 185.499 554.841 186.053 554.457 186.544C554.073 187.035 553.577 187.419 552.969 187.696C552.372 187.973 551.705 188.112 550.969 188.112C550.105 188.112 549.337 187.931 548.665 187.568C547.993 187.195 547.47 186.667 547.097 185.984C546.724 185.301 546.537 184.496 546.537 183.568C546.537 182.64 546.724 181.835 547.097 181.152C547.47 180.459 547.993 179.931 548.665 179.568C549.337 179.205 550.105 179.024 550.969 179.024C551.844 179.024 552.606 179.205 553.257 179.568C553.918 179.931 554.425 180.432 554.777 181.072C555.14 181.701 555.321 182.421 555.321 183.232ZM553.049 183.008C553.081 182.283 552.889 181.733 552.473 181.36C552.068 180.987 551.566 180.8 550.969 180.8C550.361 180.8 549.849 180.987 549.433 181.36C549.017 181.733 548.788 182.283 548.745 183.008H553.049ZM450.456 203.024C451.32 203.024 452.093 203.205 452.776 203.568C453.469 203.931 454.013 204.459 454.408 205.152C454.803 205.835 455 206.64 455 207.568C455 208.496 454.803 209.301 454.408 209.984C454.013 210.667 453.469 211.195 452.776 211.568C452.093 211.931 451.32 212.112 450.456 212.112C449.592 212.112 448.813 211.931 448.12 211.568C447.437 211.195 446.899 210.667 446.504 209.984C446.109 209.301 445.912 208.496 445.912 207.568C445.912 206.64 446.109 205.835 446.504 205.152C446.899 204.459 447.437 203.931 448.12 203.568C448.813 203.205 449.592 203.024 450.456 203.024ZM450.456 204.976C449.827 204.976 449.293 205.2 448.856 205.648C448.419 206.085 448.2 206.725 448.2 207.568C448.2 208.411 448.419 209.056 448.856 209.504C449.293 209.941 449.827 210.16 450.456 210.16C451.085 210.16 451.619 209.941 452.056 209.504C452.493 209.056 452.712 208.411 452.712 207.568C452.712 206.725 452.493 206.085 452.056 205.648C451.619 205.2 451.085 204.976 450.456 204.976ZM458.85 204.832C459.181 204.267 459.618 203.824 460.162 203.504C460.706 203.173 461.314 203.008 461.986 203.008V205.424H461.33C459.677 205.424 458.85 206.192 458.85 207.728V212H456.594V203.136H458.85V204.832ZM466.707 203.024C467.454 203.024 468.094 203.2 468.627 203.552C469.16 203.904 469.539 204.379 469.763 204.976V203.136H472.003V212.032C472.003 212.853 471.838 213.589 471.507 214.24C471.187 214.901 470.702 215.419 470.051 215.792C469.411 216.165 468.632 216.352 467.715 216.352C466.435 216.352 465.4 216.048 464.611 215.44C463.822 214.832 463.342 214.005 463.171 212.96H465.395C465.523 213.408 465.768 213.755 466.131 214C466.504 214.256 466.979 214.384 467.555 214.384C468.216 214.384 468.75 214.187 469.155 213.792C469.56 213.408 469.763 212.821 469.763 212.032V210.144C469.539 210.741 469.16 211.221 468.627 211.584C468.094 211.936 467.454 212.112 466.707 212.112C465.96 212.112 465.288 211.931 464.691 211.568C464.094 211.205 463.624 210.683 463.283 210C462.952 209.307 462.787 208.496 462.787 207.568C462.787 206.64 462.952 205.835 463.283 205.152C463.624 204.459 464.094 203.931 464.691 203.568C465.288 203.205 465.96 203.024 466.707 203.024ZM467.411 204.992C466.707 204.992 466.142 205.221 465.715 205.68C465.288 206.139 465.075 206.768 465.075 207.568C465.075 208.368 465.288 208.997 465.715 209.456C466.142 209.904 466.707 210.128 467.411 210.128C468.094 210.128 468.654 209.899 469.091 209.44C469.539 208.971 469.763 208.347 469.763 207.568C469.763 206.779 469.539 206.155 469.091 205.696C468.654 205.227 468.094 204.992 467.411 204.992ZM477.519 203.024C478.266 203.024 478.906 203.2 479.439 203.552C479.973 203.904 480.351 204.379 480.575 204.976V203.136H482.815V212H480.575V210.144C480.351 210.741 479.973 211.221 479.439 211.584C478.906 211.936 478.266 212.112 477.519 212.112C476.773 212.112 476.101 211.931 475.503 211.568C474.906 211.205 474.437 210.683 474.095 210C473.765 209.307 473.599 208.496 473.599 207.568C473.599 206.64 473.765 205.835 474.095 205.152C474.437 204.459 474.906 203.931 475.503 203.568C476.101 203.205 476.773 203.024 477.519 203.024ZM478.223 204.992C477.519 204.992 476.954 205.221 476.527 205.68C476.101 206.139 475.887 206.768 475.887 207.568C475.887 208.368 476.101 208.997 476.527 209.456C476.954 209.904 477.519 210.128 478.223 210.128C478.906 210.128 479.466 209.899 479.903 209.44C480.351 208.971 480.575 208.347 480.575 207.568C480.575 206.779 480.351 206.155 479.903 205.696C479.466 205.227 478.906 204.992 478.223 204.992ZM490.14 203.008C491.164 203.008 491.98 203.344 492.588 204.016C493.196 204.688 493.5 205.632 493.5 206.848V212H491.26V207.104C491.26 206.4 491.079 205.856 490.716 205.472C490.353 205.077 489.857 204.88 489.228 204.88C488.588 204.88 488.076 205.088 487.692 205.504C487.308 205.92 487.116 206.517 487.116 207.296V212H484.86V203.136H487.116V204.912C487.351 204.315 487.735 203.851 488.268 203.52C488.812 203.179 489.436 203.008 490.14 203.008ZM495.229 200.592C495.229 200.229 495.357 199.936 495.613 199.712C495.869 199.477 496.205 199.36 496.621 199.36C497.037 199.36 497.373 199.477 497.629 199.712C497.885 199.936 498.013 200.229 498.013 200.592C498.013 200.944 497.885 201.237 497.629 201.472C497.373 201.696 497.037 201.808 496.621 201.808C496.205 201.808 495.869 201.696 495.613 201.472C495.357 201.237 495.229 200.944 495.229 200.592ZM497.741 203.136V212H495.485V203.136H497.741ZM501.606 210.112H505.958V212H499.142V210.208L503.222 205.008H499.238V203.136H505.798V204.912L501.606 210.112ZM510.832 203.024C511.579 203.024 512.219 203.2 512.752 203.552C513.285 203.904 513.664 204.379 513.888 204.976V203.136H516.128V212H513.888V210.144C513.664 210.741 513.285 211.221 512.752 211.584C512.219 211.936 511.579 212.112 510.832 212.112C510.085 212.112 509.413 211.931 508.816 211.568C508.219 211.205 507.749 210.683 507.408 210C507.077 209.307 506.912 208.496 506.912 207.568C506.912 206.64 507.077 205.835 507.408 205.152C507.749 204.459 508.219 203.931 508.816 203.568C509.413 203.205 510.085 203.024 510.832 203.024ZM511.536 204.992C510.832 204.992 510.267 205.221 509.84 205.68C509.413 206.139 509.2 206.768 509.2 207.568C509.2 208.368 509.413 208.997 509.84 209.456C510.267 209.904 510.832 210.128 511.536 210.128C512.219 210.128 512.779 209.899 513.216 209.44C513.664 208.971 513.888 208.347 513.888 207.568C513.888 206.779 513.664 206.155 513.216 205.696C512.779 205.227 512.219 204.992 511.536 204.992ZM522.908 210.064V212H521.724C520.732 212 519.97 211.76 519.436 211.28C518.914 210.8 518.652 210 518.652 208.88V205.04H517.42V203.136H518.652V200.944H520.908V203.136H522.892V205.04H520.908V208.912C520.908 209.339 520.994 209.637 521.164 209.808C521.335 209.979 521.623 210.064 522.028 210.064H522.908ZM524.276 200.592C524.276 200.229 524.404 199.936 524.66 199.712C524.916 199.477 525.252 199.36 525.668 199.36C526.084 199.36 526.42 199.477 526.676 199.712C526.932 199.936 527.06 200.229 527.06 200.592C527.06 200.944 526.932 201.237 526.676 201.472C526.42 201.696 526.084 201.808 525.668 201.808C525.252 201.808 524.916 201.696 524.66 201.472C524.404 201.237 524.276 200.944 524.276 200.592ZM526.788 203.136V212H524.532V203.136H526.788ZM532.925 203.024C533.789 203.024 534.562 203.205 535.245 203.568C535.938 203.931 536.482 204.459 536.877 205.152C537.271 205.835 537.469 206.64 537.469 207.568C537.469 208.496 537.271 209.301 536.877 209.984C536.482 210.667 535.938 211.195 535.245 211.568C534.562 211.931 533.789 212.112 532.925 212.112C532.061 212.112 531.282 211.931 530.589 211.568C529.906 211.195 529.367 210.667 528.973 209.984C528.578 209.301 528.381 208.496 528.381 207.568C528.381 206.64 528.578 205.835 528.973 205.152C529.367 204.459 529.906 203.931 530.589 203.568C531.282 203.205 532.061 203.024 532.925 203.024ZM532.925 204.976C532.295 204.976 531.762 205.2 531.325 205.648C530.887 206.085 530.669 206.725 530.669 207.568C530.669 208.411 530.887 209.056 531.325 209.504C531.762 209.941 532.295 210.16 532.925 210.16C533.554 210.16 534.087 209.941 534.525 209.504C534.962 209.056 535.181 208.411 535.181 207.568C535.181 206.725 534.962 206.085 534.525 205.648C534.087 205.2 533.554 204.976 532.925 204.976ZM544.343 203.008C545.367 203.008 546.183 203.344 546.791 204.016C547.399 204.688 547.703 205.632 547.703 206.848V212H545.463V207.104C545.463 206.4 545.282 205.856 544.919 205.472C544.556 205.077 544.06 204.88 543.431 204.88C542.791 204.88 542.279 205.088 541.895 205.504C541.511 205.92 541.319 206.517 541.319 207.296V212H539.063V203.136H541.319V204.912C541.554 204.315 541.938 203.851 542.471 203.52C543.015 203.179 543.639 203.008 544.343 203.008Z" fill="#181818"/>
<path d="M479.627 133.361V155.584C479.627 158.218 481.747 160.303 484.301 160.303H511.529C513.812 160.303 515.605 158.437 515.605 156.188V139.672C515.605 137.367 513.757 135.556 511.529 135.556H498.431L493.268 128.643H484.301C481.747 128.643 479.627 130.783 479.627 133.361Z" stroke="#307EED" stroke-width="2" stroke-miterlimit="10"/>
<path d="M3.44406 181.808V186H1.18806V174.704H5.30006C6.6334 174.704 7.63606 175.024 8.30806 175.664C8.99073 176.304 9.33206 177.173 9.33206 178.272C9.33206 179.349 8.98006 180.208 8.27606 180.848C7.58273 181.488 6.59073 181.808 5.30006 181.808H3.44406ZM5.06006 180C6.38273 180 7.04406 179.424 7.04406 178.272C7.04406 177.707 6.8894 177.275 6.58006 176.976C6.27073 176.677 5.76406 176.528 5.06006 176.528H3.44406V180H5.06006ZM19.1334 181.232C19.1334 181.456 19.1068 181.712 19.0534 182H12.5574C12.5894 182.789 12.8028 183.371 13.1974 183.744C13.5921 184.117 14.0828 184.304 14.6694 184.304C15.1921 184.304 15.6241 184.176 15.9654 183.92C16.3174 183.664 16.5414 183.317 16.6374 182.88H19.0214C18.9041 183.499 18.6534 184.053 18.2694 184.544C17.8854 185.035 17.3894 185.419 16.7814 185.696C16.1841 185.973 15.5174 186.112 14.7814 186.112C13.9174 186.112 13.1494 185.931 12.4774 185.568C11.8054 185.195 11.2828 184.667 10.9094 183.984C10.5361 183.301 10.3494 182.496 10.3494 181.568C10.3494 180.64 10.5361 179.835 10.9094 179.152C11.2828 178.459 11.8054 177.931 12.4774 177.568C13.1494 177.205 13.9174 177.024 14.7814 177.024C15.6561 177.024 16.4188 177.205 17.0694 177.568C17.7308 177.931 18.2374 178.432 18.5894 179.072C18.9521 179.701 19.1334 180.421 19.1334 181.232ZM16.8614 181.008C16.8934 180.283 16.7014 179.733 16.2854 179.36C15.8801 178.987 15.3788 178.8 14.7814 178.8C14.1734 178.8 13.6614 178.987 13.2454 179.36C12.8294 179.733 12.6001 180.283 12.5574 181.008H16.8614ZM24.8309 177.024C25.6949 177.024 26.4683 177.205 27.1509 177.568C27.8443 177.931 28.3883 178.459 28.7829 179.152C29.1776 179.835 29.3749 180.64 29.3749 181.568C29.3749 182.496 29.1776 183.301 28.7829 183.984C28.3883 184.667 27.8443 185.195 27.1509 185.568C26.4683 185.931 25.6949 186.112 24.8309 186.112C23.9669 186.112 23.1883 185.931 22.4949 185.568C21.8123 185.195 21.2736 184.667 20.8789 183.984C20.4843 183.301 20.2869 182.496 20.2869 181.568C20.2869 180.64 20.4843 179.835 20.8789 179.152C21.2736 178.459 21.8123 177.931 22.4949 177.568C23.1883 177.205 23.9669 177.024 24.8309 177.024ZM24.8309 178.976C24.2016 178.976 23.6683 179.2 23.2309 179.648C22.7936 180.085 22.5749 180.725 22.5749 181.568C22.5749 182.411 22.7936 183.056 23.2309 183.504C23.6683 183.941 24.2016 184.16 24.8309 184.16C25.4603 184.16 25.9936 183.941 26.4309 183.504C26.8683 183.056 27.0869 182.411 27.0869 181.568C27.0869 180.725 26.8683 180.085 26.4309 179.648C25.9936 179.2 25.4603 178.976 24.8309 178.976ZM36.2653 177.024C37.012 177.024 37.684 177.205 38.2813 177.568C38.8786 177.931 39.3426 178.459 39.6733 179.152C40.0146 179.835 40.1853 180.64 40.1853 181.568C40.1853 182.496 40.0146 183.307 39.6733 184C39.3426 184.683 38.8786 185.205 38.2813 185.568C37.684 185.931 37.012 186.112 36.2653 186.112C35.5186 186.112 34.8786 185.936 34.3453 185.584C33.8226 185.221 33.4493 184.741 33.2253 184.144V190.224H30.9693V177.136H33.2253V178.976C33.4493 178.379 33.8226 177.904 34.3453 177.552C34.8786 177.2 35.5186 177.024 36.2653 177.024ZM35.5613 178.992C34.8786 178.992 34.3133 179.227 33.8653 179.696C33.428 180.155 33.2093 180.779 33.2093 181.568C33.2093 182.347 33.428 182.971 33.8653 183.44C34.3133 183.899 34.8786 184.128 35.5613 184.128C36.2653 184.128 36.8306 183.904 37.2573 183.456C37.684 182.997 37.8973 182.368 37.8973 181.568C37.8973 180.768 37.684 180.139 37.2573 179.68C36.8306 179.221 36.2653 178.992 35.5613 178.992ZM44.0378 174.16V186H41.7818V174.16H44.0378ZM54.4147 181.232C54.4147 181.456 54.388 181.712 54.3347 182H47.8387C47.8707 182.789 48.084 183.371 48.4787 183.744C48.8734 184.117 49.364 184.304 49.9507 184.304C50.4734 184.304 50.9054 184.176 51.2467 183.92C51.5987 183.664 51.8227 183.317 51.9187 182.88H54.3027C54.1854 183.499 53.9347 184.053 53.5507 184.544C53.1667 185.035 52.6707 185.419 52.0627 185.696C51.4654 185.973 50.7987 186.112 50.0627 186.112C49.1987 186.112 48.4307 185.931 47.7587 185.568C47.0867 185.195 46.564 184.667 46.1907 183.984C45.8174 183.301 45.6307 182.496 45.6307 181.568C45.6307 180.64 45.8174 179.835 46.1907 179.152C46.564 178.459 47.0867 177.931 47.7587 177.568C48.4307 177.205 49.1987 177.024 50.0627 177.024C50.9374 177.024 51.7 177.205 52.3507 177.568C53.012 177.931 53.5187 178.432 53.8707 179.072C54.2334 179.701 54.4147 180.421 54.4147 181.232ZM52.1427 181.008C52.1747 180.283 51.9827 179.733 51.5667 179.36C51.1614 178.987 50.66 178.8 50.0627 178.8C49.4547 178.8 48.9427 178.987 48.5267 179.36C48.1107 179.733 47.8814 180.283 47.8387 181.008H52.1427ZM62.9726 177.024C63.7192 177.024 64.3592 177.2 64.8926 177.552C65.4259 177.904 65.8046 178.379 66.0286 178.976V177.136H68.2686V186H66.0286V184.144C65.8046 184.741 65.4259 185.221 64.8926 185.584C64.3592 185.936 63.7192 186.112 62.9726 186.112C62.2259 186.112 61.5539 185.931 60.9566 185.568C60.3592 185.205 59.8899 184.683 59.5486 184C59.2179 183.307 59.0526 182.496 59.0526 181.568C59.0526 180.64 59.2179 179.835 59.5486 179.152C59.8899 178.459 60.3592 177.931 60.9566 177.568C61.5539 177.205 62.2259 177.024 62.9726 177.024ZM63.6766 178.992C62.9726 178.992 62.4072 179.221 61.9806 179.68C61.5539 180.139 61.3406 180.768 61.3406 181.568C61.3406 182.368 61.5539 182.997 61.9806 183.456C62.4072 183.904 62.9726 184.128 63.6766 184.128C64.3592 184.128 64.9192 183.899 65.3566 183.44C65.8046 182.971 66.0286 182.347 66.0286 181.568C66.0286 180.779 65.8046 180.155 65.3566 179.696C64.9192 179.227 64.3592 178.992 63.6766 178.992ZM72.5691 174.16V186H70.3131V174.16H72.5691ZM78.7059 177.024C79.5699 177.024 80.3433 177.205 81.0259 177.568C81.7193 177.931 82.2633 178.459 82.6579 179.152C83.0526 179.835 83.2499 180.64 83.2499 181.568C83.2499 182.496 83.0526 183.301 82.6579 183.984C82.2633 184.667 81.7193 185.195 81.0259 185.568C80.3433 185.931 79.5699 186.112 78.7059 186.112C77.8419 186.112 77.0633 185.931 76.3699 185.568C75.6873 185.195 75.1486 184.667 74.7539 183.984C74.3593 183.301 74.1619 182.496 74.1619 181.568C74.1619 180.64 74.3593 179.835 74.7539 179.152C75.1486 178.459 75.6873 177.931 76.3699 177.568C77.0633 177.205 77.8419 177.024 78.7059 177.024ZM78.7059 178.976C78.0766 178.976 77.5433 179.2 77.1059 179.648C76.6686 180.085 76.4499 180.725 76.4499 181.568C76.4499 182.411 76.6686 183.056 77.1059 183.504C77.5433 183.941 78.0766 184.16 78.7059 184.16C79.3353 184.16 79.8686 183.941 80.3059 183.504C80.7433 183.056 80.9619 182.411 80.9619 181.568C80.9619 180.725 80.7433 180.085 80.3059 179.648C79.8686 179.2 79.3353 178.976 78.7059 178.976ZM90.1243 177.008C91.1483 177.008 91.9643 177.344 92.5723 178.016C93.1803 178.688 93.4843 179.632 93.4843 180.848V186H91.2443V181.104C91.2443 180.4 91.063 179.856 90.7003 179.472C90.3376 179.077 89.8416 178.88 89.2123 178.88C88.5723 178.88 88.0603 179.088 87.6763 179.504C87.2923 179.92 87.1003 180.517 87.1003 181.296V186H84.8443V177.136H87.1003V178.912C87.335 178.315 87.719 177.851 88.2523 177.52C88.7963 177.179 89.4203 177.008 90.1243 177.008ZM98.9413 177.024C99.688 177.024 100.328 177.2 100.861 177.552C101.395 177.904 101.773 178.379 101.997 178.976V177.136H104.237V186.032C104.237 186.853 104.072 187.589 103.741 188.24C103.421 188.901 102.936 189.419 102.285 189.792C101.645 190.165 100.867 190.352 99.9493 190.352C98.6693 190.352 97.6346 190.048 96.8453 189.44C96.056 188.832 95.576 188.005 95.4053 186.96H97.6293C97.7573 187.408 98.0026 187.755 98.3653 188C98.7386 188.256 99.2133 188.384 99.7893 188.384C100.451 188.384 100.984 188.187 101.389 187.792C101.795 187.408 101.997 186.821 101.997 186.032V184.144C101.773 184.741 101.395 185.221 100.861 185.584C100.328 185.936 99.688 186.112 98.9413 186.112C98.1946 186.112 97.5226 185.931 96.9253 185.568C96.328 185.205 95.8586 184.683 95.5173 184C95.1866 183.307 95.0213 182.496 95.0213 181.568C95.0213 180.64 95.1866 179.835 95.5173 179.152C95.8586 178.459 96.328 177.931 96.9253 177.568C97.5226 177.205 98.1946 177.024 98.9413 177.024ZM99.6453 178.992C98.9413 178.992 98.376 179.221 97.9493 179.68C97.5226 180.139 97.3093 180.768 97.3093 181.568C97.3093 182.368 97.5226 182.997 97.9493 183.456C98.376 183.904 98.9413 184.128 99.6453 184.128C100.328 184.128 100.888 183.899 101.325 183.44C101.773 182.971 101.997 182.347 101.997 181.568C101.997 180.779 101.773 180.155 101.325 179.696C100.888 179.227 100.328 178.992 99.6453 178.992ZM122.454 177.136L120.07 186H117.574L115.67 179.552L113.718 186H111.222L108.854 177.136H111.11L112.55 183.984L114.518 177.136H116.902L118.886 183.984L120.342 177.136H122.454ZM123.323 174.592C123.323 174.229 123.451 173.936 123.707 173.712C123.963 173.477 124.299 173.36 124.715 173.36C125.131 173.36 125.467 173.477 125.723 173.712C125.979 173.936 126.107 174.229 126.107 174.592C126.107 174.944 125.979 175.237 125.723 175.472C125.467 175.696 125.131 175.808 124.715 175.808C124.299 175.808 123.963 175.696 123.707 175.472C123.451 175.237 123.323 174.944 123.323 174.592ZM125.835 177.136V186H123.579V177.136H125.835ZM132.612 184.064V186H131.428C130.436 186 129.673 185.76 129.14 185.28C128.617 184.8 128.356 184 128.356 182.88V179.04H127.124V177.136H128.356V174.944H130.612V177.136H132.596V179.04H130.612V182.912C130.612 183.339 130.697 183.637 130.868 183.808C131.038 183.979 131.326 184.064 131.732 184.064H132.612ZM139.515 177.008C140.539 177.008 141.355 177.344 141.963 178.016C142.571 178.688 142.875 179.632 142.875 180.848V186H140.635V181.104C140.635 180.4 140.454 179.856 140.091 179.472C139.728 179.077 139.232 178.88 138.603 178.88C137.963 178.88 137.451 179.088 137.067 179.504C136.683 179.92 136.491 180.517 136.491 181.296V186H134.235V174.16H136.491V178.912C136.726 178.315 137.11 177.851 137.643 177.52C138.187 177.179 138.811 177.008 139.515 177.008ZM43.578 204.176C44.2607 204.315 44.8047 204.64 45.21 205.152C45.626 205.653 45.834 206.245 45.834 206.928C45.834 207.877 45.514 208.629 44.874 209.184C44.2447 209.728 43.3273 210 42.122 210H37.274V198.704H42.026C43.1673 198.704 44.042 198.955 44.65 199.456C45.2687 199.957 45.578 200.661 45.578 201.568C45.578 202.272 45.3913 202.848 45.018 203.296C44.6553 203.744 44.1753 204.037 43.578 204.176ZM39.53 203.44H41.562C42.1273 203.44 42.554 203.317 42.842 203.072C43.1407 202.816 43.29 202.453 43.29 201.984C43.29 201.515 43.146 201.152 42.858 200.896C42.57 200.64 42.1273 200.512 41.53 200.512H39.53V203.44ZM41.674 208.16C42.2713 208.16 42.73 208.032 43.05 207.776C43.37 207.509 43.53 207.125 43.53 206.624C43.53 206.123 43.3647 205.739 43.034 205.472C42.714 205.195 42.2553 205.056 41.658 205.056H39.53V208.16H41.674ZM55.8946 201.136V210H53.6386V208.208C53.404 208.805 53.0146 209.275 52.4706 209.616C51.9373 209.947 51.3186 210.112 50.6146 210.112C49.5906 210.112 48.7746 209.776 48.1666 209.104C47.5586 208.432 47.2546 207.493 47.2546 206.288V201.136H49.4946V206.032C49.4946 206.736 49.676 207.285 50.0386 207.68C50.4013 208.064 50.892 208.256 51.5106 208.256C52.1613 208.256 52.6786 208.048 53.0626 207.632C53.4466 207.216 53.6386 206.619 53.6386 205.84V201.136H55.8946ZM61.0019 201.024C62.0792 201.024 62.9432 201.296 63.5939 201.84C64.2445 202.384 64.6499 203.109 64.8099 204.016H62.6979C62.6125 203.589 62.4205 203.248 62.1219 202.992C61.8232 202.736 61.4339 202.608 60.9539 202.608C60.5699 202.608 60.2712 202.699 60.0579 202.88C59.8445 203.061 59.7379 203.307 59.7379 203.616C59.7379 203.861 59.8232 204.059 59.9939 204.208C60.1645 204.357 60.3779 204.475 60.6339 204.56C60.8899 204.645 61.2579 204.747 61.7379 204.864C62.4099 205.013 62.9539 205.173 63.3699 205.344C63.7965 205.504 64.1592 205.765 64.4579 206.128C64.7672 206.48 64.9219 206.96 64.9219 207.568C64.9219 208.325 64.6232 208.939 64.0259 209.408C63.4392 209.877 62.6445 210.112 61.6419 210.112C60.4899 210.112 59.5672 209.856 58.8739 209.344C58.1805 208.821 57.7592 208.08 57.6099 207.12H59.7699C59.8232 207.557 60.0152 207.904 60.3459 208.16C60.6765 208.405 61.1085 208.528 61.6419 208.528C62.0259 208.528 62.3192 208.437 62.5219 208.256C62.7245 208.064 62.8259 207.819 62.8259 207.52C62.8259 207.264 62.7352 207.056 62.5539 206.896C62.3832 206.736 62.1645 206.613 61.8979 206.528C61.6419 206.443 61.2739 206.341 60.7939 206.224C60.1325 206.075 59.5939 205.925 59.1779 205.776C58.7725 205.616 58.4205 205.365 58.1219 205.024C57.8339 204.683 57.6899 204.213 57.6899 203.616C57.6899 202.848 57.9832 202.224 58.5699 201.744C59.1565 201.264 59.9672 201.024 61.0019 201.024ZM66.3461 198.592C66.3461 198.229 66.4741 197.936 66.7301 197.712C66.9861 197.477 67.3221 197.36 67.7381 197.36C68.1541 197.36 68.4901 197.477 68.7461 197.712C69.0021 197.936 69.1301 198.229 69.1301 198.592C69.1301 198.944 69.0021 199.237 68.7461 199.472C68.4901 199.696 68.1541 199.808 67.7381 199.808C67.3221 199.808 66.9861 199.696 66.7301 199.472C66.4741 199.237 66.3461 198.944 66.3461 198.592ZM68.8581 201.136V210H66.6021V201.136H68.8581ZM76.179 201.008C77.203 201.008 78.019 201.344 78.627 202.016C79.235 202.688 79.539 203.632 79.539 204.848V210H77.299V205.104C77.299 204.4 77.1177 203.856 76.755 203.472C76.3923 203.077 75.8963 202.88 75.267 202.88C74.627 202.88 74.115 203.088 73.731 203.504C73.347 203.92 73.155 204.517 73.155 205.296V210H70.899V201.136H73.155V202.912C73.3897 202.315 73.7737 201.851 74.307 201.52C74.851 201.179 75.475 201.008 76.179 201.008ZM89.86 205.232C89.86 205.456 89.8333 205.712 89.78 206H83.284C83.316 206.789 83.5293 207.371 83.924 207.744C84.3187 208.117 84.8093 208.304 85.396 208.304C85.9187 208.304 86.3507 208.176 86.692 207.92C87.044 207.664 87.268 207.317 87.364 206.88H89.748C89.6307 207.499 89.38 208.053 88.996 208.544C88.612 209.035 88.116 209.419 87.508 209.696C86.9107 209.973 86.244 210.112 85.508 210.112C84.644 210.112 83.876 209.931 83.204 209.568C82.532 209.195 82.0093 208.667 81.636 207.984C81.2627 207.301 81.076 206.496 81.076 205.568C81.076 204.64 81.2627 203.835 81.636 203.152C82.0093 202.459 82.532 201.931 83.204 201.568C83.876 201.205 84.644 201.024 85.508 201.024C86.3827 201.024 87.1453 201.205 87.796 201.568C88.4573 201.931 88.964 202.432 89.316 203.072C89.6787 203.701 89.86 204.421 89.86 205.232ZM87.588 205.008C87.62 204.283 87.428 203.733 87.012 203.36C86.6067 202.987 86.1053 202.8 85.508 202.8C84.9 202.8 84.388 202.987 83.972 203.36C83.556 203.733 83.3267 204.283 83.284 205.008H87.588ZM94.5175 201.024C95.5948 201.024 96.4588 201.296 97.1095 201.84C97.7602 202.384 98.1655 203.109 98.3255 204.016H96.2135C96.1282 203.589 95.9362 203.248 95.6375 202.992C95.3388 202.736 94.9495 202.608 94.4695 202.608C94.0855 202.608 93.7868 202.699 93.5735 202.88C93.3602 203.061 93.2535 203.307 93.2535 203.616C93.2535 203.861 93.3388 204.059 93.5095 204.208C93.6802 204.357 93.8935 204.475 94.1495 204.56C94.4055 204.645 94.7735 204.747 95.2535 204.864C95.9255 205.013 96.4695 205.173 96.8855 205.344C97.3122 205.504 97.6748 205.765 97.9735 206.128C98.2828 206.48 98.4375 206.96 98.4375 207.568C98.4375 208.325 98.1388 208.939 97.5415 209.408C96.9548 209.877 96.1602 210.112 95.1575 210.112C94.0055 210.112 93.0828 209.856 92.3895 209.344C91.6962 208.821 91.2748 208.08 91.1255 207.12H93.2855C93.3388 207.557 93.5308 207.904 93.8615 208.16C94.1922 208.405 94.6242 208.528 95.1575 208.528C95.5415 208.528 95.8348 208.437 96.0375 208.256C96.2402 208.064 96.3415 207.819 96.3415 207.52C96.3415 207.264 96.2508 207.056 96.0695 206.896C95.8988 206.736 95.6802 206.613 95.4135 206.528C95.1575 206.443 94.7895 206.341 94.3095 206.224C93.6482 206.075 93.1095 205.925 92.6935 205.776C92.2882 205.616 91.9362 205.365 91.6375 205.024C91.3495 204.683 91.2055 204.213 91.2055 203.616C91.2055 202.848 91.4988 202.224 92.0855 201.744C92.6722 201.264 93.4828 201.024 94.5175 201.024ZM103.174 201.024C104.251 201.024 105.115 201.296 105.766 201.84C106.416 202.384 106.822 203.109 106.982 204.016H104.87C104.784 203.589 104.592 203.248 104.294 202.992C103.995 202.736 103.606 202.608 103.126 202.608C102.742 202.608 102.443 202.699 102.23 202.88C102.016 203.061 101.91 203.307 101.91 203.616C101.91 203.861 101.995 204.059 102.166 204.208C102.336 204.357 102.55 204.475 102.806 204.56C103.062 204.645 103.43 204.747 103.91 204.864C104.582 205.013 105.126 205.173 105.542 205.344C105.968 205.504 106.331 205.765 106.63 206.128C106.939 206.48 107.094 206.96 107.094 207.568C107.094 208.325 106.795 208.939 106.198 209.408C105.611 209.877 104.816 210.112 103.814 210.112C102.662 210.112 101.739 209.856 101.046 209.344C100.352 208.821 99.9311 208.08 99.7818 207.12H101.942C101.995 207.557 102.187 207.904 102.518 208.16C102.848 208.405 103.28 208.528 103.814 208.528C104.198 208.528 104.491 208.437 104.694 208.256C104.896 208.064 104.998 207.819 104.998 207.52C104.998 207.264 104.907 207.056 104.726 206.896C104.555 206.736 104.336 206.613 104.07 206.528C103.814 206.443 103.446 206.341 102.966 206.224C102.304 206.075 101.766 205.925 101.35 205.776C100.944 205.616 100.592 205.365 100.294 205.024C100.006 204.683 99.8618 204.213 99.8618 203.616C99.8618 202.848 100.155 202.224 100.742 201.744C101.328 201.264 102.139 201.024 103.174 201.024Z" fill="#181818"/>
<path d="M63.6054 131.557V128.393C63.6054 126.359 65.3076 124.721 67.4206 124.721H75.6966C77.8096 124.721 79.5118 126.359 79.5118 128.393V131.5H86.5552C89.1378 131.5 91.1921 133.534 91.1921 135.963V153.759C91.1921 156.245 89.0791 158.222 86.5552 158.222H56.3859C53.8034 158.222 51.749 156.188 51.749 153.759V135.907C51.749 133.421 53.862 131.387 56.4446 131.444L63.6054 131.557Z" stroke="#307EED" stroke-width="2" stroke-miterlimit="10"/>
<path d="M79.5705 158.278V131.557H63.6055V158.278" stroke="#307EED" stroke-width="2" stroke-miterlimit="10"/>
<path d="M129.722 70.064L127.962 67.952C127.536 68.0587 127.066 68.112 126.554 68.112C125.498 68.112 124.538 67.8667 123.674 67.376C122.821 66.8853 122.144 66.1973 121.642 65.312C121.152 64.4267 120.906 63.4293 120.906 62.32C120.906 61.2107 121.152 60.2187 121.642 59.344C122.144 58.4587 122.821 57.7707 123.674 57.28C124.538 56.7893 125.498 56.544 126.554 56.544C127.61 56.544 128.565 56.7893 129.418 57.28C130.282 57.7707 130.96 58.4587 131.45 59.344C131.952 60.2187 132.202 61.2107 132.202 62.32C132.202 63.3547 131.989 64.2933 131.562 65.136C131.136 65.968 130.544 66.64 129.786 67.152L132.458 70.064H129.722ZM123.21 62.32C123.21 63.0667 123.349 63.7227 123.626 64.288C123.914 64.8427 124.309 65.2693 124.81 65.568C125.312 65.8667 125.893 66.016 126.554 66.016C127.216 66.016 127.797 65.8667 128.298 65.568C128.8 65.2693 129.189 64.8427 129.466 64.288C129.754 63.7227 129.898 63.0667 129.898 62.32C129.898 61.5733 129.754 60.9227 129.466 60.368C129.189 59.8027 128.8 59.3707 128.298 59.072C127.797 58.7733 127.216 58.624 126.554 58.624C125.893 58.624 125.312 58.7733 124.81 59.072C124.309 59.3707 123.914 59.8027 123.626 60.368C123.349 60.9227 123.21 61.5733 123.21 62.32ZM142.379 59.136V68H140.123V66.208C139.888 66.8053 139.499 67.2747 138.955 67.616C138.422 67.9467 137.803 68.112 137.099 68.112C136.075 68.112 135.259 67.776 134.651 67.104C134.043 66.432 133.739 65.4933 133.739 64.288V59.136H135.979V64.032C135.979 64.736 136.16 65.2853 136.523 65.68C136.886 66.064 137.376 66.256 137.995 66.256C138.646 66.256 139.163 66.048 139.547 65.632C139.931 65.216 140.123 64.6187 140.123 63.84V59.136H142.379ZM147.902 59.024C148.649 59.024 149.289 59.2 149.822 59.552C150.356 59.904 150.734 60.3787 150.958 60.976V59.136H153.198V68H150.958V66.144C150.734 66.7413 150.356 67.2213 149.822 67.584C149.289 67.936 148.649 68.112 147.902 68.112C147.156 68.112 146.484 67.9307 145.886 67.568C145.289 67.2053 144.82 66.6827 144.478 66C144.148 65.3067 143.982 64.496 143.982 63.568C143.982 62.64 144.148 61.8347 144.478 61.152C144.82 60.4587 145.289 59.9307 145.886 59.568C146.484 59.2053 147.156 59.024 147.902 59.024ZM148.606 60.992C147.902 60.992 147.337 61.2213 146.91 61.68C146.484 62.1387 146.27 62.768 146.27 63.568C146.27 64.368 146.484 64.9973 146.91 65.456C147.337 65.904 147.902 66.128 148.606 66.128C149.289 66.128 149.849 65.8987 150.286 65.44C150.734 64.9707 150.958 64.3467 150.958 63.568C150.958 62.7787 150.734 62.1547 150.286 61.696C149.849 61.2267 149.289 60.992 148.606 60.992ZM157.499 56.16V68H155.243V56.16H157.499ZM159.284 56.592C159.284 56.2293 159.412 55.936 159.668 55.712C159.924 55.4773 160.26 55.36 160.676 55.36C161.092 55.36 161.428 55.4773 161.684 55.712C161.94 55.936 162.068 56.2293 162.068 56.592C162.068 56.944 161.94 57.2373 161.684 57.472C161.428 57.696 161.092 57.808 160.676 57.808C160.26 57.808 159.924 57.696 159.668 57.472C159.412 57.2373 159.284 56.944 159.284 56.592ZM161.796 59.136V68H159.54V59.136H161.796ZM168.573 66.064V68H167.389C166.397 68 165.634 67.76 165.101 67.28C164.578 66.8 164.317 66 164.317 64.88V61.04H163.085V59.136H164.317V56.944H166.573V59.136H168.557V61.04H166.573V64.912C166.573 65.3387 166.658 65.6373 166.829 65.808C166.999 65.9787 167.287 66.064 167.693 66.064H168.573ZM171.716 59.136L174.132 65.152L176.372 59.136H178.852L173.428 72.224H170.932L172.932 67.744L169.204 59.136H171.716ZM186.871 59.024C187.618 59.024 188.252 59.2 188.775 59.552C189.308 59.904 189.692 60.3787 189.927 60.976V56.16H192.167V68H189.927V66.144C189.692 66.7413 189.308 67.2213 188.775 67.584C188.252 67.936 187.618 68.112 186.871 68.112C186.124 68.112 185.452 67.9307 184.855 67.568C184.258 67.2053 183.788 66.6827 183.447 66C183.116 65.3067 182.951 64.496 182.951 63.568C182.951 62.64 183.116 61.8347 183.447 61.152C183.788 60.4587 184.258 59.9307 184.855 59.568C185.452 59.2053 186.124 59.024 186.871 59.024ZM187.575 60.992C186.871 60.992 186.306 61.2213 185.879 61.68C185.452 62.1387 185.239 62.768 185.239 63.568C185.239 64.368 185.452 64.9973 185.879 65.456C186.306 65.904 186.871 66.128 187.575 66.128C188.258 66.128 188.818 65.8987 189.255 65.44C189.703 64.9707 189.927 64.3467 189.927 63.568C189.927 62.7787 189.703 62.1547 189.255 61.696C188.818 61.2267 188.258 60.992 187.575 60.992ZM202.548 63.232C202.548 63.456 202.521 63.712 202.468 64H195.972C196.004 64.7893 196.217 65.3707 196.612 65.744C197.006 66.1173 197.497 66.304 198.084 66.304C198.606 66.304 199.038 66.176 199.38 65.92C199.732 65.664 199.956 65.3173 200.052 64.88H202.436C202.318 65.4987 202.068 66.0533 201.684 66.544C201.3 67.0347 200.804 67.4187 200.196 67.696C199.598 67.9733 198.932 68.112 198.196 68.112C197.332 68.112 196.564 67.9307 195.892 67.568C195.22 67.1947 194.697 66.6667 194.324 65.984C193.95 65.3013 193.764 64.496 193.764 63.568C193.764 62.64 193.95 61.8347 194.324 61.152C194.697 60.4587 195.22 59.9307 195.892 59.568C196.564 59.2053 197.332 59.024 198.196 59.024C199.07 59.024 199.833 59.2053 200.484 59.568C201.145 59.9307 201.652 60.432 202.003 61.072C202.366 61.7013 202.548 62.4213 202.548 63.232ZM200.276 63.008C200.308 62.2827 200.116 61.7333 199.7 61.36C199.294 60.9867 198.793 60.8 198.196 60.8C197.588 60.8 197.076 60.9867 196.66 61.36C196.244 61.7333 196.014 62.2827 195.972 63.008H200.276ZM206.405 56.16V68H204.149V56.16H206.405ZM208.19 56.592C208.19 56.2293 208.318 55.936 208.574 55.712C208.83 55.4773 209.166 55.36 209.582 55.36C209.998 55.36 210.334 55.4773 210.59 55.712C210.846 55.936 210.974 56.2293 210.974 56.592C210.974 56.944 210.846 57.2373 210.59 57.472C210.334 57.696 209.998 57.808 209.582 57.808C209.166 57.808 208.83 57.696 208.574 57.472C208.318 57.2373 208.19 56.944 208.19 56.592ZM210.702 59.136V68H208.446V59.136H210.702ZM216.599 65.744L218.839 59.136H221.239L217.959 68H215.207L211.927 59.136H214.343L216.599 65.744ZM230.829 63.232C230.829 63.456 230.802 63.712 230.749 64H224.253C224.285 64.7893 224.498 65.3707 224.893 65.744C225.287 66.1173 225.778 66.304 226.365 66.304C226.887 66.304 227.319 66.176 227.661 65.92C228.013 65.664 228.237 65.3173 228.333 64.88H230.717C230.599 65.4987 230.349 66.0533 229.965 66.544C229.581 67.0347 229.085 67.4187 228.477 67.696C227.879 67.9733 227.213 68.112 226.477 68.112C225.613 68.112 224.845 67.9307 224.173 67.568C223.501 67.1947 222.978 66.6667 222.605 65.984C222.231 65.3013 222.045 64.496 222.045 63.568C222.045 62.64 222.231 61.8347 222.605 61.152C222.978 60.4587 223.501 59.9307 224.173 59.568C224.845 59.2053 225.613 59.024 226.477 59.024C227.351 59.024 228.114 59.2053 228.765 59.568C229.426 59.9307 229.933 60.432 230.285 61.072C230.647 61.7013 230.829 62.4213 230.829 63.232ZM228.557 63.008C228.589 62.2827 228.397 61.7333 227.981 61.36C227.575 60.9867 227.074 60.8 226.477 60.8C225.869 60.8 225.357 60.9867 224.941 61.36C224.525 61.7333 224.295 62.2827 224.253 63.008H228.557ZM234.686 60.832C235.017 60.2667 235.454 59.824 235.998 59.504C236.542 59.1733 237.15 59.008 237.822 59.008V61.424H237.166C235.513 61.424 234.686 62.192 234.686 63.728V68H232.43V59.136H234.686V60.832ZM240.591 59.136L243.007 65.152L245.247 59.136H247.727L242.303 72.224H239.807L241.807 67.744L238.079 59.136H240.591Z" fill="#181818"/>
<path d="M202.293 18.8005C202.398 19.4976 202.398 20.2484 202.398 20.9991C202.398 31.724 193.917 40.3576 183.5 40.3576C173.083 40.3576 164.603 31.724 164.603 20.9991C164.603 10.2742 173.083 1.64062 183.5 1.64062C185.594 1.64062 187.636 2.016 189.52 2.65949" stroke="#307EED" stroke-width="2" stroke-miterlimit="10" stroke-linecap="round"/>
<path d="M176.852 19.9802L183.5 26.7369L197.477 10.1133" stroke="#307EED" stroke-width="2" stroke-miterlimit="10" stroke-linecap="round"/>
<path d="M331.128 56.592C332.536 56.592 333.704 56.9547 334.632 57.68C335.56 58.4053 336.173 59.392 336.472 60.64H334.104C333.859 60.032 333.475 59.552 332.952 59.2C332.44 58.848 331.821 58.672 331.096 58.672C330.499 58.672 329.96 58.8213 329.48 59.12C329 59.4187 328.627 59.8453 328.36 60.4C328.093 60.9547 327.96 61.6053 327.96 62.352C327.96 63.088 328.093 63.7333 328.36 64.288C328.627 64.8427 329 65.2693 329.48 65.568C329.96 65.8667 330.499 66.016 331.096 66.016C331.821 66.016 332.44 65.84 332.952 65.488C333.475 65.136 333.859 64.656 334.104 64.048H336.472C336.173 65.296 335.56 66.2827 334.632 67.008C333.704 67.7333 332.536 68.096 331.128 68.096C330.051 68.096 329.096 67.856 328.264 67.376C327.443 66.8853 326.803 66.2027 326.344 65.328C325.896 64.4533 325.672 63.4613 325.672 62.352C325.672 61.232 325.896 60.2347 326.344 59.36C326.803 58.4853 327.443 57.808 328.264 57.328C329.085 56.8373 330.04 56.592 331.128 56.592ZM346.645 59.136V68H344.389V66.208C344.154 66.8053 343.765 67.2747 343.221 67.616C342.687 67.9467 342.069 68.112 341.365 68.112C340.341 68.112 339.525 67.776 338.917 67.104C338.309 66.432 338.005 65.4933 338.005 64.288V59.136H340.245V64.032C340.245 64.736 340.426 65.2853 340.789 65.68C341.151 66.064 341.642 66.256 342.261 66.256C342.911 66.256 343.429 66.048 343.813 65.632C344.197 65.216 344.389 64.6187 344.389 63.84V59.136H346.645ZM351.752 59.024C352.829 59.024 353.693 59.296 354.344 59.84C354.995 60.384 355.4 61.1093 355.56 62.016H353.448C353.363 61.5893 353.171 61.248 352.872 60.992C352.573 60.736 352.184 60.608 351.704 60.608C351.32 60.608 351.021 60.6987 350.808 60.88C350.595 61.0613 350.488 61.3067 350.488 61.616C350.488 61.8613 350.573 62.0587 350.744 62.208C350.915 62.3573 351.128 62.4747 351.384 62.56C351.64 62.6453 352.008 62.7467 352.488 62.864C353.16 63.0133 353.704 63.1733 354.12 63.344C354.547 63.504 354.909 63.7653 355.208 64.128C355.517 64.48 355.672 64.96 355.672 65.568C355.672 66.3253 355.373 66.9387 354.776 67.408C354.189 67.8773 353.395 68.112 352.392 68.112C351.24 68.112 350.317 67.856 349.624 67.344C348.931 66.8213 348.509 66.08 348.36 65.12H350.52C350.573 65.5573 350.765 65.904 351.096 66.16C351.427 66.4053 351.859 66.528 352.392 66.528C352.776 66.528 353.069 66.4373 353.272 66.256C353.475 66.064 353.576 65.8187 353.576 65.52C353.576 65.264 353.485 65.056 353.304 64.896C353.133 64.736 352.915 64.6133 352.648 64.528C352.392 64.4427 352.024 64.3413 351.544 64.224C350.883 64.0747 350.344 63.9253 349.928 63.776C349.523 63.616 349.171 63.3653 348.872 63.024C348.584 62.6827 348.44 62.2133 348.44 61.616C348.44 60.848 348.733 60.224 349.32 59.744C349.907 59.264 350.717 59.024 351.752 59.024ZM362.088 66.064V68H360.904C359.912 68 359.149 67.76 358.616 67.28C358.093 66.8 357.832 66 357.832 64.88V61.04H356.6V59.136H357.832V56.944H360.088V59.136H362.072V61.04H360.088V64.912C360.088 65.3387 360.173 65.6373 360.344 65.808C360.515 65.9787 360.803 66.064 361.208 66.064H362.088ZM367.808 59.024C368.672 59.024 369.445 59.2053 370.128 59.568C370.821 59.9307 371.365 60.4587 371.76 61.152C372.154 61.8347 372.352 62.64 372.352 63.568C372.352 64.496 372.154 65.3013 371.76 65.984C371.365 66.6667 370.821 67.1947 370.128 67.568C369.445 67.9307 368.672 68.112 367.808 68.112C366.944 68.112 366.165 67.9307 365.472 67.568C364.789 67.1947 364.25 66.6667 363.856 65.984C363.461 65.3013 363.264 64.496 363.264 63.568C363.264 62.64 363.461 61.8347 363.856 61.152C364.25 60.4587 364.789 59.9307 365.472 59.568C366.165 59.2053 366.944 59.024 367.808 59.024ZM367.808 60.976C367.178 60.976 366.645 61.2 366.208 61.648C365.77 62.0853 365.552 62.7253 365.552 63.568C365.552 64.4107 365.77 65.056 366.208 65.504C366.645 65.9413 367.178 66.16 367.808 66.16C368.437 66.16 368.97 65.9413 369.408 65.504C369.845 65.056 370.064 64.4107 370.064 63.568C370.064 62.7253 369.845 62.0853 369.408 61.648C368.97 61.2 368.437 60.976 367.808 60.976ZM385.226 59.008C386.303 59.008 387.151 59.344 387.77 60.016C388.399 60.6773 388.714 61.6213 388.714 62.848V68H386.474V63.104C386.474 62.4213 386.298 61.8987 385.946 61.536C385.605 61.1627 385.13 60.976 384.522 60.976C383.893 60.976 383.391 61.1733 383.018 61.568C382.645 61.9627 382.458 62.5387 382.458 63.296V68H380.218V63.104C380.218 62.4213 380.042 61.8987 379.69 61.536C379.349 61.1627 378.874 60.976 378.266 60.976C377.637 60.976 377.135 61.1733 376.762 61.568C376.389 61.9627 376.202 62.5387 376.202 63.296V68H373.946V59.136H376.202V60.816C376.437 60.24 376.805 59.7973 377.306 59.488C377.818 59.168 378.41 59.008 379.082 59.008C379.797 59.008 380.415 59.1787 380.938 59.52C381.471 59.8613 381.871 60.352 382.138 60.992C382.415 60.384 382.826 59.904 383.37 59.552C383.925 59.1893 384.543 59.008 385.226 59.008ZM399.032 63.232C399.032 63.456 399.005 63.712 398.952 64H392.456C392.488 64.7893 392.701 65.3707 393.096 65.744C393.491 66.1173 393.981 66.304 394.568 66.304C395.091 66.304 395.523 66.176 395.864 65.92C396.216 65.664 396.44 65.3173 396.536 64.88H398.92C398.803 65.4987 398.552 66.0533 398.168 66.544C397.784 67.0347 397.288 67.4187 396.68 67.696C396.083 67.9733 395.416 68.112 394.68 68.112C393.816 68.112 393.048 67.9307 392.376 67.568C391.704 67.1947 391.181 66.6667 390.808 65.984C390.435 65.3013 390.248 64.496 390.248 63.568C390.248 62.64 390.435 61.8347 390.808 61.152C391.181 60.4587 391.704 59.9307 392.376 59.568C393.048 59.2053 393.816 59.024 394.68 59.024C395.555 59.024 396.317 59.2053 396.968 59.568C397.629 59.9307 398.136 60.432 398.488 61.072C398.851 61.7013 399.032 62.4213 399.032 63.232ZM396.76 63.008C396.792 62.2827 396.6 61.7333 396.184 61.36C395.779 60.9867 395.277 60.8 394.68 60.8C394.072 60.8 393.56 60.9867 393.144 61.36C392.728 61.7333 392.499 62.2827 392.456 63.008H396.76ZM402.889 60.832C403.22 60.2667 403.657 59.824 404.201 59.504C404.745 59.1733 405.353 59.008 406.025 59.008V61.424H405.369C403.716 61.424 402.889 62.192 402.889 63.728V68H400.633V59.136H402.889V60.832ZM413.018 61.36V63.232H406.218V61.36H413.018ZM420.033 57.6C419.372 57.5573 418.908 57.6533 418.641 57.888C418.374 58.1227 418.241 58.5333 418.241 59.12V59.136H420.033V61.04H418.241V68H415.985V61.04H414.849V59.136H415.985V58.928C415.985 57.872 416.284 57.0613 416.881 56.496C417.489 55.92 418.385 55.632 419.569 55.632C419.772 55.632 419.926 55.6373 420.033 55.648V57.6ZM425.479 59.024C426.343 59.024 427.117 59.2053 427.799 59.568C428.493 59.9307 429.037 60.4587 429.431 61.152C429.826 61.8347 430.023 62.64 430.023 63.568C430.023 64.496 429.826 65.3013 429.431 65.984C429.037 66.6667 428.493 67.1947 427.799 67.568C427.117 67.9307 426.343 68.112 425.479 68.112C424.615 68.112 423.837 67.9307 423.143 67.568C422.461 67.1947 421.922 66.6667 421.527 65.984C421.133 65.3013 420.935 64.496 420.935 63.568C420.935 62.64 421.133 61.8347 421.527 61.152C421.922 60.4587 422.461 59.9307 423.143 59.568C423.837 59.2053 424.615 59.024 425.479 59.024ZM425.479 60.976C424.85 60.976 424.317 61.2 423.879 61.648C423.442 62.0853 423.223 62.7253 423.223 63.568C423.223 64.4107 423.442 65.056 423.879 65.504C424.317 65.9413 424.85 66.16 425.479 66.16C426.109 66.16 426.642 65.9413 427.079 65.504C427.517 65.056 427.735 64.4107 427.735 63.568C427.735 62.7253 427.517 62.0853 427.079 61.648C426.642 61.2 426.109 60.976 425.479 60.976ZM435.602 59.024C436.743 59.024 437.692 59.3333 438.45 59.952C439.218 60.5707 439.698 61.4133 439.89 62.48H437.506C437.41 62.0107 437.191 61.6427 436.85 61.376C436.508 61.0987 436.076 60.96 435.554 60.96C434.956 60.96 434.455 61.184 434.05 61.632C433.655 62.0693 433.458 62.7147 433.458 63.568C433.458 64.4213 433.655 65.072 434.05 65.52C434.455 65.9573 434.956 66.176 435.554 66.176C436.076 66.176 436.508 66.0427 436.85 65.776C437.191 65.4987 437.41 65.1253 437.506 64.656H439.89C439.698 65.7227 439.218 66.5653 438.45 67.184C437.692 67.8027 436.743 68.112 435.602 68.112C434.738 68.112 433.97 67.9307 433.298 67.568C432.626 67.1947 432.103 66.6667 431.73 65.984C431.356 65.3013 431.17 64.496 431.17 63.568C431.17 62.64 431.356 61.8347 431.73 61.152C432.103 60.4587 432.626 59.9307 433.298 59.568C433.97 59.2053 434.738 59.024 435.602 59.024ZM449.973 59.136V68H447.717V66.208C447.482 66.8053 447.093 67.2747 446.549 67.616C446.015 67.9467 445.397 68.112 444.693 68.112C443.669 68.112 442.853 67.776 442.245 67.104C441.637 66.432 441.333 65.4933 441.333 64.288V59.136H443.573V64.032C443.573 64.736 443.754 65.2853 444.117 65.68C444.479 66.064 444.97 66.256 445.589 66.256C446.239 66.256 446.757 66.048 447.141 65.632C447.525 65.216 447.717 64.6187 447.717 63.84V59.136H449.973ZM455.08 59.024C456.157 59.024 457.021 59.296 457.672 59.84C458.323 60.384 458.728 61.1093 458.888 62.016H456.776C456.691 61.5893 456.499 61.248 456.2 60.992C455.901 60.736 455.512 60.608 455.032 60.608C454.648 60.608 454.349 60.6987 454.136 60.88C453.923 61.0613 453.816 61.3067 453.816 61.616C453.816 61.8613 453.901 62.0587 454.072 62.208C454.243 62.3573 454.456 62.4747 454.712 62.56C454.968 62.6453 455.336 62.7467 455.816 62.864C456.488 63.0133 457.032 63.1733 457.448 63.344C457.875 63.504 458.237 63.7653 458.536 64.128C458.845 64.48 459 64.96 459 65.568C459 66.3253 458.701 66.9387 458.104 67.408C457.517 67.8773 456.723 68.112 455.72 68.112C454.568 68.112 453.645 67.856 452.952 67.344C452.259 66.8213 451.837 66.08 451.688 65.12H453.848C453.901 65.5573 454.093 65.904 454.424 66.16C454.755 66.4053 455.187 66.528 455.72 66.528C456.104 66.528 456.397 66.4373 456.6 66.256C456.803 66.064 456.904 65.8187 456.904 65.52C456.904 65.264 456.813 65.056 456.632 64.896C456.461 64.736 456.243 64.6133 455.976 64.528C455.72 64.4427 455.352 64.3413 454.872 64.224C454.211 64.0747 453.672 63.9253 453.256 63.776C452.851 63.616 452.499 63.3653 452.2 63.024C451.912 62.6827 451.768 62.2133 451.768 61.616C451.768 60.848 452.061 60.224 452.648 59.744C453.235 59.264 454.045 59.024 455.08 59.024Z" fill="#181818"/>
<path d="M386.873 20.0391C391.97 20.0391 396.102 15.9408 396.102 10.8853C396.102 5.82976 391.97 1.73145 386.873 1.73145C381.775 1.73145 377.643 5.82976 377.643 10.8853C377.643 15.9408 381.775 20.0391 386.873 20.0391Z" stroke="#307EED" stroke-width="2" stroke-miterlimit="10" stroke-linecap="round"/>
<path d="M370.75 40.2673C370.75 31.4525 377.985 24.2764 386.873 24.2764C395.76 24.2764 402.996 31.4525 402.996 40.2673" stroke="#307EED" stroke-width="2" stroke-miterlimit="10" stroke-linecap="round"/>
<path d="M401.343 8.22891L405.787 12.5233L413.251 4.72559" stroke="#307EED" stroke-width="2" stroke-miterlimit="10" stroke-linecap="round"/>
<path d="M227 24H349M247 148H170.362H117.5M335.5 148H411.543H455.5M140.5 24H84C75.1634 24 68 31.1634 68 40V102M424.5 24H483C491.837 24 499 31.1634 499 40V105.5" stroke="#307EED" stroke-width="2" stroke-linecap="round"/>
</svg>
