<svg width="20" height="24" viewBox="0 0 20 24" fill="none" xmlns="http://www.w3.org/2000/svg">
<path d="M9.78087 1.20175e-08C7.27058 -0.000126467 4.86169 0.998108 3.07775 2.77774C1.29381 4.55737 0.279009 6.97457 0.253906 9.50397C0.253906 16.0799 8.64955 23.3999 9.00681 23.7119C9.22251 23.8978 9.49702 24 9.78087 24C10.0647 24 10.3392 23.8978 10.5549 23.7119C10.9717 23.3999 19.3078 16.0799 19.3078 9.50397C19.2827 6.97457 18.2679 4.55737 16.484 2.77774C14.7001 0.998108 12.2912 -0.000126467 9.78087 1.20175e-08ZM9.78087 21.1799C7.79212 19.2719 2.63565 13.98 2.63565 9.50397C2.63565 7.59442 3.38845 5.76307 4.72844 4.41282C6.06843 3.06256 7.88584 2.30399 9.78087 2.30399C11.6759 2.30399 13.4933 3.06256 14.8333 4.41282C16.1733 5.76307 16.9261 7.59442 16.9261 9.50397C16.9261 13.944 11.7696 19.2719 9.78087 21.1799Z" fill="white"/>
<path d="M9.78084 4.79932C8.95648 4.79932 8.15063 5.04564 7.4652 5.50714C6.77977 5.96863 6.24554 6.62458 5.93007 7.39202C5.6146 8.15946 5.53206 9.00393 5.69288 9.81864C5.85371 10.6334 6.25068 11.3817 6.83359 11.9691C7.4165 12.5565 8.15917 12.9565 8.9677 13.1185C9.77622 13.2806 10.6143 13.1974 11.3759 12.8795C12.1375 12.5616 12.7885 12.0233 13.2464 11.3326C13.7044 10.642 13.9489 9.82994 13.9489 8.99927C13.9489 7.88537 13.5098 6.8171 12.7281 6.02945C11.9464 5.24181 10.8863 4.79932 9.78084 4.79932ZM9.78084 10.7993C9.42754 10.7993 9.08218 10.6937 8.78842 10.4959C8.49467 10.2981 8.26571 10.017 8.13051 9.68809C7.99531 9.35919 7.95993 8.99727 8.02886 8.64811C8.09778 8.29895 8.26791 7.97822 8.51773 7.72649C8.76755 7.47476 9.08584 7.30333 9.43235 7.23388C9.77886 7.16442 10.138 7.20007 10.4644 7.33631C10.7908 7.47254 11.0698 7.70325 11.2661 7.99926C11.4624 8.29526 11.5671 8.64327 11.5671 8.99927C11.5671 9.47666 11.3789 9.93449 11.044 10.2721C10.709 10.6096 10.2546 10.7993 9.78084 10.7993Z" fill="white"/>
</svg>
