<svg width="16" height="21" viewBox="0 0 16 21" fill="none" xmlns="http://www.w3.org/2000/svg">
<path d="M8 0.646973C5.89206 0.646866 3.86926 1.48511 2.37124 2.9795C0.873231 4.4739 0.0210794 6.50367 0 8.62766C0 14.1497 7.05 20.2964 7.35 20.5584C7.53113 20.7145 7.76165 20.8003 8 20.8003C8.23835 20.8003 8.46887 20.7145 8.65 20.5584C9 20.2964 16 14.1497 16 8.62766C15.9789 6.50367 15.1268 4.4739 13.6288 2.9795C12.1307 1.48511 10.1079 0.646866 8 0.646973ZM8 18.4322C6.33 16.83 2 12.3862 2 8.62766C2 7.02417 2.63214 5.48635 3.75736 4.35251C4.88258 3.21867 6.4087 2.58169 8 2.58169C9.5913 2.58169 11.1174 3.21867 12.2426 4.35251C13.3679 5.48635 14 7.02417 14 8.62766C14 12.356 9.67 16.83 8 18.4322Z" fill="#181818"/>
<path d="M8 4.67773C7.30777 4.67773 6.63108 4.88458 6.05551 5.27211C5.47993 5.65964 5.03133 6.21045 4.76642 6.85488C4.50152 7.49932 4.4322 8.20844 4.56725 8.89257C4.7023 9.5767 5.03564 10.2051 5.52513 10.6983C6.01461 11.1916 6.63825 11.5275 7.31718 11.6636C7.99612 11.7996 8.69985 11.7298 9.33939 11.4629C9.97893 11.1959 10.5256 10.7439 10.9101 10.1639C11.2947 9.58393 11.5 8.90206 11.5 8.20453C11.5 7.26916 11.1313 6.37211 10.4749 5.71071C9.8185 5.04931 8.92826 4.67773 8 4.67773ZM8 9.71601C7.70333 9.71601 7.41332 9.62736 7.16665 9.46128C6.91997 9.2952 6.72771 9.05913 6.61418 8.78295C6.50065 8.50676 6.47095 8.20285 6.52882 7.90965C6.5867 7.61645 6.72956 7.34713 6.93934 7.13575C7.14912 6.92436 7.41639 6.78041 7.70737 6.72209C7.99834 6.66377 8.29994 6.6937 8.57403 6.8081C8.84811 6.9225 9.08238 7.11623 9.24721 7.36479C9.41203 7.61336 9.5 7.90558 9.5 8.20453C9.5 8.6054 9.34197 8.98985 9.06066 9.27331C8.77936 9.55677 8.39783 9.71601 8 9.71601Z" fill="#181818"/>
</svg>
