<svg width="79" height="80" viewBox="0 0 79 80" fill="none" xmlns="http://www.w3.org/2000/svg">
<path d="M76.6951 18.5506L73.4882 20.6678C73.3393 22.2733 72.931 23.8085 72.2731 25.2471L73.9848 28.6678C74.2496 29.1988 74.1448 29.8402 73.7255 30.2609L70.2579 33.7285C69.84 34.1464 69.1986 34.254 68.6662 33.9864L65.2455 32.2761C63.8055 32.934 62.2703 33.3409 60.6662 33.4899L58.5489 36.6968C58.2896 37.0913 57.8524 37.3175 57.3972 37.3175C57.2786 37.3175 57.1586 37.3009 57.04 37.2706L52.3034 36.0002C51.7296 35.8471 51.3186 35.3437 51.2827 34.7506L51.0537 30.9257C50.3958 30.4595 49.7862 29.945 49.2344 29.3933C48.6813 28.8416 48.1682 28.2319 47.702 27.574L43.8772 27.345C43.2841 27.3092 42.7806 26.8981 42.6275 26.3244L41.3572 21.5878C41.2041 21.014 41.4344 20.4071 41.9296 20.0802L45.1379 17.9616C45.2868 16.3575 45.6937 14.8223 46.3517 13.3837L44.6413 9.96298C44.3765 9.43056 44.48 8.79056 44.9007 8.36987L48.3682 4.90229C48.7875 4.48436 49.4289 4.37953 49.96 4.64436L53.3806 6.3547C54.8193 5.69677 56.3544 5.28987 57.96 5.14091L60.0772 1.93263C60.4041 1.43746 61.0124 1.20987 61.5848 1.36022L66.3227 2.63056C66.8965 2.78367 67.3075 3.28711 67.342 3.88022L67.5724 7.70505C68.2289 8.17125 68.84 8.68574 69.3917 9.23746C69.9448 9.78918 70.4565 10.3988 70.9227 11.0568L74.7489 11.2857C75.3406 11.3216 75.8441 11.7313 75.9972 12.3064L77.2675 17.043C77.4206 17.6168 77.1903 18.2237 76.6951 18.5506ZM73.5903 13.9795L70.0772 13.7685C69.6372 13.7437 69.2358 13.5078 68.9972 13.134C68.5393 12.4168 68.0151 11.7616 67.4413 11.1878C66.8662 10.6126 66.211 10.0885 65.4938 9.63056C65.1213 9.39332 64.8855 8.99194 64.8593 8.55056L64.6482 5.03746L61.8317 4.28298L59.8855 7.22918C59.6427 7.59746 59.2386 7.8278 58.7972 7.84711C57.0924 7.92298 55.4813 8.35056 54.0096 9.11608C53.6179 9.32022 53.1531 9.32436 52.7558 9.12711L49.6151 7.55608L47.5531 9.61815L49.1241 12.7588C49.3213 13.1547 49.3186 13.6209 49.1144 14.0126C48.3475 15.4844 47.92 17.0954 47.8441 18.7988C47.8248 19.2402 47.5944 19.6457 47.2262 19.8885L44.28 21.8347L45.0344 24.6513L48.5475 24.8609C48.9889 24.8871 49.3903 25.123 49.6275 25.4954C50.0869 26.214 50.611 26.8692 51.1848 27.443C51.76 28.0181 52.4137 28.5409 53.1324 29.0002C53.5048 29.2375 53.7406 29.6388 53.7668 30.0802L53.9765 33.5933L56.7944 34.3478L58.7393 31.4016C58.982 31.0333 59.3875 30.803 59.8289 30.7837C61.5337 30.7078 63.1434 30.2802 64.6165 29.5133C65.0082 29.3106 65.4731 29.3064 65.8689 29.5037L69.011 31.0747L71.0717 29.0126L69.5006 25.8719C69.3034 25.4761 69.3075 25.0099 69.5117 24.6181C70.2772 23.1464 70.7048 21.5354 70.7806 19.8306C70.8013 19.3906 71.0303 18.985 71.4 18.7423L74.3462 16.7961L73.5903 13.9795ZM59.3131 26.2113C57.4703 26.2113 55.7393 25.494 54.4358 24.1919C51.7475 21.5023 51.7475 17.1285 54.4358 14.4388C55.7393 13.1368 57.4703 12.4195 59.3131 12.4195C61.1544 12.4195 62.8855 13.1368 64.1889 14.4388C66.8786 17.1285 66.8786 21.5023 64.1889 24.1919C62.8855 25.494 61.1544 26.2113 59.3131 26.2113ZM62.2386 16.3892C61.4579 15.6071 60.4179 15.1768 59.3131 15.1768C58.2069 15.1768 57.1682 15.6071 56.3862 16.3892C54.7738 18.003 54.7738 20.6278 56.3862 22.2416C57.9503 23.8044 60.6758 23.8044 62.2386 22.2416C63.8524 20.6278 63.8524 18.003 62.2386 16.3892ZM47.3406 36.4885C47.76 36.9078 47.8648 37.5492 47.5986 38.0802L44.8786 43.5216C45.1958 44.1809 45.4744 44.8471 45.7117 45.5119L51.4731 47.4319C52.0358 47.6195 52.4165 48.1478 52.4165 48.7409V56.0968C52.4165 56.6899 52.0358 57.2168 51.4731 57.4057L45.7117 59.3257C45.4744 59.9906 45.1958 60.6568 44.8786 61.3161L47.5986 66.7561C47.8648 67.2885 47.7613 67.9285 47.3406 68.3492L42.1393 73.5506C41.7186 73.9699 41.0772 74.0747 40.5475 73.8099L35.1062 71.0885C34.4455 71.4057 33.7807 71.6844 33.1158 71.9216L31.1958 77.683C31.0082 78.2457 30.48 78.625 29.8869 78.625H22.531C21.9379 78.625 21.4096 78.2457 21.222 77.683L19.302 71.9216C18.6372 71.6844 17.971 71.4057 17.3117 71.0885L11.8703 73.8099C11.3379 74.0747 10.6979 73.9699 10.2786 73.5506L5.0772 68.3492C4.65651 67.9285 4.55307 67.2885 4.81927 66.7561L7.53927 61.3161C7.22203 60.6568 6.94341 59.9906 6.70617 59.3257L0.944791 57.4057C0.382032 57.2168 0.00134277 56.6899 0.00134277 56.0968V48.7409C0.00134277 48.1478 0.382032 47.6195 0.944791 47.4319L6.70617 45.5119C6.94341 44.8471 7.22203 44.1809 7.53927 43.5216L4.81927 38.0802C4.55307 37.5492 4.65789 36.9078 5.0772 36.4885L10.2786 31.2871C10.6979 30.8678 11.3393 30.7657 11.8703 31.0292L17.3117 33.7492C17.9724 33.4319 18.6372 33.1533 19.302 32.9161L21.222 27.1547C21.4096 26.5919 21.9379 26.2113 22.531 26.2113H29.8869C30.48 26.2113 31.0082 26.5919 31.1958 27.1547L33.1158 32.9161C33.7807 33.1533 34.4455 33.4319 35.1062 33.7492L40.5475 31.0292C41.0786 30.7644 41.72 30.8678 42.1393 31.2871L47.3406 36.4885ZM40.8924 33.9409L35.7227 36.5257C35.3269 36.7216 34.862 36.7188 34.4689 36.5147C33.5213 36.0209 32.5586 35.6181 31.6096 35.3188C31.1889 35.185 30.8565 34.8581 30.7158 34.4402L28.8924 28.9699H23.5255L21.702 34.4402C21.5613 34.8581 21.2303 35.185 20.8096 35.3188C19.8593 35.6181 18.8965 36.0209 17.9489 36.5147C17.5558 36.7188 17.091 36.7216 16.6951 36.5257L11.5255 33.9409L7.731 37.7354L10.3144 42.905C10.5131 43.3009 10.5089 43.7671 10.3048 44.1602C9.811 45.1064 9.40824 46.0678 9.10893 47.0182C8.97651 47.4402 8.64824 47.7713 8.23031 47.9119L2.75996 49.7354V55.1023L8.23031 56.9257C8.64824 57.065 8.97651 57.3975 9.10893 57.8195C9.40824 58.7685 9.811 59.7299 10.3048 60.6788C10.5089 61.0706 10.5131 61.5381 10.3144 61.9326L7.731 67.1009L11.5255 70.8968L16.6951 68.3119C17.0896 68.1147 17.5572 68.1175 17.9503 68.323C18.8965 68.8168 19.8579 69.2195 20.8082 69.5188C21.2303 69.6513 21.5613 69.9781 21.702 70.3975L23.5255 75.8664H28.8924L30.7158 70.3975C30.8565 69.9781 31.1889 69.6513 31.6096 69.5188C32.5586 69.2195 33.5213 68.8168 34.4689 68.323C34.8606 68.1175 35.3282 68.1147 35.7241 68.3119L40.8924 70.8968L44.6869 67.1009L42.102 61.9326C41.9062 61.5381 41.9089 61.0706 42.1144 60.6788C42.6069 59.7299 43.0096 58.7685 43.3089 57.8195C43.4413 57.3975 43.7696 57.065 44.1875 56.9257L49.6579 55.1023V49.7354L44.1875 47.9119C43.7696 47.7713 43.4413 47.4402 43.3089 47.0182C43.0096 46.0678 42.6069 45.1064 42.1144 44.1602C41.9089 43.7671 41.9048 43.3009 42.102 42.905L44.6869 37.7354L40.8924 33.9409ZM26.2082 64.8319C19.3641 64.8319 13.7944 59.2637 13.7944 52.4181C13.7944 45.574 19.3641 40.0044 26.2082 40.0044C33.0538 40.0044 38.622 45.574 38.622 52.4181C38.622 59.2637 33.0538 64.8319 26.2082 64.8319ZM26.2082 42.763C20.8855 42.763 16.5531 47.094 16.5531 52.4181C16.5531 57.7423 20.8855 62.0733 26.2082 62.0733C31.5324 62.0733 35.8648 57.7423 35.8648 52.4181C35.8648 47.094 31.5324 42.763 26.2082 42.763ZM26.2082 59.3147C22.4069 59.3147 19.3131 56.2209 19.3131 52.4181C19.3131 48.6168 22.4069 45.5216 26.2082 45.5216C30.011 45.5216 33.1062 48.6168 33.1062 52.4181C33.1062 56.2209 30.011 59.3147 26.2082 59.3147ZM26.2082 48.2802C23.9269 48.2802 22.0703 50.1368 22.0703 52.4181C22.0703 54.7009 23.9269 56.5561 26.2082 56.5561C28.491 56.5561 30.3475 54.7009 30.3475 52.4181C30.3475 50.1368 28.491 48.2802 26.2082 48.2802Z" fill="#307EED"/>
</svg>
