<svg width="55" height="36" viewBox="0 0 55 36" fill="none" xmlns="http://www.w3.org/2000/svg">
<path d="M53.4836 17.9302C50.4359 24.5787 40.6105 35.1259 27.2211 35.1259C13.8326 35.1259 4.00727 24.5787 0.959566 17.9302C0.853322 17.6983 0.853322 17.4314 0.959566 17.1987C4.00727 10.551 13.8326 0.00390625 27.2211 0.00390625C40.6105 0.00390625 50.4359 10.551 53.4836 17.1987C53.5898 17.4314 53.5898 17.6983 53.4836 17.9302ZM27.2211 1.76C14.4815 1.76 5.39283 12.1675 2.73059 17.5649C5.39283 22.9614 14.4815 33.3698 27.2211 33.3698C39.9625 33.3698 49.0512 22.9614 51.7134 17.5649C49.0512 12.1675 39.9625 1.76 27.2211 1.76ZM27.3045 29.8435C20.526 29.8435 15.0119 24.3294 15.0119 17.5508C15.0119 10.7723 20.526 5.25815 27.3045 5.25815C34.0831 5.25815 39.5972 10.7723 39.5972 17.5508C39.5972 24.3294 34.0831 29.8435 27.3045 29.8435ZM27.3045 7.01425C21.4945 7.01425 16.768 11.7417 16.768 17.5508C16.768 23.3609 21.4945 28.0874 27.3045 28.0874C33.1137 28.0874 37.8411 23.3609 37.8411 17.5508C37.8411 11.7417 33.1137 7.01425 27.3045 7.01425ZM27.3045 24.5752C23.4315 24.5752 20.2802 21.4239 20.2802 17.5508C20.2802 13.6778 23.4315 10.5264 27.3045 10.5264C28.3125 10.5264 29.2942 10.7416 30.2214 11.1657C30.6622 11.3676 30.8562 11.8883 30.6543 12.3291C30.4523 12.7707 29.9317 12.9657 29.4909 12.7628C28.7946 12.4441 28.0588 12.2825 27.3045 12.2825C24.3991 12.2825 22.0362 14.6462 22.0362 17.5508C22.0362 20.4563 24.3991 22.8191 27.3045 22.8191C30.2091 22.8191 32.5728 20.4563 32.5728 17.5508C32.5728 16.7746 32.4016 16.0195 32.0644 15.3057C31.8572 14.8675 32.0443 14.3442 32.4824 14.137C32.9214 13.9306 33.4447 14.1168 33.652 14.5549C34.1015 15.505 34.3289 16.513 34.3289 17.5508C34.3289 21.4239 31.1776 24.5752 27.3045 24.5752Z" fill="#307EED"/>
</svg>
